<svg aria-hidden="true" style="position: absolute; width: 0; height: 0; overflow: hidden;" version="1.1" xmlns="http://www.w3.org/2000/svg" xmlns:xlink="http://www.w3.org/1999/xlink">
<defs>
<symbol id="icon-Activity" viewBox="0 0 24 24">
<path d="M14.497 2.813c0.401 0 0.727 0.324 0.727 0.725 0 0.367-0.273 0.67-0.628 0.718l-0.099 0.007h-7.043c-2.379 0-3.909 1.57-3.997 4.020l-0.004 0.225v7.808c0 2.514 1.438 4.138 3.785 4.232l0.216 0.004h8.337c2.381 0 3.909-1.564 3.997-4.011l0.004-0.225v-6.8c0-0.4 0.325-0.724 0.727-0.724 0.368 0 0.672 0.273 0.72 0.626l0.007 0.098v6.8c0 3.275-2.074 5.576-5.227 5.681l-0.227 0.004h-8.337c-3.227 0-5.354-2.212-5.451-5.452l-0.003-0.233v-7.808c0-3.277 2.075-5.585 5.227-5.69l0.227-0.004h7.043zM16.547 9.411c0.288 0.223 0.363 0.619 0.189 0.927l-0.060 0.089-2.838 3.652c-0.225 0.289-0.625 0.362-0.934 0.186l-0.090-0.060-2.732-2.139-2.452 3.178c-0.223 0.288-0.62 0.363-0.929 0.191l-0.090-0.059c-0.289-0.222-0.365-0.618-0.192-0.926l0.059-0.090 2.9-3.758c0.224-0.29 0.625-0.364 0.935-0.188l0.090 0.060 2.732 2.14 2.391-3.075c0.246-0.316 0.702-0.374 1.020-0.129zM19.411 2c1.43 0 2.589 1.156 2.589 2.581s-1.159 2.581-2.589 2.581c-1.43 0-2.589-1.156-2.589-2.581s1.159-2.581 2.589-2.581zM19.411 3.449c-0.627 0-1.136 0.507-1.136 1.132s0.509 1.132 1.136 1.132c0.627 0 1.136-0.507 1.136-1.132s-0.509-1.132-1.136-1.132z"></path>
</symbol>
<symbol id="icon-minus" viewBox="0 0 24 24">
	<path d="M3,12L3,12c0-0.552,0.448-1,1-1h16c0.552,0,1,0.448,1,1v0c0,0.552-0.448,1-1,1H4C3.448,13,3,12.552,3,12z" />
</symbol>
<symbol id="icon-Bag" viewBox="0 0 24 24">
<path d="M11.989 2c2.542 0 4.634 1.919 4.891 4.381l0.072 0.001c1.743 0 3.201 1.312 3.705 3.6v0l0.786 6.067c0.449 3.822-1.738 5.952-5.396 5.952v0h-8.097c-3.956 0-5.977-1.889-5.33-6.188v0l0.761-5.87c0.42-2.259 1.917-3.56 3.699-3.56v0c0.119-1.113 0.617-2.159 1.422-2.956 0.927-0.918 2.183-1.431 3.488-1.426zM16.952 7.83h-9.873c-1.065 0-1.973 0.789-2.262 2.337v0l-0.757 5.846c-0.506 3.359 0.758 4.54 3.889 4.54v0h8.097c2.891 0 4.364-1.487 3.922-4.555v0l-0.744-5.767c-0.353-1.592-1.251-2.4-2.273-2.4v0zM14.865 10.516c0.402 0 0.727 0.324 0.727 0.724 0 0.366-0.274 0.669-0.629 0.717l-0.099 0.007h-0.044c-0.402 0-0.727-0.324-0.727-0.724 0-0.366 0.274-0.669 0.629-0.717l0.099-0.007h0.044zM9.21 10.516c0.402 0 0.728 0.324 0.728 0.724 0 0.366-0.274 0.669-0.629 0.717l-0.099 0.007h-0.044c-0.402 0-0.728-0.324-0.728-0.724 0-0.366 0.274-0.669 0.629-0.717l0.099-0.007h0.044zM11.985 3.448c-0.921-0.004-1.806 0.357-2.458 1.004-0.53 0.525-0.871 1.203-0.981 1.929l6.868 0c-0.249-1.66-1.688-2.934-3.428-2.934z"></path>
</symbol>
<symbol id="icon-cross" viewBox="0 0 24 24">
	<path d="M4.9902344 3.9902344 A 1.0001 1.0001 0 0 0 4.2929688 5.7070312L10.585938 12L4.2929688 18.292969 A 1.0001 1.0001 0 1 0 5.7070312 19.707031L12 13.414062L18.292969 19.707031 A 1.0001 1.0001 0 1 0 19.707031 18.292969L13.414062 12L19.707031 5.7070312 A 1.0001 1.0001 0 0 0 18.980469 3.9902344 A 1.0001 1.0001 0 0 0 18.292969 4.2929688L12 10.585938L5.7070312 4.2929688 A 1.0001 1.0001 0 0 0 4.9902344 3.9902344 z"/>
</symbol>
<symbol id="icon-Bookmark" viewBox="0 0 24 24">
<path d="M14.986 2c3.062 0 5.014 1.435 5.014 4.258v0 14.073c0 0.443-0.172 0.867-0.477 1.18s-0.719 0.489-1.162 0.489c-0.264-0.004-0.524-0.071-0.774-0.203v0l-5.612-3.134-5.59 3.14c-0.673 0.359-1.489 0.193-2-0.406v0l-0.098-0.126-0.094-0.155c-0.122-0.239-0.188-0.504-0.193-0.786v0-13.897c0-2.935 1.909-4.434 5.014-4.434v0zM14.986 3.448h-5.971c-2.395 0-3.602 0.948-3.602 2.987v0l-0 13.885c0.001 0.044 0.012 0.088-0 0.071v0l0.037 0.062c0.065 0.090 0.186 0.12 0.27 0.075v0l5.587-3.138c0.416-0.231 0.918-0.231 1.337 0.001v0l5.603 3.128c0.042 0.022 0.089 0.034 0.126 0.035 0.057 0 0.112-0.023 0.153-0.065s0.063-0.098 0.063-0.157v0-14.073c0-1.9-1.238-2.81-3.602-2.81v0zM15.408 8.317c0.39 0 0.706 0.324 0.706 0.724 0 0.366-0.266 0.669-0.61 0.717l-0.096 0.007h-6.867c-0.39 0-0.706-0.324-0.706-0.724 0-0.366 0.266-0.669 0.61-0.717l0.096-0.007h6.867z"></path>
</symbol>
<symbol id="icon-Calendar" viewBox="0 0 24 24">
<path d="M15.733 2c0.35 0 0.64 0.262 0.686 0.603l0.006 0.095 0 0.789c2.843 0.195 4.584 2.033 4.575 5v0 8.489c0 3.145-1.955 5.026-5.096 5.026v0h-7.807c-3.138 0-5.096-1.913-5.096-5.096v0-8.418c0-2.966 1.747-4.804 4.583-4.999l0-0.789c0-0.385 0.31-0.698 0.692-0.698 0.35 0 0.64 0.262 0.686 0.603l0.006 0.095-0 0.771h6.072l0-0.771c0-0.385 0.31-0.698 0.692-0.698zM19.615 10.283h-15.231l0.001 6.621c0 2.325 1.245 3.616 3.484 3.697l0.227 0.004h7.807c2.391 0 3.712-1.271 3.712-3.63v0l-0-6.691zM16.109 16.136c0.382 0 0.692 0.312 0.692 0.698 0 0.353-0.26 0.645-0.598 0.691l-0.094 0.006c-0.391 0-0.701-0.312-0.701-0.698 0-0.353 0.26-0.645 0.598-0.691l0.102-0.006zM12.013 16.136c0.382 0 0.692 0.312 0.692 0.698 0 0.353-0.26 0.645-0.598 0.691l-0.094 0.006c-0.391 0-0.701-0.312-0.701-0.698 0-0.353 0.26-0.645 0.598-0.691l0.102-0.006zM7.908 16.136c0.382 0 0.692 0.312 0.692 0.698 0 0.353-0.26 0.645-0.598 0.691l-0.102 0.006c-0.382 0-0.692-0.312-0.692-0.698 0-0.353 0.26-0.645 0.598-0.691l0.102-0.006zM16.109 12.521c0.382 0 0.692 0.312 0.692 0.698 0 0.353-0.26 0.645-0.598 0.691l-0.094 0.006c-0.391 0-0.701-0.312-0.701-0.698 0-0.353 0.26-0.645 0.598-0.691l0.102-0.006zM12.013 12.521c0.382 0 0.692 0.312 0.692 0.698 0 0.353-0.26 0.645-0.598 0.691l-0.094 0.006c-0.391 0-0.701-0.312-0.701-0.698 0-0.353 0.26-0.645 0.598-0.691l0.102-0.006zM7.908 12.521c0.382 0 0.692 0.312 0.692 0.698 0 0.353-0.26 0.645-0.598 0.691l-0.102 0.006c-0.382 0-0.692-0.312-0.692-0.698 0-0.353 0.26-0.645 0.598-0.691l0.102-0.006zM15.040 4.864h-6.072l0 0.895c0 0.385-0.31 0.698-0.692 0.698-0.35 0-0.64-0.262-0.686-0.603l-0.006-0.095-0.001-0.874c-2.064 0.173-3.198 1.421-3.198 3.601v0l-0.001 0.401h15.231l0-0.403c0.007-2.181-1.122-3.427-3.19-3.599l-0 0.874c0 0.385-0.31 0.698-0.692 0.698-0.35 0-0.64-0.262-0.686-0.603l-0.006-0.095-0-0.895z"></path>
</symbol>
<symbol id="icon-recent" viewBox="0 0 24 24">
<path d="M12.152344 2.0019531C9.2599673 1.9586724 6.6486603 3.1563834 4.796875 5.0898438L2.8535156 3.1464844C2.6585156 2.9514844 2.3414844 2.9514844 2.1464844 3.1464844C2.0484844 3.2434844 2 3.372 2 3.5L2 8 A 1 1 0 0 0 3 9L7.5 9C7.628 9 7.7555156 8.9505156 7.8535156 8.8535156C8.0485156 8.6585156 8.0485156 8.3414844 7.8535156 8.1464844L6.2167969 6.5097656C8.0280636 4.6011789 10.751876 3.5690652 13.691406 4.1757812C16.766406 4.8107812 19.231844 7.2998594 19.839844 10.380859C20.849844 15.498859 16.941 20 12 20C7.881 20 4.479875 16.870234 4.046875 12.865234C3.992875 12.368234 3.5625 12 3.0625 12C2.4625 12 1.9955 12.525094 2.0625 13.121094C2.6215 18.109094 6.866 22 12 22C18.136 22 22.999266 16.443656 21.822266 10.097656C21.077266 6.0746562 17.817109 2.86025 13.787109 2.15625C13.234734 2.059875 12.688797 2.0099805 12.152344 2.0019531 z M 12 6C11.448 6 11 6.448 11 7L11 12C11 12.265 11.104969 12.520031 11.292969 12.707031L13.585938 15C13.975938 15.39 14.61 15.39 15 15C15.39 14.61 15.39 13.975938 15 13.585938L13 11.585938L13 7C13 6.448 12.552 6 12 6 z" fill="#264653" />
</symbol>
<symbol id="icon-Category" viewBox="0 0 24 24">
<path d="M8.013 12.945c1.645 0 2.976 1.343 2.976 2.996v0 3.063c0 1.653-1.331 2.996-2.976 2.996v0h-3.038c-1.645 0-2.976-1.342-2.976-2.996v0-3.063c0-1.654 1.331-2.996 2.976-2.996v0zM19.025 12.945c1.644 0 2.975 1.343 2.975 2.996v0 3.063c0 1.653-1.331 2.996-2.975 2.996v0h-3.039c-1.645 0-2.976-1.342-2.976-2.996v0-3.063c0-1.654 1.331-2.996 2.976-2.996v0zM8.013 14.34h-3.038c-0.872 0-1.58 0.715-1.58 1.601v0 3.063c0 0.885 0.709 1.6 1.58 1.6v0h3.038c0.871 0 1.58-0.715 1.58-1.6v0-3.063c0-0.886-0.709-1.601-1.58-1.601v0zM19.025 14.34h-3.039c-0.872 0-1.58 0.715-1.58 1.601v0 3.063c0 0.885 0.709 1.6 1.58 1.6v0h3.039c0.871 0 1.579-0.715 1.579-1.6v0-3.063c0-0.886-0.709-1.601-1.579-1.601v0zM19.025 2c1.644 0 2.975 1.343 2.975 2.996v0 3.064c0 1.652-1.331 2.996-2.975 2.996v0h-3.039c-1.645 0-2.976-1.343-2.976-2.996v0-3.064c0-1.653 1.331-2.996 2.976-2.996v0zM8.013 2c1.645 0 2.976 1.342 2.976 2.996v0 3.064c0 1.652-1.331 2.996-2.976 2.996v0h-3.038c-1.645 0-2.976-1.343-2.976-2.996v0-3.064c0-1.653 1.331-2.996 2.976-2.996v0zM19.025 3.395h-3.039c-0.871 0-1.58 0.715-1.58 1.6v0 3.064c0 0.885 0.709 1.6 1.58 1.6v0h3.039c0.87 0 1.579-0.716 1.579-1.6v0-3.064c0-0.885-0.709-1.6-1.579-1.6v0zM8.013 3.395h-3.038c-0.872 0-1.58 0.715-1.58 1.6v0 3.064c0 0.885 0.709 1.6 1.58 1.6v0h3.038c0.871 0 1.58-0.716 1.58-1.6v0-3.064c0-0.885-0.709-1.6-1.58-1.6v0z"></path>
</symbol>
<symbol id="icon-Chart" viewBox="0 0 24 24">
<path d="M16.359 2c3.391 0 5.641 2.417 5.641 5.893v0 8.214c0 3.477-2.25 5.893-5.641 5.893v0h-8.718c-3.391 0-5.641-2.417-5.641-5.893v0-8.214c0-3.473 2.256-5.893 5.641-5.893v0zM16.359 3.395h-8.718c-2.592 0-4.246 1.774-4.246 4.498v0 8.214c0 2.727 1.648 4.498 4.246 4.498v0h8.718c2.597 0 4.246-1.771 4.246-4.498v0-8.214c0-2.727-1.648-4.498-4.246-4.498v0zM7.694 9.63c0.353 0 0.645 0.262 0.691 0.603l0.006 0.095v6.382c0 0.385-0.312 0.698-0.698 0.698-0.353 0-0.645-0.262-0.691-0.603l-0.006-0.095v-6.382c0-0.385 0.312-0.698 0.698-0.698zM12.035 6.576c0.353 0 0.645 0.262 0.691 0.603l0.006 0.095v9.435c0 0.385-0.312 0.698-0.698 0.698-0.353 0-0.645-0.262-0.691-0.603l-0.006-0.095v-9.435c0-0.385 0.312-0.698 0.698-0.698zM16.306 13.002c0.353 0 0.645 0.262 0.691 0.603l0.006 0.095v3.009c0 0.385-0.312 0.698-0.698 0.698-0.353 0-0.645-0.262-0.691-0.603l-0.006-0.095v-3.009c0-0.385 0.312-0.698 0.698-0.698z"></path>
</symbol>
<symbol id="icon-Chat" viewBox="0 0 24 24">
<path d="M12.058 2c4.154 0.031 7.857 2.618 9.31 6.504s0.351 8.264-2.768 11.004c-3.119 2.739-7.607 3.272-11.282 1.34v0l-0.046-0.016c-0.007-0.004-0.008-0.008-0.010-0.012v0l-0.683-0.386c-0.139-0.057-0.293-0.066-0.387-0.042-0.709 0.255-1.435 0.465-2.171 0.627v0l-0.135 0.016c-0.811 0.018-1.219-0.508-1.219-1.273v0l0.020-0.164c0.184-0.761 0.415-1.511 0.677-2.204 0.041-0.131 0.027-0.273-0.043-0.405v0l-0.184-0.358c-1.625-3.106-1.502-6.836 0.323-9.829s5.086-4.814 8.597-4.8zM12.048 3.395l-0.281 0.004c-2.913 0.083-5.594 1.632-7.116 4.127-1.57 2.575-1.676 5.783-0.275 8.461v0l0.181 0.353c0.241 0.45 0.291 0.978 0.126 1.505-0.256 0.68-0.47 1.374-0.64 2.080l0.094-0.368 0.395-0.103c0.135-0.037 0.271-0.077 0.408-0.118l0.412-0.131 0.419-0.144c0.442-0.122 0.912-0.094 1.376 0.097 0.097 0.047 0.218 0.112 0.37 0.198v0l0.422 0.242c0.007 0.002 0.013 0.004 0.018 0.005v0l-0.012-0.002 0.288 0.144c3.026 1.461 6.63 1.031 9.226-1.1v0l0.22-0.187c2.684-2.357 3.631-6.124 2.382-9.467s-4.437-5.571-8.012-5.598v0zM7.616 10.86c0.63 0 1.141 0.51 1.141 1.141s-0.511 1.141-1.141 1.141c-0.63 0-1.141-0.51-1.141-1.141s0.511-1.141 1.141-1.141zM12.053 10.86c0.63 0 1.141 0.51 1.141 1.141s-0.511 1.141-1.141 1.141c-0.63 0-1.141-0.51-1.141-1.141s0.511-1.141 1.141-1.141zM16.49 10.86c0.63 0 1.141 0.51 1.141 1.141s-0.511 1.141-1.141 1.141c-0.63 0-1.141-0.51-1.141-1.141s0.511-1.141 1.141-1.141z"></path>
</symbol>
<symbol id="icon-Discovery" viewBox="0 0 24 24">
<path d="M12 2c5.523 0 10 4.477 10 10s-4.477 10-10 10c-5.523 0-10-4.477-10-10s4.477-10 10-10zM12 3.448c-4.723 0-8.552 3.829-8.552 8.552s3.829 8.552 8.552 8.552c4.723 0 8.552-3.829 8.552-8.552s-3.829-8.552-8.552-8.552zM15.008 8.085c0.558-0.174 1.082 0.349 0.907 0.907v0l-1.537 4.912c-0.071 0.226-0.248 0.404-0.475 0.475v0l-4.912 1.537c-0.558 0.174-1.082-0.349-0.907-0.907v0l1.537-4.912c0.071-0.226 0.248-0.404 0.475-0.475v0zM14.12 9.879l-3.23 1.011-1.011 3.23 3.23-1.011 1.011-3.23z"></path>
</symbol>
<symbol id="icon-Document" viewBox="0 0 24 24">
<path d="M15.863 2c3.196 0 5.107 1.92 5.137 5.132v9.659c0 3.257-1.916 5.209-5.137 5.209h-7.725c-0.412 0-0.803-0.032-1.171-0.095l-0.218-0.041c-2.371-0.493-3.749-2.309-3.749-5.073v-9.582c0-0.334 0.020-0.654 0.060-0.96 0.349-2.685 2.194-4.249 5.078-4.249h7.725zM15.854 3.457h-7.716c-2.456 0-3.701 1.263-3.701 3.752v9.582c0 2.489 1.245 3.752 3.701 3.752h7.716c2.455 0 3.692-1.263 3.692-3.752v-9.582c0-2.489-1.237-3.752-3.692-3.752zM15.593 15.51c0.394 0 0.713 0.324 0.713 0.724s-0.319 0.724-0.713 0.724h-7.211c-0.394 0-0.714-0.324-0.714-0.724s0.32-0.724 0.714-0.724h7.211zM15.593 11.271c0.275-0.030 0.544 0.102 0.691 0.339 0.147 0.239 0.147 0.541 0 0.78-0.147 0.237-0.416 0.369-0.691 0.339h-7.211c-0.366-0.042-0.643-0.355-0.643-0.729s0.277-0.688 0.643-0.729h7.211zM11.134 7.042c0.366 0.041 0.643 0.355 0.643 0.729s-0.277 0.687-0.643 0.728h-2.743c-0.367-0.041-0.644-0.355-0.644-0.728 0-0.374 0.277-0.688 0.644-0.729h2.743z"></path>
</symbol>
<symbol id="icon-Folder" viewBox="0 0 24 24">
<path d="M9.385 2c0.922 0 1.791 0.435 2.343 1.173v0l0.882 1.174c0.281 0.373 0.72 0.593 1.185 0.594v0h2.735c3.781 0 5.47 1.981 5.47 6.029v0l-0.026 4.801c0 3.863-2.362 6.228-6.22 6.228v0h-7.524c-3.866 0-6.229-2.364-6.229-6.228v0-7.543c0-4.053 1.73-6.228 5.453-6.228v0zM9.385 3.451h-1.932c-2.84 0-4.003 1.462-4.003 4.777v0 7.543c0 3.063 1.714 4.777 4.779 4.777v0h7.524c3.058 0 4.771-1.715 4.771-4.781v0l0.026-4.801c0-3.289-1.096-4.574-4.021-4.574v0h-2.736c-0.921-0.002-1.788-0.436-2.342-1.173v0l-0.883-1.175c-0.28-0.373-0.718-0.593-1.184-0.593v0zM16.618 13.818c0.4 0 0.725 0.325 0.725 0.726 0 0.367-0.273 0.671-0.626 0.719l-0.098 0.007h-9.271c-0.4 0-0.725-0.325-0.725-0.726 0-0.367 0.273-0.671 0.626-0.719l0.098-0.007h9.271z"></path>
</symbol>
<symbol id="icon-Game" viewBox="0 0 24 24">
<path d="M8.338 2.001c0.344-0.016 0.702 0.305 0.705 0.69 0.003 0.308 0.256 0.557 0.563 0.557v0h1.015c1.44 0 2.626 1.169 2.645 2.616v0 0.24h2.848c3.183-0.026 5.746 2.337 5.88 5.414 0.005 0.121 0.006 0.245 0.004 0.368v0 4.31c0.068 3.108-2.416 5.704-5.538 5.773-0.128 0.003-0.249 0-0.371-0.005-1.378 0.024-2.764 0.036-4.143 0.036-1.371 0-2.735-0.012-4.077-0.035-3.079 0.131-5.727-2.293-5.864-5.412-0.006-0.123-0.006-0.247-0.004-0.371v0-4.312c-0.033-1.497 0.525-2.931 1.572-4.024 1.046-1.094 2.455-1.714 3.968-1.746 0.123-0.004 0.249-0.003 0.375 0.005v0l3.955-0.001v-0.231c-0.009-0.676-0.571-1.229-1.255-1.229v0h-1.016c-1.064 0-1.94-0.867-1.952-1.938-0.004-0.386 0.306-0.701 0.69-0.705zM7.667 7.494l-0.092 0.001c-1.143 0.025-2.205 0.491-2.993 1.316-0.79 0.823-1.21 1.904-1.185 3.045v0 4.34c-0.002 0.108-0.001 0.202 0.003 0.294 0.103 2.353 2.081 4.193 4.451 4.080 2.719 0.046 5.482 0.046 8.256-0.001 0.136 0.006 0.232 0.007 0.327 0.004 2.349-0.050 4.222-2.007 4.17-4.361v-4.342c0.002-0.105 0.001-0.198-0.003-0.291-0.101-2.338-1.99-4.082-4.405-4.082-0.024 0-0.044 0.002-0.076 0.002v0h-8.237c-0.126-0.005-0.217-0.006-0.308-0.004zM9.080 11.585c0.373 0 0.681 0.272 0.73 0.626l0.007 0.098-0.001 1.016 1.035 0.001c0.407 0 0.736 0.324 0.736 0.724 0 0.366-0.277 0.669-0.636 0.717l-0.1 0.007-1.035-0 0.001 1.017c0 0.4-0.33 0.724-0.736 0.724-0.373 0-0.681-0.272-0.73-0.626l-0.007-0.098-0-1.017-1.033 0c-0.407 0-0.736-0.324-0.736-0.724 0-0.366 0.277-0.669 0.636-0.717l0.1-0.007 1.033-0.001 0-1.016c0-0.4 0.33-0.724 0.736-0.724zM16.798 15.013c0.407 0 0.736 0.324 0.736 0.724 0 0.366-0.277 0.669-0.636 0.717l-0.1 0.007h-0.099c-0.407 0-0.736-0.324-0.736-0.724 0-0.366 0.277-0.669 0.636-0.717l0.1-0.007h0.099zM15.118 11.691c0.407 0 0.736 0.324 0.736 0.724 0 0.366-0.277 0.669-0.636 0.717l-0.1 0.007h-0.099c-0.407 0-0.736-0.324-0.736-0.724 0-0.366 0.277-0.669 0.636-0.717l0.1-0.007h0.099z"></path>
</symbol>
<symbol id="icon-Graph" viewBox="0 0 24 24">
<path d="M10.498 6.761c0.088 0.174 0.14 0.363 0.156 0.56l0.389 5.489c0.005 0.075 0.041 0.145 0.099 0.195 0.044 0.037 0.097 0.060 0.157 0.067l0.062 0.001 5.574-0.336c0.453-0.027 0.896 0.131 1.226 0.435s0.516 0.729 0.514 1.219c-0.248 3.612-2.901 6.632-6.515 7.415s-7.323-0.859-9.101-4.022c-0.476-0.815-0.796-1.707-0.944-2.61l-0.047-0.339c-0.041-0.254-0.063-0.51-0.066-0.756l0.003-0.242c0.010-3.772 2.658-7.033 6.385-7.913l0.256-0.056 0.138-0.023c0.721-0.099 1.43 0.279 1.716 0.915zM9.016 7.278l-0.084 0.010-0.228 0.052c-2.968 0.715-5.097 3.271-5.216 6.282l-0.005 0.245c-0.007 0.186-0 0.373 0.022 0.572l0.028 0.203c0.099 0.854 0.375 1.68 0.816 2.436 1.467 2.609 4.518 3.959 7.49 3.316s5.155-3.128 5.357-6.051c0-0.044-0.018-0.086-0.051-0.116-0.022-0.020-0.049-0.034-0.077-0.040l-0.044-0.003-5.565 0.335c-0.47 0.033-0.934-0.118-1.289-0.42s-0.573-0.73-0.605-1.187l-0.388-5.484c-0.001-0.009-0.003-0.018-0.020-0.053-0.025-0.056-0.080-0.092-0.14-0.095zM13.423 2.001c4.285 0.121 7.88 3.201 8.567 7.34v0l0.010 0.116-0.002 0.202c-0.024 0.298-0.144 0.581-0.343 0.808-0.25 0.286-0.607 0.462-0.996 0.49v0l-6.645 0.433c-0.852 0.048-1.584-0.585-1.639-1.417v0l-0.444-6.524 0.005-0.146 0.022-0.165c0.059-0.292 0.211-0.559 0.436-0.762 0.281-0.255 0.655-0.39 1.030-0.375zM13.411 3.449l0.44 6.429c0.003 0.039 0.037 0.069 0.070 0.067v0l6.597-0.432-0.033-0.18c-0.654-3.253-3.474-5.669-6.857-5.874v0l-0.217-0.010z"></path>
</symbol>
<symbol id="icon-Heart" viewBox="0 0 24 24">
<path d="M6.483 2.815c1.757-0.565 3.659-0.362 5.25 0.541v0l0.263 0.158 0.268-0.159c1.508-0.854 3.298-1.082 4.982-0.619v0l0.266 0.079c3.673 1.182 5.317 5.193 4.082 9.030-0.619 1.785-1.635 3.403-2.976 4.737-1.825 1.772-3.836 3.337-5.996 4.665v0l-0.229 0.142c-0.233 0.145-0.527 0.147-0.762 0.006v0l-0.246-0.147c-2.162-1.33-4.174-2.895-6.005-4.673-1.335-1.328-2.351-2.946-2.975-4.747-1.231-3.824 0.407-7.832 4.078-9.014zM11.375 4.854c-1.304-0.891-2.941-1.131-4.443-0.648-2.844 0.916-4.133 4.072-3.139 7.16 0.547 1.575 1.443 3.003 2.614 4.168 1.748 1.698 3.675 3.197 5.738 4.465l-0.143-0.090 0.468-0.294c1.633-1.055 3.172-2.251 4.595-3.573v0l0.528-0.502c1.177-1.171 2.073-2.599 2.615-4.159 0.998-3.101-0.297-6.259-3.142-7.175-1.577-0.506-3.298-0.216-4.628 0.78-0.255 0.191-0.605 0.195-0.865 0.009v0zM15.87 6.484c1.321 0.422 2.259 1.605 2.375 2.995 0.034 0.402-0.265 0.756-0.668 0.789s-0.756-0.265-0.79-0.667c-0.068-0.803-0.607-1.484-1.363-1.725-0.385-0.123-0.597-0.534-0.474-0.918s0.534-0.597 0.919-0.474z"></path>
</symbol>
<symbol id="icon-Home" viewBox="0 0 24 24">
<path d="M9.73 2.788c1.27-1.009 3.050-1.049 4.359-0.12v0l0.161 0.12 6.089 4.871c0.67 0.519 1.081 1.29 1.151 2.129v0l0.010 0.201v8.109c0 2.090-1.651 3.79-3.72 3.9v0h-1.99c-0.951-0.019-1.72-0.759-1.79-1.689v0l-0.010-0.141v-2.859c0-0.311-0.231-0.57-0.54-0.621v0l-0.090-0.010h-2.671c-0.319 0.010-0.579 0.24-0.619 0.54v0l-0.010 0.091v2.85c0 0.059-0.011 0.129-0.020 0.179v0l-0.010 0.021-0.011 0.069c-0.119 0.851-0.819 1.5-1.689 1.561v0l-0.13 0.009h-1.79c-2.090 0-3.8-1.639-3.91-3.7v0-8.309c0.009-0.851 0.38-1.641 1-2.191v0zM13.38 3.878c-0.76-0.61-1.84-0.639-2.64-0.11v0l-0.151 0.11-6.080 4.901c-0.349 0.259-0.559 0.649-0.609 1.059v0l-0.011 0.16v8.1c0 1.33 1.040 2.42 2.361 2.5v0h1.95c0.22 0 0.41-0.149 0.439-0.359v0l0.021-0.18 0.010-0.051v-2.699c0-1.070 0.82-1.94 1.87-2.021v0h2.82c1.069 0 1.939 0.821 2.020 1.871v0 3.009c0 0.21 0.15 0.391 0.35 0.43v0h1.859c1.34 0 2.43-1.029 2.51-2.34v0l0.011-0.16v-8.1c-0.011-0.429-0.19-0.83-0.5-1.129v0l-0.13-0.111z"></path>
</symbol>
<symbol id="icon-Logo" viewBox="0 0 32 32">
<path d="M26.687 0h-21.375c-1.999 0-3.625 1.626-3.625 3.625v23.125c0 1.034 0.841 1.875 1.875 1.875h8.208c0.345 0 0.625-0.28 0.625-0.625s-0.28-0.625-0.625-0.625h-8.208c-0.345 0-0.625-0.28-0.625-0.625v-23.125c0-1.31 1.065-2.375 2.375-2.375h18.64c-0.553 0.637-0.89 1.467-0.89 2.375v20.142c0 0.577-0.469 1.046-1.046 1.046-0.451 0-0.849-0.287-0.992-0.715l-0.942-2.826c-0.266-0.798-1.010-1.334-1.851-1.334-1.076 0-1.951 0.875-1.951 1.95v0.487h-3.239c-0.345 0-0.625 0.28-0.625 0.625s0.28 0.625 0.625 0.625h3.239v3.109c0 0.923 0.18 1.823 0.535 2.674l0.919 2.207c0.1 0.24 0.332 0.385 0.577 0.385 0.080 0 0.162-0.015 0.24-0.048 0.319-0.133 0.469-0.499 0.337-0.817l-0.919-2.207c-0.291-0.698-0.439-1.437-0.439-2.193v-4.846c0-0.386 0.314-0.701 0.701-0.701 0.302 0 0.569 0.192 0.665 0.479l0.942 2.826c0.313 0.939 1.188 1.57 2.178 1.57 1.266 0 2.296-1.030 2.296-2.296v-10.716l0.835 0.834c1.49 1.487 2.311 3.466 2.311 5.571v6.644c0 1.721-0.39 3.452-1.127 5.007-0.148 0.312-0.015 0.685 0.297 0.833s0.685 0.015 0.833-0.297c0.816-1.721 1.248-3.638 1.248-5.543v-6.644c0-2.44-0.951-4.732-2.678-6.456l-1.718-1.715v-0.597h4.125c1.034 0 1.875-0.841 1.875-1.875v-5.188c0-1.999-1.626-3.625-3.625-3.625zM29.062 8.813c0 0.344-0.28 0.625-0.625 0.625h-4.125v-5.813c0-1.31 1.065-2.375 2.375-2.375s2.375 1.065 2.375 2.375z"></path>
<path d="M14.5 27.375c-0.165 0-0.326 0.067-0.442 0.183s-0.183 0.278-0.183 0.442c0 0.165 0.067 0.326 0.183 0.442s0.277 0.183 0.442 0.183c0.164 0 0.325-0.067 0.442-0.183s0.183-0.277 0.183-0.442c0-0.164-0.067-0.325-0.183-0.442s-0.278-0.183-0.442-0.183z"></path>
<path d="M10.292 4.625c0-0.689-0.561-1.25-1.25-1.25h-2.75c-0.689 0-1.25 0.561-1.25 1.25v2.75c0 0.689 0.561 1.25 1.25 1.25h2.75c0.689 0 1.25-0.561 1.25-1.25zM9.042 7.375h-2.75v-2.75h2.75l0.001 2.75s-0 0-0.001 0z"></path>
<path d="M10.292 12.125c0-0.689-0.561-1.25-1.25-1.25h-2.75c-0.689 0-1.25 0.561-1.25 1.25v2.75c0 0.689 0.561 1.25 1.25 1.25h2.75c0.689 0 1.25-0.561 1.25-1.25zM9.042 14.875h-2.75v-2.75h2.75l0.001 2.75s-0 0-0.001 0z"></path>
<path d="M9.042 18.375h-2.75c-0.689 0-1.25 0.561-1.25 1.25v2.75c0 0.689 0.561 1.25 1.25 1.25h2.75c0.689 0 1.25-0.561 1.25-1.25v-2.75c0-0.689-0.561-1.25-1.25-1.25zM9.042 22.375h-2.75v-2.75h2.75l0.001 2.75s-0 0-0.001 0z"></path>
<path d="M20.208 8.625c0.345 0 0.625-0.28 0.625-0.625s-0.28-0.625-0.625-0.625h-4.309c-0.345 0-0.625 0.28-0.625 0.625s0.28 0.625 0.625 0.625z"></path>
<path d="M13.042 8.625c0.165 0 0.326-0.067 0.442-0.183s0.183-0.278 0.183-0.442-0.067-0.326-0.183-0.442c-0.116-0.116-0.277-0.183-0.442-0.183s-0.326 0.067-0.442 0.183c-0.117 0.116-0.183 0.278-0.183 0.442s0.066 0.326 0.183 0.442c0.116 0.116 0.277 0.183 0.442 0.183z"></path>
<path d="M13.041 16.125h7.167c0.345 0 0.625-0.28 0.625-0.625s-0.28-0.625-0.625-0.625h-7.167c-0.345 0-0.625 0.28-0.625 0.625s0.28 0.625 0.625 0.625z"></path>
</symbol>
<symbol id="icon-Location" viewBox="0 0 24 24">
<path d="M12.029 2l0.255 0.005c4.576 0.151 8.232 3.927 8.216 8.548v0l-0 0.102c-0.052 2.756-1.431 5.47-3.719 7.892-1.129 1.176-2.389 2.217-3.756 3.102l0.010-0.007-0.048 0.041c-0.547 0.393-1.271 0.421-1.843 0.084l-0.129-0.084-0.060-0.047-0.413-0.278c-1.717-1.184-3.246-2.62-4.533-4.256v0l-0.317-0.413c-1.348-1.767-2.114-3.912-2.19-6.161v0l0.005-0.285c0.15-4.59 3.915-8.257 8.524-8.241v0zM12.024 3.518l-0.24 0.003c-3.748 0.114-6.758 3.192-6.771 6.979v0l0.019 0.357c0.13 1.781 0.775 3.487 1.865 4.915 1.352 1.811 3.012 3.37 4.902 4.604v0l0.082 0.062c0.068 0.059 0.17 0.059 0.238 0v0l0.085-0.064c1.269-0.822 2.439-1.788 3.483-2.875 2.047-2.167 3.257-4.548 3.301-6.859v0l-0.003-0.332c-0.114-3.76-3.182-6.779-6.96-6.792v0zM12 7.401c1.788 0 3.238 1.454 3.238 3.248s-1.45 3.248-3.238 3.248c-1.788 0-3.238-1.454-3.238-3.248s1.45-3.248 3.238-3.248zM12 8.919c-0.953 0-1.725 0.775-1.725 1.731s0.772 1.731 1.725 1.731c0.953 0 1.725-0.775 1.725-1.731s-0.773-1.731-1.725-1.731z"></path>
</symbol>
<symbol id="icon-Message" viewBox="0 0 24 24">
<path d="M16.525 3c1.514 0.017 2.955 0.658 3.987 1.773s1.566 2.608 1.478 4.086v0l-0.001 6.237c0.089 1.522-0.444 3.015-1.477 4.131s-2.473 1.756-3.996 1.773v0h-9.061c-3.17 0-5.456-2.562-5.456-5.859v0-6.282c0-3.297 2.287-5.859 5.456-5.859v0zM16.508 4.528h-9.052c-2.293 0-3.939 1.843-3.939 4.331v0 6.282c0 2.487 1.645 4.331 3.939 4.331v0h9.052c1.099-0.012 2.145-0.478 2.894-1.287s1.137-1.893 1.071-3.043v0l0.001-6.327c0.065-1.105-0.323-2.189-1.072-2.998s-1.795-1.275-2.894-1.287v0zM18.024 8.638c0.238 0.3 0.216 0.724-0.036 0.997l-0.082 0.077-4.107 3.311c-0.997 0.783-2.376 0.822-3.416 0.114l-0.161-0.118-4.134-3.305c-0.328-0.262-0.383-0.743-0.123-1.074 0.237-0.301 0.653-0.374 0.973-0.187l0.093 0.064 4.129 3.301c0.463 0.363 1.098 0.391 1.581 0.089l0.117-0.083 4.099-3.305c0.327-0.264 0.805-0.21 1.066 0.119z"></path>
</symbol>
<symbol id="icon-Notification" viewBox="0 0 24 24">
<path d="M14.608 19.691c0.297 0.242 0.344 0.681 0.105 0.981-0.176 0.222-0.38 0.421-0.596 0.583-0.728 0.571-1.653 0.83-2.571 0.72s-1.758-0.579-2.331-1.306c-0.237-0.301-0.188-0.74 0.11-0.98s0.731-0.19 0.969 0.111c0.345 0.439 0.854 0.723 1.414 0.79s1.124-0.091 1.576-0.445c0.133-0.101 0.253-0.217 0.356-0.347 0.239-0.3 0.672-0.348 0.969-0.106zM5.152 9l0.012-0.596c0.009-0.255 0.022-0.491 0.042-0.723 0.3-3.236 3.389-5.681 6.758-5.681v0h0.071c3.367 0 6.457 2.443 6.767 5.685 0.018 0.206 0.025 0.389 0.028 0.647v0l0.001 0.788c0.001 0.072 0.002 0.135 0.004 0.194v0l0.009 0.196 0.045 0.187c0.141 0.521 0.388 1.008 0.727 1.431v0l0.151 0.177 0.062 0.079c0.406 0.607 0.638 1.313 0.671 2.074v0l-0.001 0.403c-0.028 0.901-0.359 1.771-0.965 2.496-0.803 0.852-1.89 1.381-3.047 1.488-2.985 0.324-5.997 0.324-8.974 0.001-1.164-0.112-2.249-0.64-3.086-1.524-0.618-0.753-0.946-1.702-0.926-2.66v0l0.001-0.238c0.036-0.729 0.266-1.434 0.668-2.044v0l0.067-0.086c0.469-0.514 0.789-1.143 0.928-1.821l-0.015 0.061 0.002-0.534zM12.036 3.395h-0.071c-2.698 0-5.157 1.946-5.385 4.411-0.012 0.135-0.021 0.275-0.028 0.422v0l-0.016 0.466-0.007 0.919-0.014 0.142c-0.19 0.926-0.627 1.784-1.265 2.484l0.049-0.057-0.088 0.146c-0.165 0.297-0.272 0.62-0.314 0.939v0l-0.017 0.191-0 0.219c-0.013 0.637 0.202 1.258 0.575 1.716 0.575 0.605 1.353 0.984 2.198 1.065 2.888 0.314 5.801 0.314 8.7-0.001 0.836-0.077 1.613-0.455 2.157-1.031 0.412-0.494 0.629-1.117 0.613-1.773v0l0.001-0.163c-0.021-0.472-0.171-0.929-0.435-1.323l0.015 0.025-0.138-0.162c-0.475-0.587-0.821-1.267-1.013-1.997v0l-0.065-0.276-0.013-0.093c-0.010-0.135-0.015-0.256-0.018-0.4v0l-0.003-0.905c-0.002-0.23-0.008-0.385-0.022-0.547-0.236-2.473-2.697-4.418-5.395-4.418v0z"></path>
</symbol>
<symbol id="icon-Plus" viewBox="0 0 24 24">
<path d="M16.359 2c3.391 0 5.641 2.417 5.641 5.893v0 8.214c0 3.477-2.25 5.893-5.641 5.893v0h-8.718c-3.391 0-5.641-2.417-5.641-5.893v0-8.214c0-3.473 2.256-5.893 5.641-5.893v0zM16.359 3.395h-8.718c-2.592 0-4.246 1.774-4.246 4.498v0 8.214c0 2.727 1.648 4.498 4.246 4.498v0h8.718c2.597 0 4.246-1.771 4.246-4.498v0-8.214c0-2.727-1.648-4.498-4.246-4.498v0zM12 7.886c0.353 0 0.645 0.262 0.691 0.603l0.006 0.095-0.001 2.709 2.714 0c0.385 0 0.698 0.312 0.698 0.698 0 0.353-0.262 0.645-0.603 0.691l-0.095 0.006-2.714-0.001 0.001 2.711c0 0.385-0.312 0.698-0.698 0.698-0.353 0-0.645-0.262-0.691-0.603l-0.006-0.095-0-2.711-2.713 0.001c-0.385 0-0.698-0.312-0.698-0.698 0-0.353 0.262-0.645 0.603-0.691l0.095-0.006 2.713-0 0-2.709c0-0.385 0.312-0.698 0.698-0.698z"></path>
</symbol>
<symbol id="icon-Profile" viewBox="0 0 24 24">
<path d="M9.83 14.821c1.444-0.127 2.896-0.127 4.34 0v0l0.461 0.039c0.631 0.062 1.257 0.159 1.873 0.291 1.57 0.323 2.711 0.897 3.215 1.962 0.375 0.792 0.375 1.711-0 2.504-0.506 1.067-1.661 1.646-3.204 1.95v0l-0.467 0.097c-0.625 0.12-1.255 0.202-1.88 0.245-1.174 0.1-2.354 0.118-3.492 0.056-0.125 0-0.21-0-0.284-0.002v0l-0.144-0.005c-0.175-0.009-0.336-0.027-0.404-0.047-0.792-0.054-1.578-0.168-2.332-0.339v0l-0.256-0.053c-1.428-0.317-2.486-0.89-2.976-1.902-0.185-0.393-0.281-0.822-0.281-1.253-0.002-0.434 0.095-0.863 0.287-1.263 0.51-1.024 1.707-1.64 3.204-1.948 0.775-0.166 1.562-0.277 2.339-0.331zM14.044 16.263c-1.36-0.12-2.728-0.12-4.101 0.001-0.723 0.050-1.442 0.152-2.157 0.305-1.107 0.228-1.953 0.663-2.205 1.169-0.093 0.193-0.14 0.405-0.14 0.623-0 0.219 0.048 0.436 0.139 0.628 0.259 0.535 1.057 0.935 2.228 1.165v0l0.353 0.075c0.59 0.117 1.198 0.198 1.874 0.249 0.085 0.017 0.177 0.028 0.287 0.033v0l0.394 0.007c1.11 0.060 2.223 0.043 3.343-0.052 0.722-0.049 1.438-0.154 2.162-0.315v0l0.225-0.048c1.028-0.233 1.738-0.614 1.972-1.108 0.189-0.399 0.189-0.861 0-1.26-0.25-0.528-1.042-0.926-2.208-1.167-0.71-0.151-1.429-0.253-2.152-0.304v0zM12.004 2c2.934 0 5.313 2.389 5.313 5.335s-2.379 5.335-5.313 5.335c-2.934 0-5.313-2.389-5.313-5.335s2.379-5.335 5.313-5.335zM12.004 3.448c-2.138 0-3.871 1.74-3.871 3.888s1.733 3.888 3.871 3.888c2.138 0 3.871-1.74 3.871-3.888s-1.733-3.888-3.871-3.888z"></path>
</symbol>
<symbol id="icon-Scan" viewBox="0 0 24 24">
<path d="M22.239 12.042c0.42 0 0.761 0.334 0.761 0.747 0 0.378-0.286 0.69-0.658 0.74l-0.103 0.007-1.044-0 0 2.755c0.003 1.25-0.502 2.45-1.403 3.334-0.841 0.825-1.963 1.311-3.144 1.37l-0.254 0.006h-0.776c-0.42 0-0.761-0.334-0.761-0.747 0-0.378 0.286-0.69 0.658-0.74l0.103-0.007h0.778c0.87 0.002 1.704-0.336 2.319-0.939 0.564-0.553 0.9-1.287 0.951-2.063l0.007-0.213-0.001-2.757h-15.308l0.001 2.758c-0.002 0.853 0.343 1.671 0.957 2.274 0.564 0.553 1.312 0.883 2.104 0.932l0.217 0.007h0.804c0.42 0 0.761 0.334 0.761 0.747 0 0.378-0.286 0.69-0.658 0.74l-0.103 0.007h-0.802c-1.275 0.003-2.498-0.492-3.399-1.376-0.841-0.825-1.337-1.925-1.397-3.083l-0.006-0.249v-2.757l-1.081 0c-0.42 0-0.761-0.334-0.761-0.747 0-0.378 0.286-0.69 0.658-0.74l0.103-0.007h20.477zM16.393 3c1.275-0.003 2.498 0.492 3.399 1.376 0.841 0.825 1.337 1.925 1.397 3.083l0.006 0.249v1.055c0 0.412-0.341 0.747-0.761 0.747-0.385 0-0.704-0.281-0.754-0.645l-0.007-0.101v-1.056c0.002-0.853-0.343-1.671-0.957-2.274-0.564-0.553-1.312-0.883-2.104-0.932l-0.217-0.007h-0.776c-0.42 0-0.761-0.334-0.761-0.747 0-0.378 0.286-0.69 0.658-0.74l0.103-0.007h0.774zM8.447 3c0.42 0 0.761 0.334 0.761 0.747 0 0.378-0.286 0.69-0.658 0.74l-0.103 0.007h-0.813c-0.868 0-1.701 0.339-2.314 0.942-0.562 0.553-0.898 1.285-0.948 2.061l-0.007 0.212v1.055c0 0.412-0.341 0.747-0.761 0.747-0.385 0-0.704-0.281-0.754-0.645l-0.007-0.101v-1.053c-0.003-1.248 0.501-2.446 1.399-3.33 0.839-0.825 1.958-1.312 3.138-1.374l0.254-0.007h0.813z"></path>
</symbol>
<symbol id="icon-Search" viewBox="0 0 24 24">
<path d="M11.612 2c5.308 0 9.612 4.208 9.612 9.399 0 2.45-0.958 4.681-2.529 6.354l3.088 3.011c0.289 0.282 0.29 0.741 0.001 1.024-0.262 0.257-0.674 0.281-0.964 0.071l-0.083-0.070-3.124-3.047c-1.645 1.287-3.731 2.057-6.001 2.057-5.308 0-9.612-4.208-9.612-9.399s4.303-9.399 9.612-9.399zM11.612 3.448c-4.491 0-8.131 3.56-8.131 7.952s3.64 7.952 8.131 7.952c4.491 0 8.131-3.56 8.131-7.952s-3.64-7.952-8.131-7.952z"></path>
</symbol>
<symbol id="icon-Setting" viewBox="0 0 24 24">
<path d="M12.616 2c0.709-0 1.388 0.281 1.882 0.779s0.762 1.171 0.74 1.799v0l0.008 0.148c0.017 0.145 0.066 0.286 0.144 0.415 0.153 0.255 0.403 0.44 0.695 0.515s0.603 0.032 0.896-0.137v0l0.164-0.083c1.23-0.567 2.705-0.116 3.387 1.044v0l0.613 1.042c0.016 0.027 0.030 0.056 0.043 0.085v0l0.057 0.112c0.548 1.147 0.158 2.511-0.884 3.204v0l-0.257 0.158c-0.135 0.092-0.247 0.212-0.331 0.356-0.152 0.256-0.194 0.561-0.116 0.848s0.269 0.531 0.559 0.695v0l0.167 0.105c0.504 0.346 0.869 0.855 1.028 1.439 0.179 0.659 0.083 1.36-0.272 1.957v0l-0.66 1.077-0.099 0.152c-0.775 1.092-2.28 1.426-3.428 0.776v0l-0.136-0.069c-0.142-0.062-0.295-0.096-0.435-0.1-0.303-0.001-0.595 0.116-0.809 0.326s-0.334 0.496-0.334 0.828v0l-0.008 0.172c-0.111 1.329-1.247 2.359-2.615 2.359v0h-1.235c-1.449 0-2.623-1.151-2.622-2.525v0l-0.008-0.148c-0.017-0.145-0.066-0.286-0.148-0.422-0.149-0.256-0.397-0.442-0.687-0.519s-0.6-0.035-0.9 0.134v0l-0.178 0.087c-0.563 0.248-1.198 0.294-1.793 0.128-0.671-0.187-1.239-0.628-1.57-1.214v0l-0.637-1.078-0.085-0.16c-0.58-1.2-0.125-2.643 1.029-3.297v0l0.105-0.065c0.308-0.209 0.493-0.554 0.493-0.923 0-0.401-0.218-0.772-0.6-0.989v0l-0.155-0.097c-1.114-0.759-1.455-2.234-0.765-3.407v0l0.649-1.045c0.722-1.228 2.322-1.652 3.553-0.96v0l0.133 0.070c0.136 0.061 0.283 0.093 0.425 0.095 0.626 0 1.137-0.493 1.146-1.124v0l0.009-0.194c0.051-0.601 0.317-1.165 0.752-1.593 0.491-0.483 1.158-0.755 1.853-0.755v0zM12.616 3.448h-1.235c-0.302 0-0.592 0.118-0.806 0.328-0.189 0.186-0.305 0.432-0.325 0.661v0l-0.013 0.305c-0.103 1.329-1.237 2.373-2.624 2.372-0.357-0.004-0.71-0.081-1.069-0.244v0l-0.192-0.099c-0.548-0.308-1.247-0.123-1.571 0.428v0l-0.649 1.045c-0.298 0.506-0.149 1.15 0.312 1.465v0l0.261 0.162c0.718 0.476 1.154 1.272 1.154 2.129 0 0.845-0.423 1.634-1.155 2.13v0l-0.156 0.096c-0.513 0.291-0.711 0.918-0.472 1.413v0l0.056 0.107 0.629 1.064c0.148 0.261 0.396 0.454 0.689 0.536 0.26 0.072 0.537 0.052 0.754-0.042v0l0.109-0.052c0.6-0.343 1.315-0.437 1.987-0.261s1.243 0.607 1.582 1.188c0.182 0.301 0.298 0.636 0.343 1.022v0l0.020 0.354c0.062 0.562 0.548 1 1.139 1v0h1.235c0.597 0 1.093-0.45 1.14-1.001v0l0.006-0.109c-0.003-0.684 0.272-1.34 0.766-1.824s1.164-0.753 1.877-0.75c0.35 0.009 0.695 0.086 1.047 0.241v0l0.316 0.158c0.496 0.213 1.084 0.058 1.382-0.361v0l0.072-0.111 0.644-1.052c0.152-0.256 0.194-0.561 0.116-0.848-0.069-0.254-0.228-0.475-0.42-0.608v0l-0.272-0.169c-0.521-0.345-0.899-0.863-1.062-1.462-0.179-0.659-0.083-1.36 0.264-1.945 0.19-0.325 0.452-0.605 0.793-0.837v0l0.161-0.099c0.512-0.293 0.71-0.921 0.473-1.417v0l-0.071-0.134-0.013-0.028-0.585-0.995c-0.277-0.47-0.852-0.674-1.341-0.513v0l-0.111 0.044-0.103 0.051c-0.598 0.345-1.312 0.443-1.984 0.272s-1.247-0.597-1.596-1.18c-0.182-0.301-0.298-0.636-0.343-1.022v0l-0.013-0.252c0.009-0.303-0.108-0.597-0.324-0.815s-0.512-0.34-0.822-0.34v0zM12.003 8.732c1.842 0 3.336 1.463 3.336 3.268s-1.493 3.268-3.336 3.268c-1.842 0-3.336-1.463-3.336-3.268s1.493-3.268 3.336-3.268zM12.003 10.18c-1.026 0-1.858 0.815-1.858 1.82s0.832 1.82 1.858 1.82c1.026 0 1.858-0.815 1.858-1.82s-0.832-1.82-1.858-1.82z"></path>
</symbol>
<symbol id="icon-Star" viewBox="0 0 24 24">
<path d="M11.509 2.58c0.391-0.13 0.801-0.1 1.161 0.080 0.29 0.14 0.53 0.38 0.679 0.68v0l2.261 4.54c0.010 0.010 0.020 0.020 0.029 0.020v0l5.061 0.73c0.39 0.050 0.75 0.26 1 0.58 0.239 0.32 0.34 0.72 0.28 1.12-0.051 0.33-0.211 0.63-0.44 0.85v0l-3.67 3.55c-0.010 0.010-0.010 0.010 0 0.020v0l0.88 5.010c0.13 0.81-0.43 1.57-1.25 1.71-0.321 0.049-0.651 0-0.95-0.16v0l-4.52-2.36c-0.011 0-0.021 0-0.040 0.010v0l-4.551 2.38c-0.729 0.37-1.629 0.090-2.019-0.64-0.161-0.29-0.21-0.62-0.161-0.95v0l0.891-4.99c0-0.020-0.011-0.030-0.011-0.030v0l-3.7-3.56c-0.59-0.58-0.59-1.53 0.021-2.14 0.229-0.21 0.509-0.341 0.83-0.4v0l5.050-0.73c0.020 0 0.040-0.010 0.040-0.030v0l2.259-4.53c0.181-0.36 0.491-0.63 0.87-0.76zM12 3.96h-0.020c-0.011 0.010-0.020 0.010-0.030 0.030v0l-2.261 4.529c-0.209 0.441-0.629 0.741-1.129 0.83v0l-5.030 0.721-0.061 0.020c-0.009 0.009-0.009 0.030-0.009 0.040v0l3.7 3.55c0.349 0.339 0.51 0.839 0.43 1.33v0l-0.88 4.98v0.020c0.009 0.030 0.040 0.040 0.059 0.030v0l4.531-2.37c0.45-0.24 0.98-0.24 1.419-0.010v0l4.5 2.35c0.021 0.009 0.040 0.020 0.050 0.009v0h0.021l0.020-0.019-0.881-4.981c-0.099-0.5 0.071-1 0.431-1.339v0l3.67-3.56 0.010-0.021-0.010-0.009c-0.011 0-0.021-0.010-0.040-0.010v0l-5.061-0.731c-0.49-0.080-0.92-0.389-1.129-0.83v0l-2.26-4.519c0-0.020-0.010-0.030-0.031-0.030v0l-0.009-0.010z"></path>
</symbol>
<symbol id="icon-Wallet" viewBox="0 0 24 24">
<path d="M16.188 2.5c3.21 0 5.812 2.661 5.812 5.944v0 7.113c0 3.283-2.602 5.944-5.812 5.944v0h-8.376c-3.21 0-5.812-2.661-5.812-5.944v0-7.113c0-3.283 2.602-5.944 5.812-5.944v0zM16.188 3.987h-8.376c-2.407 0-4.358 1.996-4.358 4.457v0 7.113c0 2.462 1.951 4.457 4.358 4.457v0h8.376c2.407 0 4.358-1.996 4.358-4.457v0l-0-0.277-3.196 0.001c-1.842-0.001-3.334-1.527-3.335-3.41 0-1.82 1.395-3.307 3.153-3.405l0.183-0.005 3.196-0 0-0.015c0-2.389-1.838-4.339-4.147-4.452l-0.211-0.005zM20.546 9.945l-3.195 0.001c-1.040 0.001-1.883 0.862-1.883 1.923 0.001 1.012 0.765 1.841 1.735 1.918l0.147 0.006 3.196-0v-3.848zM17.794 11.065c0.401 0 0.727 0.333 0.727 0.743 0 0.376-0.273 0.687-0.628 0.736l-0.099 0.007h-0.302c-0.401 0-0.727-0.333-0.727-0.743 0-0.376 0.273-0.687 0.628-0.736l0.099-0.007h0.302zM12.354 6.997c0.401 0 0.727 0.333 0.727 0.743 0 0.376-0.273 0.687-0.628 0.736l-0.099 0.007h-5.232c-0.401 0-0.727-0.333-0.727-0.743 0-0.376 0.273-0.687 0.628-0.736l0.099-0.007h5.232z"></path>
</symbol>
<symbol id="icon-alert-circle" viewBox="0 0 24 24">
<path d="M23 12c0-3.037-1.232-5.789-3.222-7.778s-4.741-3.222-7.778-3.222-5.789 1.232-7.778 3.222-3.222 4.741-3.222 7.778 1.232 5.789 3.222 7.778 4.741 3.222 7.778 3.222 5.789-1.232 7.778-3.222 3.222-4.741 3.222-7.778zM21 12c0 2.486-1.006 4.734-2.636 6.364s-3.878 2.636-6.364 2.636-4.734-1.006-6.364-2.636-2.636-3.878-2.636-6.364 1.006-4.734 2.636-6.364 3.878-2.636 6.364-2.636 4.734 1.006 6.364 2.636 2.636 3.878 2.636 6.364zM11 8v4c0 0.552 0.448 1 1 1s1-0.448 1-1v-4c0-0.552-0.448-1-1-1s-1 0.448-1 1zM12 17c0.552 0 1-0.448 1-1s-0.448-1-1-1-1 0.448-1 1 0.448 1 1 1z"></path>
</symbol>
<symbol id="icon-alert-triangle" viewBox="0 0 24 24">
<path d="M11.148 4.374c0.073-0.123 0.185-0.242 0.334-0.332 0.236-0.143 0.506-0.178 0.756-0.116s0.474 0.216 0.614 0.448l8.466 14.133c0.070 0.12 0.119 0.268 0.128 0.434-0.015 0.368-0.119 0.591-0.283 0.759-0.18 0.184-0.427 0.298-0.693 0.301l-16.937-0.001c-0.152-0.001-0.321-0.041-0.481-0.134-0.239-0.138-0.399-0.359-0.466-0.607s-0.038-0.519 0.092-0.745zM9.432 3.346l-8.47 14.14c-0.422 0.731-0.506 1.55-0.308 2.29s0.68 1.408 1.398 1.822c0.464 0.268 0.976 0.4 1.475 0.402h16.943c0.839-0.009 1.587-0.354 2.123-0.902s0.864-1.303 0.855-2.131c-0.006-0.536-0.153-1.044-0.406-1.474l-8.474-14.147c-0.432-0.713-1.11-1.181-1.854-1.363s-1.561-0.081-2.269 0.349c-0.429 0.26-0.775 0.615-1.012 1.014zM11 9v4c0 0.552 0.448 1 1 1s1-0.448 1-1v-4c0-0.552-0.448-1-1-1s-1 0.448-1 1zM12 18c0.552 0 1-0.448 1-1s-0.448-1-1-1-1 0.448-1 1 0.448 1 1 1z"></path>
</symbol>
<symbol id="icon-align-center" viewBox="0 0 24 24">
<path d="M18 9h-12c-0.552 0-1 0.448-1 1s0.448 1 1 1h12c0.552 0 1-0.448 1-1s-0.448-1-1-1zM21 5h-18c-0.552 0-1 0.448-1 1s0.448 1 1 1h18c0.552 0 1-0.448 1-1s-0.448-1-1-1zM21 13h-18c-0.552 0-1 0.448-1 1s0.448 1 1 1h18c0.552 0 1-0.448 1-1s-0.448-1-1-1zM18 17h-12c-0.552 0-1 0.448-1 1s0.448 1 1 1h12c0.552 0 1-0.448 1-1s-0.448-1-1-1z"></path>
</symbol>
<symbol id="icon-align-justify" viewBox="0 0 24 24">
<path d="M21 9h-18c-0.552 0-1 0.448-1 1s0.448 1 1 1h18c0.552 0 1-0.448 1-1s-0.448-1-1-1zM21 5h-18c-0.552 0-1 0.448-1 1s0.448 1 1 1h18c0.552 0 1-0.448 1-1s-0.448-1-1-1zM21 13h-18c-0.552 0-1 0.448-1 1s0.448 1 1 1h18c0.552 0 1-0.448 1-1s-0.448-1-1-1zM21 17h-18c-0.552 0-1 0.448-1 1s0.448 1 1 1h18c0.552 0 1-0.448 1-1s-0.448-1-1-1z"></path>
</symbol>
<symbol id="icon-align-left" viewBox="0 0 24 24">
<path d="M17 9h-14c-0.552 0-1 0.448-1 1s0.448 1 1 1h14c0.552 0 1-0.448 1-1s-0.448-1-1-1zM21 5h-18c-0.552 0-1 0.448-1 1s0.448 1 1 1h18c0.552 0 1-0.448 1-1s-0.448-1-1-1zM21 13h-18c-0.552 0-1 0.448-1 1s0.448 1 1 1h18c0.552 0 1-0.448 1-1s-0.448-1-1-1zM17 17h-14c-0.552 0-1 0.448-1 1s0.448 1 1 1h14c0.552 0 1-0.448 1-1s-0.448-1-1-1z"></path>
</symbol>
<symbol id="icon-align-right" viewBox="0 0 24 24">
<path d="M21 9h-14c-0.552 0-1 0.448-1 1s0.448 1 1 1h14c0.552 0 1-0.448 1-1s-0.448-1-1-1zM21 5h-18c-0.552 0-1 0.448-1 1s0.448 1 1 1h18c0.552 0 1-0.448 1-1s-0.448-1-1-1zM21 13h-18c-0.552 0-1 0.448-1 1s0.448 1 1 1h18c0.552 0 1-0.448 1-1s-0.448-1-1-1zM21 17h-14c-0.552 0-1 0.448-1 1s0.448 1 1 1h14c0.552 0 1-0.448 1-1s-0.448-1-1-1z"></path>
</symbol>
<symbol id="icon-arrow-left-circle" viewBox="0 0 24 24">
<path d="M23 12c0-3.037-1.232-5.789-3.222-7.778s-4.741-3.222-7.778-3.222-5.789 1.232-7.778 3.222-3.222 4.741-3.222 7.778 1.232 5.789 3.222 7.778 4.741 3.222 7.778 3.222 5.789-1.232 7.778-3.222 3.222-4.741 3.222-7.778zM21 12c0 2.486-1.006 4.734-2.636 6.364s-3.878 2.636-6.364 2.636-4.734-1.006-6.364-2.636-2.636-3.878-2.636-6.364 1.006-4.734 2.636-6.364 3.878-2.636 6.364-2.636 4.734 1.006 6.364 2.636 2.636 3.878 2.636 6.364zM16 11h-5.586l2.293-2.293c0.391-0.391 0.391-1.024 0-1.414s-1.024-0.391-1.414 0l-4 4c-0.096 0.096-0.168 0.206-0.217 0.324-0.051 0.122-0.076 0.253-0.076 0.383 0 0.256 0.098 0.512 0.293 0.707l4 4c0.391 0.391 1.024 0.391 1.414 0s0.391-1.024 0-1.414l-2.293-2.293h5.586c0.552 0 1-0.448 1-1s-0.448-1-1-1z"></path>
</symbol>
<symbol id="icon-arrow-right-circle" viewBox="0 0 24 24">
<path d="M23 12c0-3.037-1.232-5.789-3.222-7.778s-4.741-3.222-7.778-3.222-5.789 1.232-7.778 3.222-3.222 4.741-3.222 7.778 1.232 5.789 3.222 7.778 4.741 3.222 7.778 3.222 5.789-1.232 7.778-3.222 3.222-4.741 3.222-7.778zM21 12c0 2.486-1.006 4.734-2.636 6.364s-3.878 2.636-6.364 2.636-4.734-1.006-6.364-2.636-2.636-3.878-2.636-6.364 1.006-4.734 2.636-6.364 3.878-2.636 6.364-2.636 4.734 1.006 6.364 2.636 2.636 3.878 2.636 6.364zM8 13h5.586l-2.293 2.293c-0.391 0.391-0.391 1.024 0 1.414s1.024 0.391 1.414 0l4-4c0.092-0.092 0.166-0.202 0.217-0.324 0.101-0.245 0.101-0.521 0-0.766-0.049-0.118-0.121-0.228-0.217-0.324l-4-4c-0.391-0.391-1.024-0.391-1.414 0s-0.391 1.024 0 1.414l2.293 2.293h-5.586c-0.552 0-1 0.448-1 1s0.448 1 1 1z"></path>
</symbol>
<symbol id="icon-arrow-up-circle" viewBox="0 0 24 24">
<path d="M23 12c0-3.037-1.232-5.789-3.222-7.778s-4.741-3.222-7.778-3.222-5.789 1.232-7.778 3.222-3.222 4.741-3.222 7.778 1.232 5.789 3.222 7.778 4.741 3.222 7.778 3.222 5.789-1.232 7.778-3.222 3.222-4.741 3.222-7.778zM21 12c0 2.486-1.006 4.734-2.636 6.364s-3.878 2.636-6.364 2.636-4.734-1.006-6.364-2.636-2.636-3.878-2.636-6.364 1.006-4.734 2.636-6.364 3.878-2.636 6.364-2.636 4.734 1.006 6.364 2.636 2.636 3.878 2.636 6.364zM13 16v-5.586l2.293 2.293c0.391 0.391 1.024 0.391 1.414 0s0.391-1.024 0-1.414l-4-4c-0.096-0.096-0.206-0.168-0.324-0.217-0.122-0.051-0.253-0.076-0.383-0.076-0.256 0-0.512 0.098-0.707 0.293l-4 4c-0.391 0.391-0.391 1.024 0 1.414s1.024 0.391 1.414 0l2.293-2.293v5.586c0 0.552 0.448 1 1 1s1-0.448 1-1z"></path>
</symbol>
<symbol id="icon-bar-chart" viewBox="0 0 24 24">
<path d="M13 20v-10c0-0.552-0.448-1-1-1s-1 0.448-1 1v10c0 0.552 0.448 1 1 1s1-0.448 1-1zM19 20v-16c0-0.552-0.448-1-1-1s-1 0.448-1 1v16c0 0.552 0.448 1 1 1s1-0.448 1-1zM7 20v-4c0-0.552-0.448-1-1-1s-1 0.448-1 1v4c0 0.552 0.448 1 1 1s1-0.448 1-1z"></path>
</symbol>
<symbol id="icon-bar-chart-2" viewBox="0 0 24 24">
<path d="M19 20v-10c0-0.552-0.448-1-1-1s-1 0.448-1 1v10c0 0.552 0.448 1 1 1s1-0.448 1-1zM13 20v-16c0-0.552-0.448-1-1-1s-1 0.448-1 1v16c0 0.552 0.448 1 1 1s1-0.448 1-1zM7 20v-6c0-0.552-0.448-1-1-1s-1 0.448-1 1v6c0 0.552 0.448 1 1 1s1-0.448 1-1z"></path>
</symbol>
<symbol id="icon-bookmark" viewBox="0 0 24 24">
<path d="M18.419 21.814c0.161 0.116 0.363 0.186 0.581 0.186 0.552 0 1-0.448 1-1v-16c0-0.828-0.337-1.58-0.879-2.121s-1.293-0.879-2.121-0.879h-10c-0.828 0-1.58 0.337-2.121 0.879s-0.879 1.293-0.879 2.121v16c-0.001 0.199 0.060 0.404 0.186 0.581 0.321 0.449 0.946 0.554 1.395 0.232l6.419-4.584zM18 19.057l-5.419-3.871c-0.355-0.254-0.819-0.242-1.162 0l-5.419 3.871v-14.057c0-0.276 0.111-0.525 0.293-0.707s0.431-0.293 0.707-0.293h10c0.276 0 0.525 0.111 0.707 0.293s0.293 0.431 0.293 0.707z"></path>
</symbol>
<symbol id="icon-check" viewBox="0 0 24 24">
<path d="M19.293 5.293l-10.293 10.293-4.293-4.293c-0.391-0.391-1.024-0.391-1.414 0s-0.391 1.024 0 1.414l5 5c0.391 0.391 1.024 0.391 1.414 0l11-11c0.391-0.391 0.391-1.024 0-1.414s-1.024-0.391-1.414 0z"></path>
</symbol>
<symbol id="icon-add" viewBox="0 0 24 24">
<path d="M20,11h-7V4c0-0.552-0.448-1-1-1s-1,0.448-1,1v7H4c-0.552,0-1,0.448-1,1s0.448,1,1,1h7v7c0,0.552,0.448,1,1,1s1-0.448,1-1 v-7h7c0.552,0,1-0.448,1-1S20.552,11,20,11z" />
</symbol>
<symbol id="icon-tick" viewBox="0 0 24 24">
<path d="M504.502,75.496c-9.997-9.998-26.205-9.998-36.204,0L161.594,382.203L43.702,264.311c-9.997-9.998-26.205-9.997-36.204,0 c-9.998,9.997-9.998,26.205,0,36.203l135.994,135.992c9.994,9.997,26.214,9.99,36.204,0L504.502,111.7 C514.5,101.703,514.499,85.494,504.502,75.496z"></path>
</symbol>
<symbol id="icon-check-circle" viewBox="0 0 24 24">
<path d="M21 11.080v0.92c-0.001 2.485-1.009 4.733-2.64 6.362s-3.88 2.634-6.365 2.632-4.734-1.009-6.362-2.64-2.634-3.879-2.633-6.365 1.009-4.733 2.64-6.362 3.88-2.634 6.365-2.633c1.33 0.001 2.586 0.289 3.649 0.775 0.502 0.23 1.096 0.008 1.325-0.494s0.008-1.096-0.494-1.325c-1.327-0.606-2.866-0.955-4.479-0.956-3.037-0.002-5.789 1.229-7.78 3.217s-3.224 4.74-3.226 7.777 1.229 5.789 3.217 7.78 4.739 3.225 7.776 3.226 5.789-1.229 7.78-3.217 3.225-4.739 3.227-7.777v-0.92c0-0.552-0.448-1-1-1s-1 0.448-1 1zM21.293 3.293l-9.293 9.302-2.293-2.292c-0.391-0.391-1.024-0.391-1.414 0s-0.391 1.024 0 1.414l3 3c0.391 0.391 1.024 0.39 1.415 0l10-10.010c0.39-0.391 0.39-1.024-0.001-1.414s-1.024-0.39-1.414 0.001z"></path>
</symbol>
<symbol id="icon-chevron-down" viewBox="0 0 24 24">
<path d="M5.293 9.707l6 6c0.391 0.391 1.024 0.391 1.414 0l6-6c0.391-0.391 0.391-1.024 0-1.414s-1.024-0.391-1.414 0l-5.293 5.293-5.293-5.293c-0.391-0.391-1.024-0.391-1.414 0s-0.391 1.024 0 1.414z"></path>
</symbol>
<symbol id="icon-chevron-left" viewBox="0 0 24 24">
<path d="M15.707 17.293l-5.293-5.293 5.293-5.293c0.391-0.391 0.391-1.024 0-1.414s-1.024-0.391-1.414 0l-6 6c-0.391 0.391-0.391 1.024 0 1.414l6 6c0.391 0.391 1.024 0.391 1.414 0s0.391-1.024 0-1.414z"></path>
</symbol>
<symbol id="icon-chevron-right" viewBox="0 0 24 24">
<path d="M9.707 18.707l6-6c0.391-0.391 0.391-1.024 0-1.414l-6-6c-0.391-0.391-1.024-0.391-1.414 0s-0.391 1.024 0 1.414l5.293 5.293-5.293 5.293c-0.391 0.391-0.391 1.024 0 1.414s1.024 0.391 1.414 0z"></path>
</symbol>
<symbol id="icon-chevron-up" viewBox="0 0 24 24">
<path d="M18.707 14.293l-6-6c-0.391-0.391-1.024-0.391-1.414 0l-6 6c-0.391 0.391-0.391 1.024 0 1.414s1.024 0.391 1.414 0l5.293-5.293 5.293 5.293c0.391 0.391 1.024 0.391 1.414 0s0.391-1.024 0-1.414z"></path>
</symbol>
<symbol id="icon-chevrons-down" viewBox="0 0 24 24">
<path d="M6.293 13.707l5 5c0.391 0.391 1.024 0.391 1.414 0l5-5c0.391-0.391 0.391-1.024 0-1.414s-1.024-0.391-1.414 0l-4.293 4.293-4.293-4.293c-0.391-0.391-1.024-0.391-1.414 0s-0.391 1.024 0 1.414zM6.293 6.707l5 5c0.391 0.391 1.024 0.391 1.414 0l5-5c0.391-0.391 0.391-1.024 0-1.414s-1.024-0.391-1.414 0l-4.293 4.293-4.293-4.293c-0.391-0.391-1.024-0.391-1.414 0s-0.391 1.024 0 1.414z"></path>
</symbol>
<symbol id="icon-chevrons-left" viewBox="0 0 24 24">
<path d="M11.707 16.293l-4.293-4.293 4.293-4.293c0.391-0.391 0.391-1.024 0-1.414s-1.024-0.391-1.414 0l-5 5c-0.391 0.391-0.391 1.024 0 1.414l5 5c0.391 0.391 1.024 0.391 1.414 0s0.391-1.024 0-1.414zM18.707 16.293l-4.293-4.293 4.293-4.293c0.391-0.391 0.391-1.024 0-1.414s-1.024-0.391-1.414 0l-5 5c-0.391 0.391-0.391 1.024 0 1.414l5 5c0.391 0.391 1.024 0.391 1.414 0s0.391-1.024 0-1.414z"></path>
</symbol>
<symbol id="icon-chevrons-right" viewBox="0 0 24 24">
<path d="M13.707 17.707l5-5c0.391-0.391 0.391-1.024 0-1.414l-5-5c-0.391-0.391-1.024-0.391-1.414 0s-0.391 1.024 0 1.414l4.293 4.293-4.293 4.293c-0.391 0.391-0.391 1.024 0 1.414s1.024 0.391 1.414 0zM6.707 17.707l5-5c0.391-0.391 0.391-1.024 0-1.414l-5-5c-0.391-0.391-1.024-0.391-1.414 0s-0.391 1.024 0 1.414l4.293 4.293-4.293 4.293c-0.391 0.391-0.391 1.024 0 1.414s1.024 0.391 1.414 0z"></path>
</symbol>
<symbol id="icon-chevrons-up" viewBox="0 0 24 24">
<path d="M17.707 10.293l-5-5c-0.391-0.391-1.024-0.391-1.414 0l-5 5c-0.391 0.391-0.391 1.024 0 1.414s1.024 0.391 1.414 0l4.293-4.293 4.293 4.293c0.391 0.391 1.024 0.391 1.414 0s0.391-1.024 0-1.414zM17.707 17.293l-5-5c-0.391-0.391-1.024-0.391-1.414 0l-5 5c-0.391 0.391-0.391 1.024 0 1.414s1.024 0.391 1.414 0l4.293-4.293 4.293 4.293c0.391 0.391 1.024 0.391 1.414 0s0.391-1.024 0-1.414z"></path>
</symbol>
<symbol id="icon-clipboard" viewBox="0 0 24 24">
<path d="M7 5c0 0.552 0.225 1.053 0.586 1.414s0.862 0.586 1.414 0.586h6c0.552 0 1.053-0.225 1.414-0.586s0.586-0.862 0.586-1.414h1c0.276 0 0.525 0.111 0.707 0.293s0.293 0.431 0.293 0.707v14c0 0.276-0.111 0.525-0.293 0.707s-0.431 0.293-0.707 0.293h-12c-0.276 0-0.525-0.111-0.707-0.293s-0.293-0.431-0.293-0.707v-14c0-0.276 0.111-0.525 0.293-0.707s0.431-0.293 0.707-0.293zM9 1c-0.552 0-1.053 0.225-1.414 0.586s-0.586 0.862-0.586 1.414h-1c-0.828 0-1.58 0.337-2.121 0.879s-0.879 1.293-0.879 2.121v14c0 0.828 0.337 1.58 0.879 2.121s1.293 0.879 2.121 0.879h12c0.828 0 1.58-0.337 2.121-0.879s0.879-1.293 0.879-2.121v-14c0-0.828-0.337-1.58-0.879-2.121s-1.293-0.879-2.121-0.879h-1c0-0.552-0.225-1.053-0.586-1.414s-0.862-0.586-1.414-0.586zM9 3h6v2h-6z"></path>
</symbol>
<symbol id="icon-clock" viewBox="0 0 24 24">
<path d="M23 12c0-3.037-1.232-5.789-3.222-7.778s-4.741-3.222-7.778-3.222-5.789 1.232-7.778 3.222-3.222 4.741-3.222 7.778 1.232 5.789 3.222 7.778 4.741 3.222 7.778 3.222 5.789-1.232 7.778-3.222 3.222-4.741 3.222-7.778zM21 12c0 2.486-1.006 4.734-2.636 6.364s-3.878 2.636-6.364 2.636-4.734-1.006-6.364-2.636-2.636-3.878-2.636-6.364 1.006-4.734 2.636-6.364 3.878-2.636 6.364-2.636 4.734 1.006 6.364 2.636 2.636 3.878 2.636 6.364zM11 6v6c0 0.389 0.222 0.727 0.553 0.894l4 2c0.494 0.247 1.095 0.047 1.342-0.447s0.047-1.095-0.447-1.342l-3.448-1.723v-5.382c0-0.552-0.448-1-1-1s-1 0.448-1 1z"></path>
</symbol>
<symbol id="icon-cloud" viewBox="0 0 24 24">
<path d="M18 11c1.105 0 2.103 0.447 2.828 1.172s1.172 1.723 1.172 2.828-0.447 2.103-1.172 2.828-1.723 1.172-2.828 1.172h-8.995c-1.463-0.008-2.853-0.461-4.005-1.258-1.334-0.922-2.348-2.304-2.784-3.992-0.483-1.872-0.163-3.761 0.748-5.305s2.408-2.739 4.28-3.223 3.761-0.163 5.305 0.748 2.739 2.408 3.223 4.28c0.115 0.435 0.505 0.75 0.968 0.75zM18 9h-0.52c-0.725-2.057-2.143-3.708-3.915-4.753-1.983-1.169-4.415-1.583-6.821-0.961s-4.334 2.16-5.503 4.143-1.582 4.415-0.961 6.821c0.56 2.169 1.867 3.951 3.583 5.137 1.478 1.023 3.261 1.603 5.132 1.613h9.005c1.657 0 3.158-0.673 4.243-1.757s1.757-2.586 1.757-4.243-0.673-3.158-1.757-4.243-2.586-1.757-4.243-1.757z"></path>
</symbol>
<symbol id="icon-copy" viewBox="0 0 24 24">
<path d="M11 8c-0.828 0-1.58 0.337-2.121 0.879s-0.879 1.293-0.879 2.121v9c0 0.828 0.337 1.58 0.879 2.121s1.293 0.879 2.121 0.879h9c0.828 0 1.58-0.337 2.121-0.879s0.879-1.293 0.879-2.121v-9c0-0.828-0.337-1.58-0.879-2.121s-1.293-0.879-2.121-0.879zM11 10h9c0.276 0 0.525 0.111 0.707 0.293s0.293 0.431 0.293 0.707v9c0 0.276-0.111 0.525-0.293 0.707s-0.431 0.293-0.707 0.293h-9c-0.276 0-0.525-0.111-0.707-0.293s-0.293-0.431-0.293-0.707v-9c0-0.276 0.111-0.525 0.293-0.707s0.431-0.293 0.707-0.293zM5 14h-1c-0.276 0-0.525-0.111-0.707-0.293s-0.293-0.431-0.293-0.707v-9c0-0.276 0.111-0.525 0.293-0.707s0.431-0.293 0.707-0.293h9c0.276 0 0.525 0.111 0.707 0.293s0.293 0.431 0.293 0.707v1c0 0.552 0.448 1 1 1s1-0.448 1-1v-1c0-0.828-0.337-1.58-0.879-2.121s-1.293-0.879-2.121-0.879h-9c-0.828 0-1.58 0.337-2.121 0.879s-0.879 1.293-0.879 2.121v9c0 0.828 0.337 1.58 0.879 2.121s1.293 0.879 2.121 0.879h1c0.552 0 1-0.448 1-1s-0.448-1-1-1z"></path>
</symbol>
<symbol id="icon-cpu" viewBox="0 0 24 24">
<path d="M6 5h12c0.276 0 0.525 0.111 0.707 0.293s0.293 0.431 0.293 0.707v12c0 0.276-0.111 0.525-0.293 0.707s-0.431 0.293-0.707 0.293h-12c-0.276 0-0.525-0.111-0.707-0.293s-0.293-0.431-0.293-0.707v-12c0-0.276 0.111-0.525 0.293-0.707s0.431-0.293 0.707-0.293zM9 8c-0.552 0-1 0.448-1 1v6c0 0.552 0.448 1 1 1h6c0.552 0 1-0.448 1-1v-6c0-0.552-0.448-1-1-1zM10 10h4v4h-4zM1 15h2v3c0 0.828 0.337 1.58 0.879 2.121s1.293 0.879 2.121 0.879h2v2c0 0.552 0.448 1 1 1s1-0.448 1-1v-2h4v2c0 0.552 0.448 1 1 1s1-0.448 1-1v-2h2c0.828 0 1.58-0.337 2.121-0.879s0.879-1.293 0.879-2.121v-3h2c0.552 0 1-0.448 1-1s-0.448-1-1-1h-2v-3h2c0.552 0 1-0.448 1-1s-0.448-1-1-1h-2v-2c0-0.828-0.337-1.58-0.879-2.121s-1.293-0.879-2.121-0.879h-2v-2c0-0.552-0.448-1-1-1s-1 0.448-1 1v2h-4v-2c0-0.552-0.448-1-1-1s-1 0.448-1 1v2h-2c-0.828 0-1.58 0.337-2.121 0.879s-0.879 1.293-0.879 2.121v2h-2c-0.552 0-1 0.448-1 1s0.448 1 1 1h2v3h-2c-0.552 0-1 0.448-1 1s0.448 1 1 1z"></path>
</symbol>
<symbol id="icon-download" viewBox="0 0 24 24">
<path d="M20 15v4c0 0.276-0.111 0.525-0.293 0.707s-0.431 0.293-0.707 0.293h-14c-0.276 0-0.525-0.111-0.707-0.293s-0.293-0.431-0.293-0.707v-4c0-0.552-0.448-1-1-1s-1 0.448-1 1v4c0 0.828 0.337 1.58 0.879 2.121s1.293 0.879 2.121 0.879h14c0.828 0 1.58-0.337 2.121-0.879s0.879-1.293 0.879-2.121v-4c0-0.552-0.448-1-1-1s-1 0.448-1 1zM13 12.586v-9.586c0-0.552-0.448-1-1-1s-1 0.448-1 1v9.586l-3.293-3.293c-0.391-0.391-1.024-0.391-1.414 0s-0.391 1.024 0 1.414l5 5c0.092 0.092 0.202 0.166 0.324 0.217s0.253 0.076 0.383 0.076c0.256 0 0.512-0.098 0.707-0.293l5-5c0.391-0.391 0.391-1.024 0-1.414s-1.024-0.391-1.414 0z"></path>
</symbol>
<symbol id="icon-file" viewBox="0 0 24 24">
<path d="M17.586 8h-3.586v-3.586zM20.707 8.293l-7-7c-0.092-0.092-0.202-0.166-0.324-0.217s-0.253-0.076-0.383-0.076h-7c-0.828 0-1.58 0.337-2.121 0.879s-0.879 1.293-0.879 2.121v16c0 0.828 0.337 1.58 0.879 2.121s1.293 0.879 2.121 0.879h12c0.828 0 1.58-0.337 2.121-0.879s0.879-1.293 0.879-2.121v-11c0-0.276-0.112-0.526-0.293-0.707zM12 3v6c0 0.552 0.448 1 1 1h6v10c0 0.276-0.111 0.525-0.293 0.707s-0.431 0.293-0.707 0.293h-12c-0.276 0-0.525-0.111-0.707-0.293s-0.293-0.431-0.293-0.707v-16c0-0.276 0.111-0.525 0.293-0.707s0.431-0.293 0.707-0.293z"></path>
</symbol>
<symbol id="icon-file-minus" viewBox="0 0 24 24">
<path d="M17.586 7h-2.586v-2.586zM20.707 7.293l-6-6c-0.092-0.092-0.202-0.166-0.324-0.217s-0.253-0.076-0.383-0.076h-8c-0.828 0-1.58 0.337-2.121 0.879s-0.879 1.293-0.879 2.121v16c0 0.828 0.337 1.58 0.879 2.121s1.293 0.879 2.121 0.879h12c0.828 0 1.58-0.337 2.121-0.879s0.879-1.293 0.879-2.121v-12c0-0.276-0.112-0.526-0.293-0.707zM13 3v5c0 0.552 0.448 1 1 1h5v11c0 0.276-0.111 0.525-0.293 0.707s-0.431 0.293-0.707 0.293h-12c-0.276 0-0.525-0.111-0.707-0.293s-0.293-0.431-0.293-0.707v-16c0-0.276 0.111-0.525 0.293-0.707s0.431-0.293 0.707-0.293zM9 16h6c0.552 0 1-0.448 1-1s-0.448-1-1-1h-6c-0.552 0-1 0.448-1 1s0.448 1 1 1z"></path>
</symbol>
<symbol id="icon-file-plus" viewBox="0 0 24 24">
<path d="M17.586 7h-2.586v-2.586zM20.707 7.293l-6-6c-0.092-0.092-0.202-0.166-0.324-0.217s-0.253-0.076-0.383-0.076h-8c-0.828 0-1.58 0.337-2.121 0.879s-0.879 1.293-0.879 2.121v16c0 0.828 0.337 1.58 0.879 2.121s1.293 0.879 2.121 0.879h12c0.828 0 1.58-0.337 2.121-0.879s0.879-1.293 0.879-2.121v-12c0-0.276-0.112-0.526-0.293-0.707zM13 3v5c0 0.552 0.448 1 1 1h5v11c0 0.276-0.111 0.525-0.293 0.707s-0.431 0.293-0.707 0.293h-12c-0.276 0-0.525-0.111-0.707-0.293s-0.293-0.431-0.293-0.707v-16c0-0.276 0.111-0.525 0.293-0.707s0.431-0.293 0.707-0.293zM9 16h2v2c0 0.552 0.448 1 1 1s1-0.448 1-1v-2h2c0.552 0 1-0.448 1-1s-0.448-1-1-1h-2v-2c0-0.552-0.448-1-1-1s-1 0.448-1 1v2h-2c-0.552 0-1 0.448-1 1s0.448 1 1 1z"></path>
</symbol>
<symbol id="icon-file-text" viewBox="0 0 24 24">
<path d="M17.586 7h-2.586v-2.586zM20.707 7.293l-6-6c-0.092-0.092-0.202-0.166-0.324-0.217s-0.253-0.076-0.383-0.076h-8c-0.828 0-1.58 0.337-2.121 0.879s-0.879 1.293-0.879 2.121v16c0 0.828 0.337 1.58 0.879 2.121s1.293 0.879 2.121 0.879h12c0.828 0 1.58-0.337 2.121-0.879s0.879-1.293 0.879-2.121v-12c0-0.276-0.112-0.526-0.293-0.707zM13 3v5c0 0.552 0.448 1 1 1h5v11c0 0.276-0.111 0.525-0.293 0.707s-0.431 0.293-0.707 0.293h-12c-0.276 0-0.525-0.111-0.707-0.293s-0.293-0.431-0.293-0.707v-16c0-0.276 0.111-0.525 0.293-0.707s0.431-0.293 0.707-0.293zM16 12h-8c-0.552 0-1 0.448-1 1s0.448 1 1 1h8c0.552 0 1-0.448 1-1s-0.448-1-1-1zM16 16h-8c-0.552 0-1 0.448-1 1s0.448 1 1 1h8c0.552 0 1-0.448 1-1s-0.448-1-1-1zM10 8h-2c-0.552 0-1 0.448-1 1s0.448 1 1 1h2c0.552 0 1-0.448 1-1s-0.448-1-1-1z"></path>
</symbol>
<symbol id="icon-folder" viewBox="0 0 24 24">
<path d="M23 19v-11c0-0.828-0.337-1.58-0.879-2.121s-1.293-0.879-2.121-0.879h-8.465l-1.703-2.555c-0.182-0.27-0.486-0.445-0.832-0.445h-5c-0.828 0-1.58 0.337-2.121 0.879s-0.879 1.293-0.879 2.121v14c0 0.828 0.337 1.58 0.879 2.121s1.293 0.879 2.121 0.879h16c0.828 0 1.58-0.337 2.121-0.879s0.879-1.293 0.879-2.121zM21 19c0 0.276-0.111 0.525-0.293 0.707s-0.431 0.293-0.707 0.293h-16c-0.276 0-0.525-0.111-0.707-0.293s-0.293-0.431-0.293-0.707v-14c0-0.276 0.111-0.525 0.293-0.707s0.431-0.293 0.707-0.293h4.465l1.703 2.555c0.192 0.287 0.506 0.443 0.832 0.445h9c0.276 0 0.525 0.111 0.707 0.293s0.293 0.431 0.293 0.707z"></path>
</symbol>
<symbol id="icon-info" viewBox="0 0 24 24">
<path d="M23 12c0-3.037-1.232-5.789-3.222-7.778s-4.741-3.222-7.778-3.222-5.789 1.232-7.778 3.222-3.222 4.741-3.222 7.778 1.232 5.789 3.222 7.778 4.741 3.222 7.778 3.222 5.789-1.232 7.778-3.222 3.222-4.741 3.222-7.778zM21 12c0 2.486-1.006 4.734-2.636 6.364s-3.878 2.636-6.364 2.636-4.734-1.006-6.364-2.636-2.636-3.878-2.636-6.364 1.006-4.734 2.636-6.364 3.878-2.636 6.364-2.636 4.734 1.006 6.364 2.636 2.636 3.878 2.636 6.364zM13 16v-4c0-0.552-0.448-1-1-1s-1 0.448-1 1v4c0 0.552 0.448 1 1 1s1-0.448 1-1zM12 9c0.552 0 1-0.448 1-1s-0.448-1-1-1-1 0.448-1 1 0.448 1 1 1z"></path>
</symbol>
<symbol id="icon-log-in" viewBox="0 0 24 24">
<path d="M15 4h4c0.276 0 0.525 0.111 0.707 0.293s0.293 0.431 0.293 0.707v14c0 0.276-0.111 0.525-0.293 0.707s-0.431 0.293-0.707 0.293h-4c-0.552 0-1 0.448-1 1s0.448 1 1 1h4c0.828 0 1.58-0.337 2.121-0.879s0.879-1.293 0.879-2.121v-14c0-0.828-0.337-1.58-0.879-2.121s-1.293-0.879-2.121-0.879h-4c-0.552 0-1 0.448-1 1s0.448 1 1 1zM12.586 11h-9.586c-0.552 0-1 0.448-1 1s0.448 1 1 1h9.586l-3.293 3.293c-0.391 0.391-0.391 1.024 0 1.414s1.024 0.391 1.414 0l5-5c0.096-0.096 0.168-0.206 0.217-0.324s0.076-0.247 0.076-0.383c0-0.13-0.025-0.261-0.076-0.383-0.049-0.118-0.121-0.228-0.217-0.324l-5-5c-0.391-0.391-1.024-0.391-1.414 0s-0.391 1.024 0 1.414z"></path>
</symbol>
<symbol id="icon-log-out" viewBox="0 0 24 24">
<path d="M9 20h-4c-0.276 0-0.525-0.111-0.707-0.293s-0.293-0.431-0.293-0.707v-14c0-0.276 0.111-0.525 0.293-0.707s0.431-0.293 0.707-0.293h4c0.552 0 1-0.448 1-1s-0.448-1-1-1h-4c-0.828 0-1.58 0.337-2.121 0.879s-0.879 1.293-0.879 2.121v14c0 0.828 0.337 1.58 0.879 2.121s1.293 0.879 2.121 0.879h4c0.552 0 1-0.448 1-1s-0.448-1-1-1zM18.586 11h-9.586c-0.552 0-1 0.448-1 1s0.448 1 1 1h9.586l-3.293 3.293c-0.391 0.391-0.391 1.024 0 1.414s1.024 0.391 1.414 0l5-5c0.092-0.092 0.166-0.202 0.217-0.324 0.15-0.362 0.078-0.795-0.217-1.090l-5-5c-0.391-0.391-1.024-0.391-1.414 0s-0.391 1.024 0 1.414z"></path>
</symbol>
<symbol id="icon-maximize" viewBox="0 0 24 24">
<path d="M8 2h-3c-0.828 0-1.58 0.337-2.121 0.879s-0.879 1.293-0.879 2.121v3c0 0.552 0.448 1 1 1s1-0.448 1-1v-3c0-0.276 0.111-0.525 0.293-0.707s0.431-0.293 0.707-0.293h3c0.552 0 1-0.448 1-1s-0.448-1-1-1zM22 8v-3c0-0.828-0.337-1.58-0.879-2.121s-1.293-0.879-2.121-0.879h-3c-0.552 0-1 0.448-1 1s0.448 1 1 1h3c0.276 0 0.525 0.111 0.707 0.293s0.293 0.431 0.293 0.707v3c0 0.552 0.448 1 1 1s1-0.448 1-1zM16 22h3c0.828 0 1.58-0.337 2.121-0.879s0.879-1.293 0.879-2.121v-3c0-0.552-0.448-1-1-1s-1 0.448-1 1v3c0 0.276-0.111 0.525-0.293 0.707s-0.431 0.293-0.707 0.293h-3c-0.552 0-1 0.448-1 1s0.448 1 1 1zM2 16v3c0 0.828 0.337 1.58 0.879 2.121s1.293 0.879 2.121 0.879h3c0.552 0 1-0.448 1-1s-0.448-1-1-1h-3c-0.276 0-0.525-0.111-0.707-0.293s-0.293-0.431-0.293-0.707v-3c0-0.552-0.448-1-1-1s-1 0.448-1 1z"></path>
</symbol>
<symbol id="icon-maximize-2" viewBox="0 0 24 24">
<path d="M18.586 4l-5.293 5.293c-0.391 0.391-0.391 1.024 0 1.414s1.024 0.391 1.414 0l5.293-5.293v3.586c0 0.552 0.448 1 1 1s1-0.448 1-1v-6c0-0.136-0.027-0.265-0.076-0.383s-0.121-0.228-0.216-0.323c-0.001-0.001-0.001-0.001-0.002-0.002-0.092-0.092-0.202-0.166-0.323-0.216-0.118-0.049-0.247-0.076-0.383-0.076h-6c-0.552 0-1 0.448-1 1s0.448 1 1 1zM5.414 20l5.293-5.293c0.391-0.391 0.391-1.024 0-1.414s-1.024-0.391-1.414 0l-5.293 5.293v-3.586c0-0.552-0.448-1-1-1s-1 0.448-1 1v6c0 0.552 0.448 1 1 1h6c0.552 0 1-0.448 1-1s-0.448-1-1-1z"></path>
</symbol>
<symbol id="icon-music" viewBox="0 0 24 24">
<path d="M8 18c0 0.553-0.223 1.051-0.586 1.414s-0.861 0.586-1.414 0.586-1.051-0.223-1.414-0.586-0.586-0.861-0.586-1.414 0.223-1.051 0.586-1.414 0.861-0.586 1.414-0.586 1.051 0.223 1.414 0.586 0.586 0.861 0.586 1.414zM22 16v-13c0-0.050-0.004-0.107-0.014-0.164-0.091-0.545-0.606-0.913-1.151-0.822l-12 2c-0.476 0.081-0.835 0.492-0.835 0.986v9.535c-0.588-0.34-1.272-0.535-2-0.535-1.104 0-2.106 0.449-2.828 1.172s-1.172 1.724-1.172 2.828 0.449 2.106 1.172 2.828 1.724 1.172 2.828 1.172 2.106-0.449 2.828-1.172 1.172-1.724 1.172-2.828v-12.153l10-1.667v8.355c-0.588-0.34-1.272-0.535-2-0.535-1.104 0-2.106 0.449-2.828 1.172s-1.172 1.724-1.172 2.828 0.449 2.106 1.172 2.828 1.724 1.172 2.828 1.172 2.106-0.449 2.828-1.172 1.172-1.724 1.172-2.828zM20 16c0 0.553-0.223 1.051-0.586 1.414s-0.861 0.586-1.414 0.586-1.051-0.223-1.414-0.586-0.586-0.861-0.586-1.414 0.223-1.051 0.586-1.414 0.861-0.586 1.414-0.586 1.051 0.223 1.414 0.586 0.586 0.861 0.586 1.414z"></path>
</symbol>
<symbol id="icon-thumbs-down" viewBox="0 0 24 24">
<path d="M11 15c0-0.552-0.448-1-1-1h-5.679c-0.065-0.002-0.153-0.011-0.153-0.011-0.273-0.041-0.502-0.188-0.655-0.396s-0.225-0.47-0.184-0.742l1.38-8.998c0.037-0.239 0.156-0.448 0.325-0.6 0.179-0.161 0.415-0.256 0.686-0.253h10.28v9.788l-3.608 8.118c-0.307-0.098-0.582-0.268-0.806-0.492-0.363-0.363-0.586-0.861-0.586-1.414zM9 16v3c0 1.104 0.449 2.106 1.172 2.828s1.724 1.172 2.828 1.172c0.405 0 0.754-0.241 0.914-0.594l4-9c0.060-0.134 0.087-0.275 0.086-0.406v-11c0-0.552-0.448-1-1-1h-11.28c-0.767-0.009-1.482 0.281-2.021 0.763-0.505 0.452-0.857 1.076-0.967 1.783l-1.38 9.002c-0.125 0.82 0.096 1.614 0.55 2.231s1.147 1.063 1.965 1.187c0.165 0.025 0.333 0.037 0.492 0.034zM17 3h2.67c0.361-0.006 0.674 0.119 0.912 0.332 0.213 0.191 0.364 0.45 0.418 0.746v6.787c-0.037 0.34-0.208 0.63-0.455 0.833-0.235 0.194-0.537 0.306-0.861 0.301l-2.684 0.001c-0.552 0-1 0.448-1 1s0.448 1 1 1h2.656c0.81 0.012 1.569-0.27 2.16-0.756 0.622-0.511 1.059-1.251 1.176-2.11 0.005-0.040 0.008-0.087 0.008-0.134v-7c0-0.042-0.003-0.089-0.009-0.137-0.111-0.803-0.505-1.51-1.075-2.020-0.6-0.537-1.397-0.858-2.246-0.842h-2.67c-0.552 0-1 0.448-1 1s0.448 1 1 1z"></path>
</symbol>
<symbol id="icon-thumbs-up" viewBox="0 0 24 24">
<path d="M13 9c0 0.552 0.448 1 1 1h5.679c0.065 0.002 0.153 0.011 0.153 0.011 0.273 0.041 0.502 0.188 0.655 0.396s0.225 0.47 0.184 0.742l-1.38 8.998c-0.037 0.239-0.156 0.448-0.325 0.6-0.18 0.161-0.415 0.256-0.686 0.253h-10.28v-9.788l3.608-8.118c0.307 0.098 0.582 0.268 0.806 0.492 0.363 0.363 0.586 0.861 0.586 1.414zM15 8v-3c0-1.104-0.449-2.106-1.172-2.828s-1.724-1.172-2.828-1.172c-0.405 0-0.754 0.241-0.914 0.594l-4 9c-0.060 0.134-0.087 0.275-0.086 0.406v11c0 0.552 0.448 1 1 1h11.28c0.767 0.009 1.482-0.281 2.021-0.763 0.505-0.452 0.857-1.076 0.967-1.783l1.38-9.002c0.125-0.82-0.096-1.614-0.55-2.231s-1.147-1.063-1.965-1.187c-0.165-0.025-0.333-0.037-0.492-0.034zM7 21h-3c-0.276 0-0.525-0.111-0.707-0.293s-0.293-0.431-0.293-0.707v-7c0-0.276 0.111-0.525 0.293-0.707s0.431-0.293 0.707-0.293h3c0.552 0 1-0.448 1-1s-0.448-1-1-1h-3c-0.828 0-1.58 0.337-2.121 0.879s-0.879 1.293-0.879 2.121v7c0 0.828 0.337 1.58 0.879 2.121s1.293 0.879 2.121 0.879h3c0.552 0 1-0.448 1-1s-0.448-1-1-1z"></path>
</symbol>
<symbol id="icon-trash" viewBox="0 0 24 24">
<path d="M18 7v13c0 0.276-0.111 0.525-0.293 0.707s-0.431 0.293-0.707 0.293h-10c-0.276 0-0.525-0.111-0.707-0.293s-0.293-0.431-0.293-0.707v-13zM17 5v-1c0-0.828-0.337-1.58-0.879-2.121s-1.293-0.879-2.121-0.879h-4c-0.828 0-1.58 0.337-2.121 0.879s-0.879 1.293-0.879 2.121v1h-4c-0.552 0-1 0.448-1 1s0.448 1 1 1h1v13c0 0.828 0.337 1.58 0.879 2.121s1.293 0.879 2.121 0.879h10c0.828 0 1.58-0.337 2.121-0.879s0.879-1.293 0.879-2.121v-13h1c0.552 0 1-0.448 1-1s-0.448-1-1-1zM9 5v-1c0-0.276 0.111-0.525 0.293-0.707s0.431-0.293 0.707-0.293h4c0.276 0 0.525 0.111 0.707 0.293s0.293 0.431 0.293 0.707v1z"></path>
</symbol>
<symbol id="icon-trash-2" viewBox="0 0 24 24">
<path d="M18 7v13c0 0.276-0.111 0.525-0.293 0.707s-0.431 0.293-0.707 0.293h-10c-0.276 0-0.525-0.111-0.707-0.293s-0.293-0.431-0.293-0.707v-13zM17 5v-1c0-0.828-0.337-1.58-0.879-2.121s-1.293-0.879-2.121-0.879h-4c-0.828 0-1.58 0.337-2.121 0.879s-0.879 1.293-0.879 2.121v1h-4c-0.552 0-1 0.448-1 1s0.448 1 1 1h1v13c0 0.828 0.337 1.58 0.879 2.121s1.293 0.879 2.121 0.879h10c0.828 0 1.58-0.337 2.121-0.879s0.879-1.293 0.879-2.121v-13h1c0.552 0 1-0.448 1-1s-0.448-1-1-1zM9 5v-1c0-0.276 0.111-0.525 0.293-0.707s0.431-0.293 0.707-0.293h4c0.276 0 0.525 0.111 0.707 0.293s0.293 0.431 0.293 0.707v1zM9 11v6c0 0.552 0.448 1 1 1s1-0.448 1-1v-6c0-0.552-0.448-1-1-1s-1 0.448-1 1zM13 11v6c0 0.552 0.448 1 1 1s1-0.448 1-1v-6c0-0.552-0.448-1-1-1s-1 0.448-1 1z"></path>
</symbol>
<symbol id="icon-user-plus" viewBox="0 0 24 24">
<path d="M17 21v-2c0-1.38-0.561-2.632-1.464-3.536s-2.156-1.464-3.536-1.464h-7c-1.38 0-2.632 0.561-3.536 1.464s-1.464 2.156-1.464 3.536v2c0 0.552 0.448 1 1 1s1-0.448 1-1v-2c0-0.829 0.335-1.577 0.879-2.121s1.292-0.879 2.121-0.879h7c0.829 0 1.577 0.335 2.121 0.879s0.879 1.292 0.879 2.121v2c0 0.552 0.448 1 1 1s1-0.448 1-1zM13.5 7c0-1.38-0.561-2.632-1.464-3.536s-2.156-1.464-3.536-1.464-2.632 0.561-3.536 1.464-1.464 2.156-1.464 3.536 0.561 2.632 1.464 3.536 2.156 1.464 3.536 1.464 2.632-0.561 3.536-1.464 1.464-2.156 1.464-3.536zM11.5 7c0 0.829-0.335 1.577-0.879 2.121s-1.292 0.879-2.121 0.879-1.577-0.335-2.121-0.879-0.879-1.292-0.879-2.121 0.335-1.577 0.879-2.121 1.292-0.879 2.121-0.879 1.577 0.335 2.121 0.879 0.879 1.292 0.879 2.121zM23 10h-2v-2c0-0.552-0.448-1-1-1s-1 0.448-1 1v2h-2c-0.552 0-1 0.448-1 1s0.448 1 1 1h2v2c0 0.552 0.448 1 1 1s1-0.448 1-1v-2h2c0.552 0 1-0.448 1-1s-0.448-1-1-1z"></path>
</symbol>
<symbol id="icon-x" viewBox="0 0 24 24">
<path d="M5.293 6.707l5.293 5.293-5.293 5.293c-0.391 0.391-0.391 1.024 0 1.414s1.024 0.391 1.414 0l5.293-5.293 5.293 5.293c0.391 0.391 1.024 0.391 1.414 0s0.391-1.024 0-1.414l-5.293-5.293 5.293-5.293c0.391-0.391 0.391-1.024 0-1.414s-1.024-0.391-1.414 0l-5.293 5.293-5.293-5.293c-0.391-0.391-1.024-0.391-1.414 0s-0.391 1.024 0 1.414z"></path>
</symbol>
</defs>
</svg>
