<svg xmlns="http://www.w3.org/2000/svg" xmlns:xlink="http://www.w3.org/1999/xlink" viewBox="0 0 493.01 304.79"><defs><style>.cls-1{isolation:isolate;}.cls-2{fill:url(#radial-gradient);}.cls-3{fill:url(#linear-gradient);}.cls-4,.cls-7{fill:#1f395e;}.cls-4{opacity:0.22;mix-blend-mode:multiply;}.cls-5{fill:url(#linear-gradient-2);}.cls-6{fill:url(#linear-gradient-3);}.cls-8{fill:#fff;}.cls-9{fill:url(#linear-gradient-4);}.cls-10{fill:#3150bc;}.cls-11{fill:#feb19e;}.cls-12{fill:#ff856a;}.cls-13{fill:url(#linear-gradient-5);}.cls-14{fill:#c1c8d3;}.cls-15{fill:url(#linear-gradient-6);}.cls-16{fill:url(#linear-gradient-7);}</style><radialGradient id="radial-gradient" cx="236.05" cy="190.39" fx="-8.899262996205863" fy="114.03656877310225" r="278.46" gradientTransform="translate(535.39 230.95) rotate(149.11) scale(1 0.99)" gradientUnits="userSpaceOnUse"><stop offset="0.29" stop-color="#8a72f7"/><stop offset="0.59" stop-color="#8c74f7"/><stop offset="0.69" stop-color="#917bf7"/><stop offset="0.77" stop-color="#9b86f8"/><stop offset="0.83" stop-color="#a997f9"/><stop offset="0.89" stop-color="#bbadfa"/><stop offset="0.93" stop-color="#d2c9fc"/><stop offset="0.97" stop-color="#ece8fe"/><stop offset="1" stop-color="#fff"/></radialGradient><linearGradient id="linear-gradient" x1="258.82" y1="291" x2="258.82" y2="194.12" gradientUnits="userSpaceOnUse"><stop offset="0" stop-color="#1f3a65"/><stop offset="1" stop-color="#294a7a"/></linearGradient><linearGradient id="linear-gradient-2" x1="200.37" y1="298.52" x2="200.37" y2="272.47" xlink:href="#linear-gradient"/><linearGradient id="linear-gradient-3" x1="309.64" y1="298.52" x2="309.64" y2="272.47" xlink:href="#linear-gradient"/><linearGradient id="linear-gradient-4" x1="278.09" y1="288.73" x2="244.27" y2="235.05" gradientUnits="userSpaceOnUse"><stop offset="0" stop-color="#3855e1"/><stop offset="1" stop-color="#5c7ef7"/></linearGradient><linearGradient id="linear-gradient-5" x1="252.66" y1="157.45" x2="251.58" y2="115.29" gradientUnits="userSpaceOnUse"><stop offset="0" stop-color="#3f2323"/><stop offset="1" stop-color="#5e3434"/></linearGradient><linearGradient id="linear-gradient-6" x1="370.16" y1="281.39" x2="391.09" y2="281.39" xlink:href="#linear-gradient"/><linearGradient id="linear-gradient-7" x1="400.05" y1="209.49" x2="373.49" y2="262.23" gradientUnits="userSpaceOnUse"><stop offset="0" stop-color="#e2e8f7"/><stop offset="1" stop-color="#fff"/></linearGradient></defs><g class="cls-1"><g id="Layer_2" data-name="Layer 2"><g id="OBJECTS"><path class="cls-2" d="M484.88,179.85a314.26,314.26,0,0,1-3.37,49.67c-.16,1.1-.33,2.21-.53,3.29-1.19,7.19-2.63,13.9-4.27,20.09-.29,1.06-.58,2.11-.87,3.14-6.31,22-15.27,36.93-24.82,42.43H49.47s-34.17-29.62-41-71.94c-.18-1.07-.34-2.15-.47-3.24-2.66-21.06,1.63-45,20.08-70,8.42-11.35,19.49-19.26,32.2-24.7,1-.42,2-.82,3-1.21,18.84-7.37,41-9.68,63.21-10l3.37,0c13.24-.1,26.45.45,39,1l3.53.16c20.21.85,38.43,1.48,51.65-1h.28l3.51-1h.16c14.65-3.59,21.87-11.9,16.68-29.79-10.07-34.69.24-60.12,22.67-74.17,1.15-.72,2.34-1.41,3.54-2.07C283.49,3.56,299.53,0,317.67,0c1.28,0,2.56,0,3.87.06a176,176,0,0,1,49.75,9.32,158.25,158.25,0,0,1,26.29,11.43c1,.55,2,1.11,3,1.69A153.18,153.18,0,0,1,441,56.44c.75.87,1.47,1.76,2.2,2.66C472,94.64,484.59,140.53,484.88,179.85Z"/><path class="cls-3" d="M342.68,280.23v0a21.09,21.09,0,0,1-2,5.2c-7.77,14.22-41.46,11.88-41.46,11.88H222.35c-31.82,0-44.57-.79-47.62-10.72a16.05,16.05,0,0,1-.42-1.69c-2.15-11.55,8.59-49.12,28.44-74.88,10.16-13.17,20.66-20.11,30-23.74a60.33,60.33,0,0,1,22.36-3.91c9.76,0,17.64.72,24.32,2.29,17.94,4.2,27.32,14.34,41.4,32.33C338.06,239,346.53,264.8,342.68,280.23Z"/><path class="cls-4" d="M207.45,271.11c8.35-13.12,11-31.33,13.29-49.81L228,258.88h62.8l11.54-37.58c-.27,17.57,2.14,34.79,10.47,51.26C312.79,272.56,271.73,319,207.45,271.11Z"/><path class="cls-5" d="M226.52,297.33h-4.17c-31.82,0-44.57-.79-47.62-10.72-1.66-7.81.45-16,10-18.47,14.91-3.84,40.87,11.27,40.87,11.27Z"/><path class="cls-6" d="M342.68,280.23s0,0,0,0a21.09,21.09,0,0,1-2,5.2c-7.77,14.22-41.46,11.88-41.46,11.88H276.42l2.9-19.32s40.45-18.73,54.94-12.88C341.35,268,343.52,273.9,342.68,280.23Z"/><path class="cls-7" d="M279.45,184.68c-.68,9-4.41,25.49-22.61,25.49-19.18,0-23.24-16.22-24.07-23.87a60.33,60.33,0,0,1,22.36-3.91C264.89,182.39,272.77,183.11,279.45,184.68Z"/><path class="cls-8" d="M296,297.32H222.35a3.22,3.22,0,0,1-3.22-3.22h0a3.22,3.22,0,0,1,3.22-3.22H296a3.22,3.22,0,0,1,3.22,3.22h0A3.22,3.22,0,0,1,296,297.32Z"/><path class="cls-9" d="M304.94,241.94l-.27,1.67v0L297,290.89H222l-7.56-49a4,4,0,0,1,3.92-4.58H301A4,4,0,0,1,304.94,241.94Z"/><path class="cls-10" d="M304.67,243.63,297,290.89H222.35l25.31-2.64A68.11,68.11,0,0,0,304.67,243.63Z"/><path class="cls-11" d="M256.53,203.32H256a17.62,17.62,0,0,1-7.25-1.46,13.07,13.07,0,0,1-7.49-12.26c0-.53,0-1,0-1.56,0-4.3-.26-7.87-.26-7.87v-1.93L268.11,177a63,63,0,0,0,1.08,10.13.5.5,0,0,1,0,.13A13.4,13.4,0,0,1,256.53,203.32Z"/><path class="cls-12" d="M269.19,187.16c-11.27,13.23-22.85,5.5-27.87.88,0-4.3-.26-7.87-.26-7.87v-1.93L268.11,177A63,63,0,0,0,269.19,187.16Z"/><path class="cls-11" d="M232.78,165.09s8.39,23.64,22.38,23.64S275,163.27,275,163.27V141.13H231.71Z"/><path class="cls-11" d="M228.28,151.75s-4.12.75-3.42,5.48,5,10.47,8.49,7.45Z"/><path class="cls-11" d="M278.23,149.77s4.18.18,4.13,5-3.53,11-7.4,8.53Z"/><path class="cls-13" d="M278.23,149.77a111.17,111.17,0,0,1-3.27,13.5s-3.31-.67-4.39-9.39a11.84,11.84,0,0,1-11.65-5.37s-1.08,6.71-8,1.94c-4.61,3.77-10.05,4.16-16.24,1.61,0,0,1,8.8-1.91,13,0,0-1.07-3.48-4.5-13.34a3.31,3.31,0,0,0-2.41,1.39s-7.41-14.5-3.92-21.47,8.18-4.3,8.18-4.3-1.74-9.52,8.59-13,10.33-8.19,11.94-7.25,2.28,4.43,2.28,4.43,17.85-1.88,22.68,17.31c0,0,12.89.41,5.24,22C280.86,150.86,280.36,150,278.23,149.77Z"/><rect class="cls-14" y="294.32" width="493.01" height="10.47" rx="1.75"/><path class="cls-15" d="M370.16,268.51h20.93a0,0,0,0,1,0,0v18.12a7.65,7.65,0,0,1-7.65,7.65h-5.64a7.65,7.65,0,0,1-7.65-7.65V268.51A0,0,0,0,1,370.16,268.51Z"/><path class="cls-16" d="M376.8,268.51v-5.59a1.67,1.67,0,0,1,1.66-1.66h2.12a1.66,1.66,0,0,0,1.66-1.66v-2.11a1.66,1.66,0,0,0-1.66-1.66h-6.8a8.45,8.45,0,0,1-8.45-8.46h0a8.45,8.45,0,0,1,8.45-8.45h9a1.66,1.66,0,0,0,1.66-1.66v-.76a8.76,8.76,0,0,1,8.76-8.75h0A8.75,8.75,0,0,1,402,236.5h0A9.45,9.45,0,0,1,392.5,246H376.65a1.66,1.66,0,0,0-1.66,1.66h0a1.66,1.66,0,0,0,1.66,1.67h8.66a5.78,5.78,0,0,1,5.78,5.78v3.63a5.78,5.78,0,0,1-5.78,5.78h0a1.66,1.66,0,0,0-1.66,1.66v2.37Z"/></g></g></g></svg>