<svg xmlns="http://www.w3.org/2000/svg" xmlns:xlink="http://www.w3.org/1999/xlink" viewBox="0 0 180.51 224.23"><defs><style>.cls-1{fill:#e4ebf7;}.cls-2{fill:#fff;}.cls-3{fill:#c3cddd;}.cls-4{fill:url(#linear-gradient);}.cls-5{fill:url(#linear-gradient-2);}.cls-6{fill:#1b3151;}.cls-7{fill:#23406d;}.cls-8{fill:url(#linear-gradient-3);}.cls-9{fill:#f6613a;opacity:0.5;}.cls-10{fill:#f49187;}.cls-11{fill:#525559;}.cls-12{fill:#959aa0;}.cls-13{fill:#c2cad3;}.cls-14{fill:#dfe6ed;}.cls-15{fill:#feb19e;}.cls-16{fill:#f2d972;}.cls-17{fill:#ff856a;}.cls-18{fill:url(#linear-gradient-4);}.cls-19{fill:#abdaf7;}.cls-20{fill:#4e8fb7;}.cls-21{fill:#70b2dd;}</style><linearGradient id="linear-gradient" x1="73.49" y1="202.03" x2="93.47" y2="202.03" gradientUnits="userSpaceOnUse"><stop offset="0" stop-color="#3855e1"/><stop offset="1" stop-color="#5c7ef7"/></linearGradient><linearGradient id="linear-gradient-2" x1="95.98" y1="204.07" x2="109.94" y2="204.07" xlink:href="#linear-gradient"/><linearGradient id="linear-gradient-3" x1="94.81" y1="108.57" x2="93.15" y2="44.74" gradientUnits="userSpaceOnUse"><stop offset="0" stop-color="#f79239"/><stop offset="1" stop-color="#f7c759"/></linearGradient><linearGradient id="linear-gradient-4" x1="69.16" y1="24.94" x2="100.43" y2="24.94" gradientUnits="userSpaceOnUse"><stop offset="0" stop-color="#3f2323"/><stop offset="1" stop-color="#5e3434"/></linearGradient></defs><g id="Layer_2" data-name="Layer 2"><g id="OBJECTS"><path class="cls-1" d="M176.82,125.18c-.15.31-.31.61-.47.92-7.76,14.82-25.31,21.67-42.95,17.1-6.54-1.7-12.18-5-18.84-7.63-.57-.23-1.15-.44-1.74-.65-9.42-3.38-21.08-4.95-40,1.55-29.36,10.09-54.23,13.68-66.73-5.18-.16-.22-.31-.46-.45-.7a42.2,42.2,0,0,1-4.32-9.38c-3.45-10.39-.08-22.28,7.36-33.71.23-.37.48-.74.72-1.1A107,107,0,0,1,30.2,64.14c.88-.73,1.73-1.48,2.56-2.27.25-.22.5-.47.74-.72a67.49,67.49,0,0,0,11.33-15.3l.42-.75C50.93,34.82,54.83,24,60.07,16.18c.43-.64.86-1.26,1.33-1.85q.29-.39.6-.78a35.5,35.5,0,0,1,5.43-5.46c.22-.19.46-.37.69-.55A36.58,36.58,0,0,1,86.79.25l1-.1c10.81-.89,23,2.25,35.05,9.56.32.18.63.38,1,.58a100.08,100.08,0,0,1,23,20.2c.23.26.45.53.68.8a141,141,0,0,1,18,27.94l.39.79q2.74,5.63,5.22,11.79c.1.26.2.52.31.78q1.88,4.77,3.56,9.86c.09.26.18.53.26.79q1.84,5.64,3.43,11.66C181.83,106.88,180.73,117.14,176.82,125.18Z"/><path class="cls-2" d="M175.25,83.24a80.43,80.43,0,0,1-24.86,4.23,49.63,49.63,0,0,1-22.63-5c-12.88-6.57-21.28-19.35-25-38C98.1,20.93,92.05,7.69,86.79.25l1-.1c5.24,7.64,11.15,21,15.76,44.18,3.65,18.37,11.91,31,24.55,37.4,14.21,7.26,32.18,5.54,46.84.72C175.08,82.71,175.17,83,175.25,83.24Z"/><path class="cls-2" d="M171.43,72.59a65,65,0,0,1-16,2.3c-6.32,0-11.56-1.37-15.78-4.1-8.74-5.64-13.37-17.1-14.17-35a221.91,221.91,0,0,0-2.59-26.06c.32.18.63.38,1,.58a224.41,224.41,0,0,1,2.48,25.43c.79,17.64,5.3,28.88,13.79,34.36,7.16,4.63,17.38,5.21,31,1.73C171.22,72.07,171.32,72.33,171.43,72.59Z"/><path class="cls-2" d="M165.9,60a37.06,37.06,0,0,1-8.46,1.12c-4.72,0-8.24-1.34-10.51-4-5-5.92-3.12-17.12-.11-26.62.23.26.45.53.68.8-2.85,9.2-4.57,19.8.07,25.28,3.24,3.82,9.26,4.71,17.94,2.66Z"/><path class="cls-2" d="M176.82,125.18c-.15.31-.31.61-.47.92a89.93,89.93,0,0,1-11.29.7c-17.55,0-41.4-4.92-70.27-22.7-37.34-23-66.26-22-83.94-17.23-.72.21-1.44.41-2.13.63.23-.37.48-.74.72-1.1.39-.12.79-.22,1.19-.33,17.84-4.88,47-5.83,84.6,17.31C131.07,125.44,159.07,127.6,176.82,125.18Z"/><path class="cls-2" d="M114.56,135.57c-.57-.23-1.15-.44-1.74-.65-11-11.73-27.44-22.94-49.69-22.27a105.69,105.69,0,0,0-57,18.64c-.16-.22-.31-.46-.45-.7A106.5,106.5,0,0,1,63.1,111.8C86.43,111.12,103.43,123.28,114.56,135.57Z"/><path class="cls-2" d="M84.5,51.76c-.8,8.74-5,14.46-12.19,16.53a30.42,30.42,0,0,1-8.45,1.08c-9.43,0-20.59-3.27-31.1-7.5.25-.22.5-.47.74-.72,13.67,5.49,28.32,9.29,38.58,6.34,8.61-2.49,11-10,11.59-15.81C84.89,38.22,77.28,19.3,67.43,8.09c.22-.19.46-.37.69-.55C78.19,18.88,85.77,37.84,84.5,51.76Z"/><path class="cls-2" d="M67.65,53.11a7.57,7.57,0,0,1-3.44.72c-5.2,0-12.57-3.69-19.38-8l.42-.75c8.31,5.26,17.39,9.61,22,7.26,7.38-3.75-1.29-27.07-5.87-38q.29-.39.6-.78C66.63,24.51,75.83,49,67.65,53.11Z"/><path class="cls-1" d="M97.21,198.72c-38.63,0-69.95,3.89-69.95,8.69,0,1.79,4.38,3.46,11.88,4.84-1.51.81-2.35,1.68-2.35,2.59,0,4.1,17,7.43,37.85,7.43,19.07,0,34.84-2.77,37.46-6.37,31.48-.85,55.07-4.33,55.07-8.49C167.17,202.61,135.85,198.72,97.21,198.72Z"/><ellipse class="cls-1" cx="125.9" cy="221.99" rx="8.74" ry="2.24"/><path class="cls-3" d="M136.05,207.52c0,3-19.27,5.49-43,5.49s-43-2.45-43-5.49S69.24,202,93,202,136.05,204.49,136.05,207.52Z"/><path class="cls-4" d="M93.47,200.52s-2.88,4.35-4.68,7.69a4.66,4.66,0,0,1-4.12,2.46H73.52s-.56-4.34,3-6a1.35,1.35,0,0,1,.22-.09,7.18,7.18,0,0,1,2.74-.59s4.07-5.36,1.63-8.68l9.44-1.87A10.06,10.06,0,0,1,93.47,200.52Z"/><path class="cls-1" d="M85.53,210.67H73.17s-.21-4.34,3.37-6a1.35,1.35,0,0,1,.22-.09C78,204.05,83.84,202.26,85.53,210.67Z"/><path class="cls-5" d="M96,205.69s3.27-3.75,3.32-8.22H108s2.94,8.73,1.52,13.2H99.09Z"/><path class="cls-1" d="M105.61,210.67s-1.86-5.42-7.66-5.26-6.12,5.26-6.12,5.26Z"/><path class="cls-6" d="M74.74,105s-11.59,37.5-10.33,47.45,14.94,44.44,14.94,44.44l13.38-4.18S88.24,167.31,84.6,154c0,0,10.79-16.55,12.75-24.4s-1.55-21.45-1.55-21.45Z"/><path class="cls-7" d="M89.22,108.29l7.85,90.43h12.48s5.61-39,2.66-55.38c0,0,6.73-20.33,4.49-40.65Z"/><path class="cls-8" d="M115.28,88.8l1.42,13.89a17.39,17.39,0,0,1-3.42,3.21c-3.37,2.51-9.37,5.6-18.55,5.72-15.56.22-20-6.62-20-6.62l.82-8,.56-5.45L75,89.5,65.81,72.84a52.19,52.19,0,0,1,5.3-17.68c3.21-6,10.19-7.84,13.87-8.42a20.13,20.13,0,0,1,2.38-.27,25,25,0,0,0,10,0,18.78,18.78,0,0,1,8,.5c4.55,1.18,9.32,3.77,12,7.77C122,61.37,122.23,84,122.23,84l-7.31,1.26Z"/><path class="cls-9" d="M116.7,102.69a17.39,17.39,0,0,1-3.42,3.21A53.63,53.63,0,0,1,75.56,97l.56-5.45L75,89.5l2.5-9.84,1-16.72,4.93,19.14s14.32-1.72,16.9-4.53,4.24-14.61,4.24-14.61l2,17.36,8.51,8.19.16.31Z"/><path class="cls-10" d="M67.14,71.43a2.85,2.85,0,0,0,0-2.49,1.43,1.43,0,0,0-1.82-.39s-1.37-2.7-5.15-1.3-7.12,5.26.8,10.27S67.14,71.43,67.14,71.43Z"/><path class="cls-11" d="M63.11,69.46l-3.17-9.87a.77.77,0,0,0-.94-.52h0a.78.78,0,0,0-.53,1l3.59,9.57A.71.71,0,0,0,63.11,69.46Z"/><path class="cls-12" d="M84.37,96.31H67a1.25,1.25,0,0,1-1.2-.9l-7-22.69A1.27,1.27,0,0,1,60,71.08H76.61a1.26,1.26,0,0,1,1.2.86l7.76,22.69A1.28,1.28,0,0,1,84.37,96.31Z"/><path class="cls-13" d="M82.2,96.31H67a1.25,1.25,0,0,1-1.2-.9l-7-22.69A1.27,1.27,0,0,1,60,71.08h12.8a3.53,3.53,0,0,1,3.34,2.39l7.23,21.16A1.27,1.27,0,0,1,82.2,96.31Z"/><path class="cls-14" d="M72.81,84.28c.26,1.43-.29,2.73-1.23,2.9s-1.91-.85-2.17-2.28.29-2.73,1.23-2.9S72.55,82.85,72.81,84.28Z"/><path class="cls-15" d="M86.49,81.45S82.63,77.1,79.62,77L81,80.75a17.31,17.31,0,0,1-7.36,2.31c-4,.21-6,1.19-2.94,2.38s3.85,4.14,6.8,5.54,9.74-2.24,9.74-2.24S98.05,92,107.52,92.31s16.19-2.66,14.72-8.34S111,77.31,104.08,79.14,86.49,81.45,86.49,81.45Z"/><path class="cls-16" d="M105.39,47c-1.47,4-7,13.76-16.46,12.08-6.77-1.21-5.54-9.3-4-12.31a20.13,20.13,0,0,1,2.38-.27,25,25,0,0,0,10,0A18.78,18.78,0,0,1,105.39,47Z"/><path class="cls-15" d="M100.72,46.09s-1.37,9.93-9,10.25c-4.11.18-5.13-2.05-5.18-4.12a9.89,9.89,0,0,1,.57-3.41,3,3,0,0,0,1.37-1.07A3.78,3.78,0,0,0,89.23,46a5.42,5.42,0,0,0,0-1.47c-.11-1.22.82-2.55,2.08-3.76a30.46,30.46,0,0,1,5.86-4.17h.28a48.94,48.94,0,0,0,1.74,7.88,16.36,16.36,0,0,0,.64,1.61Z"/><path class="cls-17" d="M86.58,52.22a9.89,9.89,0,0,1,.57-3.41,3,3,0,0,0,1.37-1.07A3.78,3.78,0,0,0,89.23,46a5.42,5.42,0,0,0,0-1.47c-.11-1.22.82-2.55,2.08-3.76a30.46,30.46,0,0,1,5.86-4.17h.28C98.23,49.73,89.71,51.87,86.58,52.22Z"/><path class="cls-18" d="M99.09,30.93s2.15-2.47,1-8-5.47-4.58-5.47-4.58.79-3.52-4.73-3.94-10.46,3.21-13.62,1.47-5-.79-4,3.84c0,0-2.78-2.74-3,1.58s3.68,6.57,3.68,6.57-.16,6.15,7,7.72l17-1.36Z"/><path class="cls-15" d="M77.48,29.72S81.41,47,87.26,47.8c5.12.67,9.18-6.27,9.88-8.69a26,26,0,0,0,.65-3.29s2.77,0,2.56-3.42-3-5.1-3.68-.1c0,0-2.73-.43-2.89-5.73,0,0-3.68,2.78-7.26,2.52s-2.36-2.52-2.36-2.52S82.53,29.09,77.48,29.72Z"/><path class="cls-19" d="M131.18,27.14a6.28,6.28,0,1,0-10.73,4.43c.88.88,1.53.56,1.85,1.76l.51,1.87h4.11l.48-1.77c.33-1.23,1-.92,1.9-1.81A6.27,6.27,0,0,0,131.18,27.14Z"/><path class="cls-2" d="M123.26,27.3a1.11,1.11,0,1,0,0,2.21,1.07,1.07,0,0,0,.63-.2v7h.47V28.41A1.11,1.11,0,0,0,123.26,27.3Zm0,1.74a.63.63,0,1,1,.63-.63A.63.63,0,0,1,123.26,29Z"/><path class="cls-2" d="M126.54,28.27a1.1,1.1,0,0,0-1.1,1.1l0,6.91h.47l0-6a1.15,1.15,0,0,0,.63.2,1.11,1.11,0,1,0,0-2.21Zm0,1.73a.63.63,0,1,1,.64-.63A.63.63,0,0,1,126.54,30Z"/><path class="cls-20" d="M124.87,37.56h0a2.14,2.14,0,0,1-2.14-2.14v-.5H127v.5A2.14,2.14,0,0,1,124.87,37.56Z"/><path class="cls-21" d="M127,35.91h-4.32a.17.17,0,0,1-.17-.17h0a.17.17,0,0,1,.17-.16H127a.17.17,0,0,1,.17.16h0A.17.17,0,0,1,127,35.91Z"/><path class="cls-21" d="M127.06,36.61h-4.32a.18.18,0,0,1-.17-.17h0a.17.17,0,0,1,.17-.16h4.32a.17.17,0,0,1,.17.16h0A.18.18,0,0,1,127.06,36.61Z"/><path class="cls-19" d="M117.28,26.86h-1.65a.32.32,0,0,1-.32-.32h0a.32.32,0,0,1,.32-.31h1.65a.32.32,0,0,1,.32.31h0A.32.32,0,0,1,117.28,26.86Z"/><path class="cls-19" d="M117.78,23.91l-1.46-.76a.32.32,0,0,1-.13-.43h0a.32.32,0,0,1,.43-.13l1.46.76a.32.32,0,0,1,.13.43h0A.32.32,0,0,1,117.78,23.91Z"/><path class="cls-19" d="M117.89,29.14l-1.46.76a.32.32,0,0,0-.14.43h0a.33.33,0,0,0,.43.13l1.46-.76a.32.32,0,0,0,.14-.43h0A.32.32,0,0,0,117.89,29.14Z"/><path class="cls-19" d="M119.56,21.47,118.4,20.3a.31.31,0,0,1,0-.45h0a.33.33,0,0,1,.45,0L120,21a.33.33,0,0,1,0,.45h0A.33.33,0,0,1,119.56,21.47Z"/><path class="cls-19" d="M121.58,19.92,121,18.37a.32.32,0,0,1,.19-.41h0a.32.32,0,0,1,.4.19l.57,1.55a.33.33,0,0,1-.18.41h0A.32.32,0,0,1,121.58,19.92Z"/><path class="cls-19" d="M132.59,26.65h1.65a.31.31,0,0,0,.31-.32h0a.31.31,0,0,0-.31-.31h-1.65a.31.31,0,0,0-.32.31h0A.32.32,0,0,0,132.59,26.65Z"/><path class="cls-19" d="M132.08,23.7l1.46-.76a.32.32,0,0,0,.14-.43h0a.31.31,0,0,0-.43-.13l-1.46.76a.31.31,0,0,0-.13.43h0A.31.31,0,0,0,132.08,23.7Z"/><path class="cls-19" d="M132,28.93l1.46.76a.32.32,0,0,1,.13.43h0a.31.31,0,0,1-.42.13l-1.47-.76a.32.32,0,0,1-.13-.43h0A.32.32,0,0,1,132,28.93Z"/><path class="cls-19" d="M130.3,21.26l1.17-1.17a.33.33,0,0,0,0-.45h0a.33.33,0,0,0-.45,0l-1.16,1.17a.31.31,0,0,0,0,.45h0A.31.31,0,0,0,130.3,21.26Z"/><path class="cls-19" d="M128.29,19.71l.57-1.55a.32.32,0,0,0-.19-.41h0a.32.32,0,0,0-.41.19l-.57,1.55a.32.32,0,0,0,.19.4h0A.32.32,0,0,0,128.29,19.71Z"/><path class="cls-19" d="M124.58,19.22V17.57a.32.32,0,0,1,.32-.32h0a.32.32,0,0,1,.32.32v1.65a.31.31,0,0,1-.32.31h0A.32.32,0,0,1,124.58,19.22Z"/><rect class="cls-19" x="153.31" y="58.31" width="16.44" height="16.44" rx="2.6"/><path class="cls-20" d="M166.1,60.93l.07.07c0,.47-.07,1.29-.07,2.47l-.06.06h-.37l-.07-.07-.08-.72a6.55,6.55,0,0,0-.1-.71.29.29,0,0,0-.12-.19,1.23,1.23,0,0,0-.51-.1,9.54,9.54,0,0,0-1,0h-1.49c0,1.19-.06,1.87-.06,2.06v4.59l0,1.54c0,.59,0,1,0,1.15a.68.68,0,0,0,.11.35.7.7,0,0,0,.29.14,6.06,6.06,0,0,0,1.05.09l.06,0v.39l-.06.07-2.25-.07-2.25.07-.06-.07v-.39l.06,0a8,8,0,0,0,1-.08.76.76,0,0,0,.33-.12.74.74,0,0,0,.14-.32,7.51,7.51,0,0,0,.05-1.09l0-1.66V63.76c0-.09,0-.77-.07-2.06h-1.17c-.48,0-.9,0-1.25,0s-.56.07-.62.16a3.27,3.27,0,0,0-.15.85l-.08.72-.07.07H157l-.06-.06c0-1.26,0-2.09-.08-2.47l.08-.07q1.36.06,4.56.06C163.7,61,165.22,61,166.1,60.93Z"/><path class="cls-21" d="M20.65,55.9a.55.55,0,0,1-.33-1,17,17,0,0,1,1.79-1.22.55.55,0,1,1,.55,1A15.92,15.92,0,0,0,21,55.79.59.59,0,0,1,20.65,55.9Z"/><path class="cls-21" d="M23,112.22c-.49,0-1,0-1.5,0a.53.53,0,0,1-.51-.57.56.56,0,0,1,.58-.52c.5,0,1,0,1.47,0a22.42,22.42,0,0,0,2.64-.16.54.54,0,0,1,.61.47.54.54,0,0,1-.47.61A19.79,19.79,0,0,1,23,112.22Zm-5.65-.61h-.12a20.64,20.64,0,0,1-4.11-1.36.55.55,0,0,1-.27-.72.54.54,0,0,1,.73-.27,19.94,19.94,0,0,0,3.89,1.28.55.55,0,0,1,.42.65A.55.55,0,0,1,17.34,111.61Zm12.47-.6a.54.54,0,0,1-.5-.34.55.55,0,0,1,.3-.72,12.82,12.82,0,0,0,3.44-2.09.55.55,0,0,1,.77.07.54.54,0,0,1-.06.77A14.06,14.06,0,0,1,30,111,.78.78,0,0,1,29.81,111Zm-20-2.94a.59.59,0,0,1-.35-.12,16.09,16.09,0,0,1-2.95-3.21A.55.55,0,0,1,6.6,104a.55.55,0,0,1,.76.13,14.77,14.77,0,0,0,2.75,3,.54.54,0,0,1,.07.77A.53.53,0,0,1,9.76,108.07Zm26.39-2.43a.51.51,0,0,1-.29-.08.55.55,0,0,1-.17-.76,18.52,18.52,0,0,0,1.8-3.68.55.55,0,0,1,.7-.33.56.56,0,0,1,.33.7,19.93,19.93,0,0,1-1.91,3.9A.54.54,0,0,1,36.15,105.64ZM5,101.24a.55.55,0,0,1-.51-.35,23.05,23.05,0,0,1-1.13-4.18.55.55,0,0,1,1.08-.18,21,21,0,0,0,1.07,4,.53.53,0,0,1-.32.7A.43.43,0,0,1,5,101.24Zm34.17-3.46H39a.54.54,0,0,1-.43-.64A40.21,40.21,0,0,0,39.18,93a.54.54,0,0,1,.59-.49.55.55,0,0,1,.5.59,39.64,39.64,0,0,1-.61,4.24A.54.54,0,0,1,39.13,97.78ZM3.46,93a.54.54,0,0,1-.55-.53c0-.27,0-.55,0-.83,0-1.12.06-2.28.16-3.45a.55.55,0,0,1,.6-.5.54.54,0,0,1,.49.59C4.05,89.39,4,90.52,4,91.6c0,.27,0,.54,0,.8a.55.55,0,0,1-.54.56Zm36.48-3.58h0a.56.56,0,0,1-.54-.56c0-.32,0-.64,0-1,0-1,0-2.12-.07-3.23a.54.54,0,0,1,.52-.57.55.55,0,0,1,.57.52c0,1.13.07,2.23.07,3.28,0,.33,0,.65,0,1A.54.54,0,0,1,39.94,89.38ZM4.19,84.56h-.1a.55.55,0,0,1-.43-.64c.25-1.35.57-2.75.94-4.16a.56.56,0,0,1,.67-.39.55.55,0,0,1,.39.67c-.37,1.38-.68,2.75-.93,4.08A.56.56,0,0,1,4.19,84.56ZM39.6,80.93a.55.55,0,0,1-.55-.5c0-.52-.09-1-.14-1.55-.07-.7-.1-1.42-.1-2.13,0-.2,0-.4,0-.59a.53.53,0,0,1,.56-.54.55.55,0,0,1,.53.57c0,.18,0,.37,0,.56,0,.68,0,1.36.1,2s.1,1,.14,1.57a.53.53,0,0,1-.49.59ZM6.37,76.4a.57.57,0,0,1-.18,0,.55.55,0,0,1-.34-.7c.14-.4.28-.8.43-1.21.34-.93.71-1.86,1.11-2.77a.55.55,0,0,1,1,.44C8,73,7.64,73.92,7.31,74.84c-.15.39-.29.79-.43,1.19A.54.54,0,0,1,6.37,76.4Zm33.52-3.87h-.13a.56.56,0,0,1-.41-.66,20.6,20.6,0,0,1,1.39-4.1.55.55,0,1,1,1,.46,19.24,19.24,0,0,0-1.31,3.88A.54.54,0,0,1,39.89,72.53ZM9.76,68.67a.48.48,0,0,1-.26-.07.54.54,0,0,1-.21-.74c.69-1.25,1.45-2.48,2.25-3.64a.55.55,0,0,1,.9.62c-.78,1.14-1.52,2.33-2.2,3.55A.54.54,0,0,1,9.76,68.67ZM43.52,65a.54.54,0,0,1-.37-.14.55.55,0,0,1,0-.77,9.6,9.6,0,0,1,3.59-2.61.55.55,0,1,1,.4,1,8.3,8.3,0,0,0-3.17,2.32A.55.55,0,0,1,43.52,65Zm11.18-.63a.53.53,0,0,1-.35-.13,9.21,9.21,0,0,0-3.45-1.94.54.54,0,0,1,.29-1,10.12,10.12,0,0,1,3.87,2.16.55.55,0,0,1,.06.77A.57.57,0,0,1,54.7,64.36ZM14.55,61.72a.53.53,0,0,1-.35-.13.55.55,0,0,1-.07-.77c.93-1.1,1.92-2.15,2.93-3.13a.56.56,0,0,1,.78,0,.55.55,0,0,1,0,.77,39.21,39.21,0,0,0-2.85,3A.55.55,0,0,1,14.55,61.72Z"/><path class="cls-21" d="M58.76,69.31a.56.56,0,0,1-.47-.26c-.37-.61-.76-1.19-1.14-1.72a.54.54,0,1,1,.88-.64c.4.55.8,1.15,1.19,1.78a.56.56,0,0,1-.17.76A.6.6,0,0,1,58.76,69.31Z"/><path class="cls-21" d="M35.2,46.61l-5.44,3.63a1.33,1.33,0,0,1-2.36,1.21,1.33,1.33,0,0,1,.36-1.85,1.34,1.34,0,0,1,1.52,0l5.56-3.72L21.31,47.24l2,2.94-3.79,2.54,3.59,5.36,3.79-2.54L29,58.69Z"/><rect class="cls-20" x="17.14" y="54.1" width="8.34" height="2.31" transform="translate(55.37 6.8) rotate(56.2)"/><path class="cls-21" d="M89.22,96.08A.54.54,0,0,1,89.08,95a18.48,18.48,0,0,1,2.15-.38.55.55,0,0,1,.13,1.09,14.3,14.3,0,0,0-2,.35Z"/><path class="cls-21" d="M135.45,113.83c-.86,0-1.72,0-2.57-.11a.54.54,0,0,1-.49-.6.53.53,0,0,1,.59-.49,29.17,29.17,0,0,0,4.18.06.53.53,0,0,1,.58.51.55.55,0,0,1-.51.58C136.65,113.81,136.05,113.83,135.45,113.83Zm6-.65a.53.53,0,0,1-.53-.43.54.54,0,0,1,.41-.65,23,23,0,0,0,4-1.27.55.55,0,1,1,.43,1,24.32,24.32,0,0,1-4.16,1.32Zm-12.7-.16-.13,0a27.39,27.39,0,0,1-4.13-1.37.55.55,0,0,1-.29-.72.56.56,0,0,1,.72-.29,25.2,25.2,0,0,0,4,1.32.55.55,0,0,1-.13,1.08Zm20.5-3.18a.57.57,0,0,1-.45-.24.55.55,0,0,1,.14-.76,16.53,16.53,0,0,0,3.06-2.75.55.55,0,1,1,.83.71,17.8,17.8,0,0,1-3.27,2.94A.57.57,0,0,1,149.22,109.84Zm-28.32-.16a.52.52,0,0,1-.29-.09,23.85,23.85,0,0,1-3.43-2.7.54.54,0,0,1,.75-.79,23.43,23.43,0,0,0,3.27,2.57.55.55,0,0,1-.3,1Zm-6.28-5.75a.51.51,0,0,1-.38-.16,29.08,29.08,0,0,0-3.16-2.75.55.55,0,0,1,.66-.88A30.3,30.3,0,0,1,115,103a.55.55,0,0,1-.39.93Zm40-.53a.44.44,0,0,1-.22-.05.54.54,0,0,1-.28-.72,13.94,13.94,0,0,0,1.1-3.81l0-.13a.55.55,0,0,1,.62-.47.54.54,0,0,1,.46.62l0,.14a15.1,15.1,0,0,1-1.18,4.1A.55.55,0,0,1,154.67,103.4Zm-46.85-4.57a.63.63,0,0,1-.26-.07,26.56,26.56,0,0,0-3.82-1.69.54.54,0,0,1-.34-.69.55.55,0,0,1,.7-.34,27.67,27.67,0,0,1,4,1.76.53.53,0,0,1,.22.74A.55.55,0,0,1,107.82,98.83ZM99.8,96h-.1a27.7,27.7,0,0,0-4.17-.45A.55.55,0,0,1,95,95a.56.56,0,0,1,.56-.53,29.86,29.86,0,0,1,4.33.47A.55.55,0,0,1,99.8,96Zm56.24-1a.54.54,0,0,1-.54-.53,29.55,29.55,0,0,0-.46-4.16.55.55,0,1,1,1.08-.19,31.51,31.51,0,0,1,.47,4.31.56.56,0,0,1-.53.57Zm-1.45-8.39a.56.56,0,0,1-.53-.39c-.37-1.26-.81-2.57-1.34-4a.54.54,0,0,1,.32-.7.55.55,0,0,1,.7.32c.55,1.47,1,2.81,1.37,4.09a.55.55,0,0,1-.37.68Zm-2.94-8a.54.54,0,0,1-.5-.34c-.36-.86-.73-1.72-1.09-2.56l-.58-1.37a.56.56,0,0,1,.29-.72.56.56,0,0,1,.72.29l.58,1.37c.36.85.73,1.71,1.08,2.57a.55.55,0,0,1-.29.72A.78.78,0,0,1,151.65,78.64Zm-3.27-7.89a.55.55,0,0,1-.51-.36c-.58-1.51-1-2.85-1.4-4.08a.55.55,0,1,1,1.05-.3c.35,1.2.8,2.51,1.37,4a.54.54,0,0,1-.32.71A.65.65,0,0,1,148.38,70.75Zm-2.28-8.21a.56.56,0,0,1-.54-.48,18.83,18.83,0,0,1-.15-2.33,15.64,15.64,0,0,1,.14-2.07.54.54,0,0,1,1.08.14,15.26,15.26,0,0,0-.13,1.93,18.61,18.61,0,0,0,.15,2.19.56.56,0,0,1-.48.61Zm1.23-8.32a.54.54,0,0,1-.25-.06.54.54,0,0,1-.24-.73,13.51,13.51,0,0,1,2.61-3.57.56.56,0,0,1,.78,0,.55.55,0,0,1,0,.78,12.82,12.82,0,0,0-2.41,3.28A.53.53,0,0,1,147.33,54.22Zm5.83-6.1a.53.53,0,0,1-.45-.24.55.55,0,0,1,.14-.76c.88-.59,1.77-1.15,2.64-1.68l1-.62a.55.55,0,0,1,.58.93l-1,.62c-.85.53-1.74,1.08-2.59,1.66A.59.59,0,0,1,153.16,48.12Zm7.08-4.77a.55.55,0,0,1-.41-.18.54.54,0,0,1,0-.77,8.07,8.07,0,0,0,2.34-3.19.56.56,0,0,1,.71-.32.55.55,0,0,1,.31.71,9,9,0,0,1-2.64,3.62A.53.53,0,0,1,160.24,43.35Z"/><path class="cls-21" d="M163.05,35.67a.54.54,0,0,1-.54-.45,13.8,13.8,0,0,0-.49-2,.56.56,0,0,1,.35-.69.55.55,0,0,1,.69.36,14.27,14.27,0,0,1,.53,2.12.55.55,0,0,1-.45.63Z"/><path class="cls-21" d="M161.27,29.11l.1,2.9a1.15,1.15,0,0,1-.8,1.15l-4.33,1.4a.46.46,0,0,1-.6-.46l.93-15a.46.46,0,0,1,.78-.3l10.86,11a.45.45,0,0,1-.17.75l-3.22,1.11a1.16,1.16,0,0,1-1.19-.26Z"/><path class="cls-20" d="M63.11,49.35h0a1.38,1.38,0,0,1-1.89-.46l-3.5-5.77,2.36-1.43,3.5,5.76A1.39,1.39,0,0,1,63.11,49.35Z"/><path class="cls-21" d="M61.63,35.34a6,6,0,1,0-2,8.25A6,6,0,0,0,61.63,35.34Zm-3,6.62A4.1,4.1,0,1,1,60,36.32,4.1,4.1,0,0,1,58.62,42Z"/><path class="cls-19" d="M42.28,15.77v14.8a1.73,1.73,0,0,1-1.74,1.74H21.11a1.73,1.73,0,0,1-1.74-1.74V15.77A1.74,1.74,0,0,1,21.11,14H40.54A1.73,1.73,0,0,1,42.28,15.77Z"/><path class="cls-21" d="M42.28,26.27v4.3a1.73,1.73,0,0,1-1.74,1.74H21.11a1.73,1.73,0,0,1-1.74-1.74V26.52s4.9-7,7.93-7c3.53,0,5.89,8,7.67,8s2.24-3.3,4.55-3.3A3.68,3.68,0,0,1,42.28,26.27Z"/><path class="cls-20" d="M39,19.83a2.34,2.34,0,1,1-2.34-2.33A2.34,2.34,0,0,1,39,19.83Z"/></g></g></svg>