<svg xmlns="http://www.w3.org/2000/svg" xmlns:xlink="http://www.w3.org/1999/xlink" viewBox="0 0 250 199.32"><defs><style>.cls-1,.cls-17{fill:none;}.cls-2{isolation:isolate;}.cls-3{fill:#e4ebf7;}.cls-4{fill:#fff;}.cls-5{fill:#c3cddd;}.cls-6{fill:#fff19c;}.cls-7{fill:#70b2dd;}.cls-8{fill:#abdaf7;}.cls-9{fill:#cae9f9;}.cls-10{fill:#4e8fb7;}.cls-11{fill:#404347;}.cls-12{fill:#525559;}.cls-13{fill:#707377;}.cls-14{fill:url(#linear-gradient);}.cls-15{fill:url(#linear-gradient-2);}.cls-16{fill:#90c6e0;}.cls-17{stroke:#90c6e0;stroke-miterlimit:10;}.cls-18{clip-path:url(#clip-path);}.cls-19{fill:#9eb2ef;}.cls-20{fill:#1b3151;}.cls-21{fill:#23406d;}.cls-22{fill:url(#linear-gradient-3);}.cls-23{fill:#feb19e;}.cls-24,.cls-26{fill:#3150bc;}.cls-25{fill:url(#linear-gradient-4);}.cls-26{opacity:0.3;mix-blend-mode:multiply;}</style><linearGradient id="linear-gradient" x1="79.87" y1="81.82" x2="119.04" y2="81.82" gradientUnits="userSpaceOnUse"><stop offset="0" stop-color="#f79239"/><stop offset="1" stop-color="#f7c759"/></linearGradient><linearGradient id="linear-gradient-2" x1="98.55" y1="73.71" x2="107.33" y2="73.71" xlink:href="#linear-gradient"/><clipPath id="clip-path"><path class="cls-1" d="M50.7,162.81l-.43,2.88L47,187.42l-.15,1a2.33,2.33,0,0,1-2.29,2H29.89a2.33,2.33,0,0,1-2.28-2l-.16-1-3.59-21.73-.47-2.84a2.32,2.32,0,0,1,2.29-2.71H48.4A2.33,2.33,0,0,1,50.7,162.81Z"/></clipPath><linearGradient id="linear-gradient-3" x1="119.71" y1="58.42" x2="115.05" y2="33.58" gradientUnits="userSpaceOnUse"><stop offset="0" stop-color="#3f2323"/><stop offset="1" stop-color="#5e3434"/></linearGradient><linearGradient id="linear-gradient-4" x1="124.36" y1="116.55" x2="111.7" y2="73.55" gradientUnits="userSpaceOnUse"><stop offset="0" stop-color="#3855e1"/><stop offset="1" stop-color="#5c7ef7"/></linearGradient></defs><g class="cls-2"><g id="Layer_2" data-name="Layer 2"><g id="OBJECTS"><path class="cls-3" d="M236.46,102.69a36.32,36.32,0,0,1-.84,4.88q-.1.5-.24,1a43.08,43.08,0,0,1-7.73,15.17l-.64.81c-24.91,30.89-93.34,44.69-148.72,21.61l-1.53-.65a133.46,133.46,0,0,1-13.59-6.79C41.88,126.48,28,109.78,20.81,92.2a0,0,0,0,1,0,0c-.36-.89-.7-1.78-1-2.68C8.55,59.13,17,26.67,41.23,10.36q.42-.3.87-.57A61.67,61.67,0,0,1,63.17,1.25C65,.87,66.73.59,68.47.39c.33,0,.66-.08,1-.11,25.74-2.6,44.82,13,60.41,29.54l.7.74c5.3,5.64,10.18,11.37,14.8,16.47l.67.75c10.62,11.66,19.79,19.86,29.1,16C209.28,49.77,241,58.54,236.46,102.69Z"/><path class="cls-3" d="M175.14,19.18c-11.6-15.66-29,1.34-18.59,16.67S203.28,57.18,175.14,19.18Z"/><path class="cls-4" d="M235.62,107.57q-.1.5-.24,1c-22.06-7.35-60.16-11.76-123,1.82-39.32,8.48-69.14,3.37-88.62-15.2-1-1-2-2-2.92-3a0,0,0,0,1,0,0c-.36-.89-.7-1.78-1-2.68a63.55,63.55,0,0,0,4.65,4.94c19.23,18.33,48.74,23.36,87.71,15C175.11,95.81,213.39,100.21,235.62,107.57Z"/><path class="cls-4" d="M227.65,123.73l-.64.81c-21.21-10.29-52.79-15.8-94.69,2.75a325.17,325.17,0,0,1-54,18.86l-1.53-.65a321.77,321.77,0,0,0,55.16-19.12C174.28,107.61,206.23,113.27,227.65,123.73Z"/><path class="cls-4" d="M146,47.78c-8.62,8.47-20.75,15.47-37.79,18.11a63.91,63.91,0,0,1-9.6.76,48.07,48.07,0,0,1-30.27-10.2c-14.93-11.61-23-31.1-27.15-46.09q.42-.3.87-.57C46.22,24.67,54.16,44.13,69,55.66c10.89,8.46,24,11.57,39.11,9.24,16.82-2.61,28.77-9.52,37.27-17.87Z"/><path class="cls-4" d="M130.57,30.56c-6.6,9.26-16.26,17-30.18,17.34h-.64A22.27,22.27,0,0,1,83.43,41c-9.11-9.2-13.17-26.17-15-40.56.33,0,.66-.08,1-.11,1.76,14.23,5.74,31,14.68,40a21.41,21.41,0,0,0,16.22,6.65c13.61-.35,23.06-8,29.51-17.08Z"/><ellipse class="cls-3" cx="125" cy="190.42" rx="125" ry="5.4"/><ellipse class="cls-5" cx="41.2" cy="189.39" rx="20.14" ry="1.97"/><ellipse class="cls-5" cx="122.41" cy="190.61" rx="70.91" ry="2.91"/><path class="cls-5" d="M233,190.35c0,1-9.56,1.83-21.35,1.83s-21.36-.82-21.36-1.83,9.56-1.83,21.36-1.83S233,189.34,233,190.35Z"/><path class="cls-6" d="M150,58.7s1.55,2-6.12,1.32-9.66.09-12,3.79-6.94,5.22-9.13,2.63-.43,0-.43,0L135,88.19s12.92,4.08,13.75-3.59,2.75-9.66,5.08-11.16A8.44,8.44,0,0,0,157,69.77S156.74,62.2,150,58.7Z"/><path class="cls-7" d="M160.25,57.56l1.24-.61a2.29,2.29,0,0,1,2.93.81h0a2,2,0,0,1-.69,2.75l-.89.55Z"/><path class="cls-8" d="M150,58.7l4-2a6.23,6.23,0,0,1,8,2.23h0a6.23,6.23,0,0,1-1.57,8.35l-3.89,2.86Z"/><path class="cls-9" d="M156.55,70.11c-.84.48-3-1.68-4.82-4.83s-2.61-6.11-1.78-6.59,2.56,1.26,4.25,3.9c.19.3.38.61.57.94s.5.89.72,1.33C156.78,67.47,157.26,69.7,156.55,70.11Z"/><path class="cls-7" d="M155.49,64.86a1.36,1.36,0,0,1-1.08.52,1.4,1.4,0,0,1-.21-2.79c.19.3.38.61.57.94S155.27,64.42,155.49,64.86Z"/><path class="cls-10" d="M169,97.77l-1.4,0s.06-1.9,0-4.78v-.27c-.07-3.13-.24-10.45,6.58-13.93,2.53-1.29,4.29-4.43,4.68-8.39.48-4.67-1-9.22-3.61-11.31-5.06-4-10.6-.72-10.65-.69l-.73-1.19c.06,0,6.44-3.84,12.25.78,3,2.38,4.65,7.42,4.14,12.55-.46,4.51-2.44,8-5.45,9.5-6,3.07-5.88,9.54-5.81,12.65v.27C169,95.85,169,97.75,169,97.77Z"/><path class="cls-10" d="M176.75,103.64,169.12,98A1.82,1.82,0,0,0,167,98l-8,5.62Z"/><path class="cls-11" d="M69.71,73.79l-6.79,26.29a2.82,2.82,0,0,0,2.67,3.56H84.13Z"/><path class="cls-12" d="M77.82,101.34,69,71.21A3.2,3.2,0,0,1,72,67.1h46.42a3.21,3.21,0,0,1,3.08,2.34L130,99.56a3.21,3.21,0,0,1-3.09,4.08h-46A3.2,3.2,0,0,1,77.82,101.34Z"/><path class="cls-13" d="M80.71,101.34,71.86,71.21a3.2,3.2,0,0,1,3.07-4.11h46.41a3.21,3.21,0,0,1,3.09,2.34l8.48,30.12a3.22,3.22,0,0,1-3.09,4.08h-46A3.22,3.22,0,0,1,80.71,101.34Z"/><path class="cls-4" d="M128.91,99.64H89.19A2.25,2.25,0,0,1,87,98L81.66,79.78,80,74a2.25,2.25,0,0,1,2.16-2.89h40a2.25,2.25,0,0,1,2.17,1.64l6.76,24A2.25,2.25,0,0,1,128.91,99.64Z"/><path class="cls-14" d="M119,86.44V90s-5.12-2.5-12.71.84-13.75,2.08-18.25-7.17a6.57,6.57,0,0,0-6.42-3.91L80,74a2.25,2.25,0,0,1,2.16-2.89h9.3a15.84,15.84,0,0,1,3.33,4.58c4.33,8.92,5.83,11.25,13.08,10.08S119,86.44,119,86.44Z"/><path class="cls-15" d="M107.33,71.92a4.39,4.39,0,1,1-8.78,0,4.28,4.28,0,0,1,.08-.81h8.62A4.28,4.28,0,0,1,107.33,71.92Z"/><path class="cls-12" d="M79.39,79.62H76.53a.57.57,0,0,1-.54-.38L75.57,78a.57.57,0,0,1,.54-.75H79a.57.57,0,0,1,.54.38l.42,1.24A.56.56,0,0,1,79.39,79.62Z"/><path class="cls-12" d="M80.61,84.5H77.75a.55.55,0,0,1-.53-.38l-.43-1.25a.57.57,0,0,1,.54-.75h2.85a.57.57,0,0,1,.54.39l.43,1.24A.57.57,0,0,1,80.61,84.5Z"/><path class="cls-12" d="M81.89,89.38H79A.57.57,0,0,1,78.5,89l-.43-1.24a.57.57,0,0,1,.54-.75h2.86a.56.56,0,0,1,.53.38l.43,1.25A.57.57,0,0,1,81.89,89.38Z"/><path class="cls-16" d="M52.5,191.35a1,1,0,0,1,0-2,4,4,0,0,0,4-3.72l4.69-70.39a1,1,0,0,1,2,.13l-4.7,70.39A6,6,0,0,1,52.5,191.35Z"/><path class="cls-16" d="M78.31,191.35a1,1,0,0,0,0-2,4,4,0,0,1-4-3.72l-4.69-70.39a1,1,0,0,0-2,.13l4.69,70.39A6,6,0,0,0,78.31,191.35Z"/><path class="cls-16" d="M160,191.35a1,1,0,0,1,0-2,4,4,0,0,0,4-3.72l4.69-70.39a1,1,0,0,1,2,.13L166,185.76A6,6,0,0,1,160,191.35Z"/><path class="cls-16" d="M185.81,191.35a1,1,0,0,0,0-2,4,4,0,0,1-4-3.72l-4.69-70.39a1,1,0,0,0-2,.13l4.69,70.39A6,6,0,0,0,185.81,191.35Z"/><rect class="cls-8" x="49" y="103.64" width="138.63" height="3.05"/><rect class="cls-7" x="79.43" y="103.64" width="108.2" height="3.05"/><path class="cls-7" d="M184.88,106.69v3.69a8.45,8.45,0,0,1-8.45,8.44H60.94a8.44,8.44,0,0,1-8.44-8.44v-3.69Z"/><path class="cls-10" d="M184.88,106.69v3.69a8.18,8.18,0,0,1-7.88,8.44H77.75V106.69Z"/><path class="cls-17" d="M23.39,162.84l4.22,25.57a2.32,2.32,0,0,0,2.29,1.94H44.56a2.31,2.31,0,0,0,2.29-2l3.85-25.57a2.32,2.32,0,0,0-2.29-2.66H25.68A2.32,2.32,0,0,0,23.39,162.84Z"/><g class="cls-18"><rect class="cls-16" x="5.74" y="159.82" width="37.09" height="1.03" transform="translate(-106.26 64.14) rotate(-45)"/><rect class="cls-16" x="8.58" y="162.66" width="37.09" height="1.02" transform="translate(-107.43 66.97) rotate(-45)"/><rect class="cls-16" x="11.41" y="165.49" width="37.09" height="1.03" transform="translate(-108.61 69.8) rotate(-45)"/><rect class="cls-16" x="14.24" y="168.32" width="37.09" height="1.02" transform="translate(-109.78 72.64) rotate(-45)"/><rect class="cls-16" x="17.08" y="171.15" width="37.09" height="1.03" transform="translate(-110.95 75.47) rotate(-45)"/><rect class="cls-16" x="19.91" y="173.99" width="37.09" height="1.02" transform="translate(-112.13 78.3) rotate(-45)"/><rect class="cls-16" x="22.74" y="176.82" width="37.09" height="1.03" transform="translate(-113.3 81.14) rotate(-45)"/><rect class="cls-16" x="25.58" y="179.66" width="37.09" height="1.03" transform="translate(-114.48 83.97) rotate(-45)"/><rect class="cls-16" x="28.41" y="182.49" width="37.09" height="1.03" transform="translate(-115.65 86.81) rotate(-45)"/><rect class="cls-16" x="31.25" y="185.33" width="37.09" height="1.03" transform="translate(-116.82 89.64) rotate(-45)"/><rect class="cls-16" x="49.29" y="141.78" width="1.02" height="37.1" transform="translate(-98.79 82.18) rotate(-45)"/><rect class="cls-16" x="46.45" y="144.62" width="1.03" height="37.1" transform="translate(-101.62 81) rotate(-45)"/><rect class="cls-16" x="43.62" y="147.45" width="1.02" height="37.1" transform="translate(-104.46 79.82) rotate(-45)"/><rect class="cls-16" x="40.78" y="150.28" width="1.03" height="37.1" transform="translate(-107.29 78.65) rotate(-45)"/><rect class="cls-16" x="37.94" y="153.12" width="1.03" height="37.1" transform="translate(-110.12 77.47) rotate(-45)"/><rect class="cls-16" x="35.11" y="155.95" width="1.03" height="37.1" transform="translate(-112.96 76.3) rotate(-45)"/><rect class="cls-16" x="32.28" y="158.79" width="1.03" height="37.1" transform="translate(-115.79 75.13) rotate(-45)"/><rect class="cls-16" x="29.45" y="161.62" width="1.02" height="37.1" transform="translate(-118.63 73.95) rotate(-45)"/><rect class="cls-16" x="26.61" y="164.46" width="1.03" height="37.1" transform="translate(-121.45 72.77) rotate(-45)"/><rect class="cls-16" x="23.78" y="167.29" width="1.02" height="37.1" transform="translate(-124.3 71.61) rotate(-45)"/></g><path class="cls-16" d="M50.7,162.81l-.43,2.88H23.86l-.47-2.84a2.32,2.32,0,0,1,2.29-2.71H48.4A2.33,2.33,0,0,1,50.7,162.81Z"/><path class="cls-16" d="M47,187.42l-.15,1a2.33,2.33,0,0,1-2.29,2H29.89a2.33,2.33,0,0,1-2.28-2l-.16-1Z"/><path class="cls-8" d="M219.5,118.82l-8.57,12.31-1.43,2.06-7.83-15.33a33.77,33.77,0,0,1,8.5-22.08c8.66-9.54,7.42-16.54,7.33-17.06C218,79.51,227.31,95.55,219.5,118.82Z"/><path class="cls-16" d="M219.5,118.82l-8.57,12.31c-.16-2.6.62-8.35,5.57-20.77,6.32-15.8,2.9-27.23,1-31.64C218,79.51,227.31,95.55,219.5,118.82Z"/><path class="cls-16" d="M214.33,135.19l-1.33,9H200.67s-9.17-6-6.34-20.75c2.78-14.4-.84-20.47-1-20.74l.09,0C209.69,109.14,213.83,134.69,214.33,135.19Z"/><path class="cls-7" d="M214.33,135.19l-1.33,9s-4.37,0-7-18.5c-2.45-17.34-11.45-22.38-12.58-23C209.69,109.14,213.83,134.69,214.33,135.19Z"/><path class="cls-16" d="M224.89,144.19s0,3.33-.29,8.64c-.5,9-1.85,23.77-5.49,37.53h-18c-3.64-13.76-5-28.5-5.49-37.53-.29-5.31-.29-8.64-.29-8.64Z"/><path class="cls-7" d="M224.89,144.19s0,3.33-.29,8.64h-29c-.29-5.31-.29-8.64-.29-8.64Z"/><path class="cls-7" d="M238.75,119.44l-.08,0-.1,0c-1,.18-5.48,1-9.08,1.3h-.09a9.12,9.12,0,0,1-4.1-.61c-3.53,8.88.12,16.43-4.67,24h-12s-4.25-22.25,8.86-27.87a12,12,0,0,1,3.14-1c13.35-1.87,15,4.1,18.11,4.13Z"/><path class="cls-16" d="M238.74,119.44l-.07,0-.1,0a37.48,37.48,0,0,1-9.08,1.3h-.09c-4.38,0-8.7-2.23-11.91-4.46a9.34,9.34,0,0,1,3.14-1C234,113.44,235.61,119.41,238.74,119.44Z"/><path class="cls-19" d="M143,190.35s-2.59-9.41-.52-12l11-.37s1.58,2.83,1.67,12.41Z"/><polygon class="cls-20" points="131.18 138.49 139.63 178.31 156 178.31 150 135.18 131.18 138.49"/><path class="cls-19" d="M114.43,179.69a22.61,22.61,0,0,1,.65,10.66H92.75c-1.19,0-.49-2.24,1.5-3.91,2.88-2.43,7.8-4.78,8.12-6.75Z"/><path class="cls-21" d="M115,137.22l.88,42.47H100.62s-5.5-38.5-4.5-48.12,15.26-16.26,15.26-16.26l14.24,13.38L115,137.19Z"/><path class="cls-20" d="M115.88,179.69H102.37c-.77-6.17-3.05-25.93-1.37-34.62,2-10.38,12.52-9.88,12.52-9.88l1.48,2Z"/><path class="cls-22" d="M129.19,57.29a2.77,2.77,0,0,0,.71-3.62s2.2-6,1-10.62-4-3.78-4-3.78.55-3.31-3.39-5.51-11.33.16-14.48,2-4.09-1.81-5.19-1.18-1.1,4.32,2.28,6.06c0,0-3.38-2.21-3.7-.56s.55,6.62,6.69,9.06l6.3,12.82L126,60.75S130.21,61.38,129.19,57.29Z"/><path class="cls-23" d="M108.18,45.64s.15,20.87,7.55,17.36l1.5,2.4,12.67-2.25-.71-5.86s-1.88,2.29-7.56,2.2c-5.11-.08-5-4.59-5-4.59s3.06-.71,1.57-4.25-4.57-2-3.39,2.76c0,0-3.24-1.24-2.45-6.11C112.35,47.3,109.51,47.14,108.18,45.64Z"/><path class="cls-24" d="M135.77,64s6.06-.82,11.56,6.34S162.83,97.1,149,96.77,135.77,64,135.77,64Z"/><path class="cls-19" d="M117,67.1l.15-2a3.59,3.59,0,0,1,2.8-3.25,44,44,0,0,1,9.31-1.12A3.63,3.63,0,0,1,132.69,63l.81,2.16Z"/><path class="cls-25" d="M153.25,105.69s-7.5,16.27-21.13,21.15-20.74-11.53-20.74-11.53l4.51-3.55-1-6.92L114,99.17l-.41-2.8-.09.15a39.68,39.68,0,0,1-5.45,7.12c-2.77,2.79-6.25,5.08-9.69,4-3.17-1-6.35-4.29-8.95-7.82a71.38,71.38,0,0,1-6.05-10c-2.19-1.07-4.38-6-3.88-8.88s3.69-3.75,3.69-3.75l3.5,2.44s2-1.62,3.06.38.5,6.29.5,6.29l3.9,2.16,4.68,2.59s2.21-11.17,7.29-18.42,11.56-7.5,17.21-8.17c17-2,18.4-.12,23.65,11.47l.14.32C152.5,88.19,153.25,105.69,153.25,105.69Z"/><path class="cls-26" d="M153.25,105.69s-7.5,16.27-21.13,21.15-20.74-11.53-20.74-11.53l4.51-3.55-1-6.92c2.88-3.1,8.36-7.55,18.64-12.3S146.52,81.2,147,76l.14.32C152.5,88.19,153.25,105.69,153.25,105.69Z"/><path class="cls-26" d="M113.52,96.52a39.68,39.68,0,0,1-5.45,7.12c-3.35-9.9,2.22-24.33,2.22-24.33Z"/><path class="cls-23" d="M89.43,99.87a71.38,71.38,0,0,1-6.05-10c-2.19-1.07-4.38-6-3.88-8.88s3.69-3.75,3.69-3.75l3.5,2.44s2-1.62,3.06.38.5,6.29.5,6.29l3.9,2.16C92,90.85,88.81,95.24,89.43,99.87Z"/><path class="cls-12" d="M86.69,79.69l-6.3-10.23a.83.83,0,0,0-1.15-.28h0A.84.84,0,0,0,79,70.35l6.66,10.27S86.63,80.44,86.69,79.69Z"/><path class="cls-19" d="M94.15,88.52s-4.4,2.92-5,12c0,0,1.87,4.25,2.81,4.62S95.1,93.84,98.55,91Z"/><polygon class="cls-10" points="106.13 138.72 97.83 190.35 101.98 190.35 111.83 138.79 106.13 138.72"/><polygon class="cls-16" points="113.52 138.72 119.5 190.35 123.33 190.35 118.43 138.72 113.52 138.72"/><polygon class="cls-16" points="147.71 138.72 156 190.35 151.85 190.35 142 138.79 147.71 138.72"/><polygon class="cls-10" points="140.31 138.72 134.33 190.35 130.5 190.35 135.41 138.72 140.31 138.72"/><path class="cls-8" d="M105.5,140.63s1-4.95,3.28-5.63,8.73-.51,10.36-2.89,10.49-30.61,14.78-33.71,31.58-1.56,31.58-1.56l-10.41,37.38a9.34,9.34,0,0,1-9.06,7Z"/></g></g></g></svg><svg xmlns="http://www.w3.org/2000/svg" xmlns:xlink="http://www.w3.org/1999/xlink" viewBox="0 0 250 199.32"><defs><style>.cls-1,.cls-17{fill:none;}.cls-2{isolation:isolate;}.cls-3{fill:#e4ebf7;}.cls-4{fill:#fff;}.cls-5{fill:#c3cddd;}.cls-6{fill:#fff19c;}.cls-7{fill:#70b2dd;}.cls-8{fill:#abdaf7;}.cls-9{fill:#cae9f9;}.cls-10{fill:#4e8fb7;}.cls-11{fill:#404347;}.cls-12{fill:#525559;}.cls-13{fill:#707377;}.cls-14{fill:url(#linear-gradient);}.cls-15{fill:url(#linear-gradient-2);}.cls-16{fill:#90c6e0;}.cls-17{stroke:#90c6e0;stroke-miterlimit:10;}.cls-18{clip-path:url(#clip-path);}.cls-19{fill:#9eb2ef;}.cls-20{fill:#1b3151;}.cls-21{fill:#23406d;}.cls-22{fill:url(#linear-gradient-3);}.cls-23{fill:#feb19e;}.cls-24,.cls-26{fill:#3150bc;}.cls-25{fill:url(#linear-gradient-4);}.cls-26{opacity:0.3;mix-blend-mode:multiply;}</style><linearGradient id="linear-gradient" x1="79.87" y1="81.82" x2="119.04" y2="81.82" gradientUnits="userSpaceOnUse"><stop offset="0" stop-color="#f79239"/><stop offset="1" stop-color="#f7c759"/></linearGradient><linearGradient id="linear-gradient-2" x1="98.55" y1="73.71" x2="107.33" y2="73.71" xlink:href="#linear-gradient"/><clipPath id="clip-path"><path class="cls-1" d="M50.7,162.81l-.43,2.88L47,187.42l-.15,1a2.33,2.33,0,0,1-2.29,2H29.89a2.33,2.33,0,0,1-2.28-2l-.16-1-3.59-21.73-.47-2.84a2.32,2.32,0,0,1,2.29-2.71H48.4A2.33,2.33,0,0,1,50.7,162.81Z" style="fill:none;" /></clipPath><linearGradient id="linear-gradient-3" x1="119.71" y1="58.42" x2="115.05" y2="33.58" gradientUnits="userSpaceOnUse"><stop offset="0" stop-color="#3f2323"/><stop offset="1" stop-color="#5e3434"/></linearGradient><linearGradient id="linear-gradient-4" x1="124.36" y1="116.55" x2="111.7" y2="73.55" gradientUnits="userSpaceOnUse"><stop offset="0" stop-color="#3855e1"/><stop offset="1" stop-color="#5c7ef7"/></linearGradient></defs><g class="cls-2" style="isolation:isolate;" ><g id="Layer_2" data-name="Layer 2"><g id="OBJECTS"><path class="cls-3" d="M236.46,102.69a36.32,36.32,0,0,1-.84,4.88q-.1.5-.24,1a43.08,43.08,0,0,1-7.73,15.17l-.64.81c-24.91,30.89-93.34,44.69-148.72,21.61l-1.53-.65a133.46,133.46,0,0,1-13.59-6.79C41.88,126.48,28,109.78,20.81,92.2a0,0,0,0,1,0,0c-.36-.89-.7-1.78-1-2.68C8.55,59.13,17,26.67,41.23,10.36q.42-.3.87-.57A61.67,61.67,0,0,1,63.17,1.25C65,.87,66.73.59,68.47.39c.33,0,.66-.08,1-.11,25.74-2.6,44.82,13,60.41,29.54l.7.74c5.3,5.64,10.18,11.37,14.8,16.47l.67.75c10.62,11.66,19.79,19.86,29.1,16C209.28,49.77,241,58.54,236.46,102.69Z" style="fill:#e4ebf7;" /><path class="cls-3" d="M175.14,19.18c-11.6-15.66-29,1.34-18.59,16.67S203.28,57.18,175.14,19.18Z" style="fill:#e4ebf7;" /><path class="cls-4" d="M235.62,107.57q-.1.5-.24,1c-22.06-7.35-60.16-11.76-123,1.82-39.32,8.48-69.14,3.37-88.62-15.2-1-1-2-2-2.92-3a0,0,0,0,1,0,0c-.36-.89-.7-1.78-1-2.68a63.55,63.55,0,0,0,4.65,4.94c19.23,18.33,48.74,23.36,87.71,15C175.11,95.81,213.39,100.21,235.62,107.57Z" style="fill:#fff;" /><path class="cls-4" d="M227.65,123.73l-.64.81c-21.21-10.29-52.79-15.8-94.69,2.75a325.17,325.17,0,0,1-54,18.86l-1.53-.65a321.77,321.77,0,0,0,55.16-19.12C174.28,107.61,206.23,113.27,227.65,123.73Z" style="fill:#fff;" /><path class="cls-4" d="M146,47.78c-8.62,8.47-20.75,15.47-37.79,18.11a63.91,63.91,0,0,1-9.6.76,48.07,48.07,0,0,1-30.27-10.2c-14.93-11.61-23-31.1-27.15-46.09q.42-.3.87-.57C46.22,24.67,54.16,44.13,69,55.66c10.89,8.46,24,11.57,39.11,9.24,16.82-2.61,28.77-9.52,37.27-17.87Z" style="fill:#fff;" /><path class="cls-4" d="M130.57,30.56c-6.6,9.26-16.26,17-30.18,17.34h-.64A22.27,22.27,0,0,1,83.43,41c-9.11-9.2-13.17-26.17-15-40.56.33,0,.66-.08,1-.11,1.76,14.23,5.74,31,14.68,40a21.41,21.41,0,0,0,16.22,6.65c13.61-.35,23.06-8,29.51-17.08Z" style="fill:#fff;" /><ellipse class="cls-3" cx="125" cy="190.42" rx="125" ry="5.4" style="fill:#e4ebf7;" /><ellipse class="cls-5" cx="41.2" cy="189.39" rx="20.14" ry="1.97" style="fill:#c3cddd;" /><ellipse class="cls-5" cx="122.41" cy="190.61" rx="70.91" ry="2.91" style="fill:#c3cddd;" /><path class="cls-5" d="M233,190.35c0,1-9.56,1.83-21.35,1.83s-21.36-.82-21.36-1.83,9.56-1.83,21.36-1.83S233,189.34,233,190.35Z" style="fill:#c3cddd;" /><path class="cls-6" d="M150,58.7s1.55,2-6.12,1.32-9.66.09-12,3.79-6.94,5.22-9.13,2.63-.43,0-.43,0L135,88.19s12.92,4.08,13.75-3.59,2.75-9.66,5.08-11.16A8.44,8.44,0,0,0,157,69.77S156.74,62.2,150,58.7Z" style="fill:#fff19c;" /><path class="cls-7" d="M160.25,57.56l1.24-.61a2.29,2.29,0,0,1,2.93.81h0a2,2,0,0,1-.69,2.75l-.89.55Z" style="fill:#70b2dd;" /><path class="cls-8" d="M150,58.7l4-2a6.23,6.23,0,0,1,8,2.23h0a6.23,6.23,0,0,1-1.57,8.35l-3.89,2.86Z" style="fill:#abdaf7;" /><path class="cls-9" d="M156.55,70.11c-.84.48-3-1.68-4.82-4.83s-2.61-6.11-1.78-6.59,2.56,1.26,4.25,3.9c.19.3.38.61.57.94s.5.89.72,1.33C156.78,67.47,157.26,69.7,156.55,70.11Z" style="fill:#cae9f9;" /><path class="cls-7" d="M155.49,64.86a1.36,1.36,0,0,1-1.08.52,1.4,1.4,0,0,1-.21-2.79c.19.3.38.61.57.94S155.27,64.42,155.49,64.86Z" style="fill:#70b2dd;" /><path class="cls-10" d="M169,97.77l-1.4,0s.06-1.9,0-4.78v-.27c-.07-3.13-.24-10.45,6.58-13.93,2.53-1.29,4.29-4.43,4.68-8.39.48-4.67-1-9.22-3.61-11.31-5.06-4-10.6-.72-10.65-.69l-.73-1.19c.06,0,6.44-3.84,12.25.78,3,2.38,4.65,7.42,4.14,12.55-.46,4.51-2.44,8-5.45,9.5-6,3.07-5.88,9.54-5.81,12.65v.27C169,95.85,169,97.75,169,97.77Z" style="fill:#4e8fb7;" /><path class="cls-10" d="M176.75,103.64,169.12,98A1.82,1.82,0,0,0,167,98l-8,5.62Z" style="fill:#4e8fb7;" /><path class="cls-11" d="M69.71,73.79l-6.79,26.29a2.82,2.82,0,0,0,2.67,3.56H84.13Z" style="fill:#404347;" /><path class="cls-12" d="M77.82,101.34,69,71.21A3.2,3.2,0,0,1,72,67.1h46.42a3.21,3.21,0,0,1,3.08,2.34L130,99.56a3.21,3.21,0,0,1-3.09,4.08h-46A3.2,3.2,0,0,1,77.82,101.34Z" style="fill:#525559;" /><path class="cls-13" d="M80.71,101.34,71.86,71.21a3.2,3.2,0,0,1,3.07-4.11h46.41a3.21,3.21,0,0,1,3.09,2.34l8.48,30.12a3.22,3.22,0,0,1-3.09,4.08h-46A3.22,3.22,0,0,1,80.71,101.34Z" style="fill:#707377;" /><path class="cls-4" d="M128.91,99.64H89.19A2.25,2.25,0,0,1,87,98L81.66,79.78,80,74a2.25,2.25,0,0,1,2.16-2.89h40a2.25,2.25,0,0,1,2.17,1.64l6.76,24A2.25,2.25,0,0,1,128.91,99.64Z" style="fill:#fff;" /><path class="cls-14" d="M119,86.44V90s-5.12-2.5-12.71.84-13.75,2.08-18.25-7.17a6.57,6.57,0,0,0-6.42-3.91L80,74a2.25,2.25,0,0,1,2.16-2.89h9.3a15.84,15.84,0,0,1,3.33,4.58c4.33,8.92,5.83,11.25,13.08,10.08S119,86.44,119,86.44Z" style="fill:url(#linear-gradient);" /><path class="cls-15" d="M107.33,71.92a4.39,4.39,0,1,1-8.78,0,4.28,4.28,0,0,1,.08-.81h8.62A4.28,4.28,0,0,1,107.33,71.92Z" style="fill:url(#linear-gradient-2);" /><path class="cls-12" d="M79.39,79.62H76.53a.57.57,0,0,1-.54-.38L75.57,78a.57.57,0,0,1,.54-.75H79a.57.57,0,0,1,.54.38l.42,1.24A.56.56,0,0,1,79.39,79.62Z" style="fill:#525559;" /><path class="cls-12" d="M80.61,84.5H77.75a.55.55,0,0,1-.53-.38l-.43-1.25a.57.57,0,0,1,.54-.75h2.85a.57.57,0,0,1,.54.39l.43,1.24A.57.57,0,0,1,80.61,84.5Z" style="fill:#525559;" /><path class="cls-12" d="M81.89,89.38H79A.57.57,0,0,1,78.5,89l-.43-1.24a.57.57,0,0,1,.54-.75h2.86a.56.56,0,0,1,.53.38l.43,1.25A.57.57,0,0,1,81.89,89.38Z" style="fill:#525559;" /><path class="cls-16" d="M52.5,191.35a1,1,0,0,1,0-2,4,4,0,0,0,4-3.72l4.69-70.39a1,1,0,0,1,2,.13l-4.7,70.39A6,6,0,0,1,52.5,191.35Z" style="fill:#90c6e0;" /><path class="cls-16" d="M78.31,191.35a1,1,0,0,0,0-2,4,4,0,0,1-4-3.72l-4.69-70.39a1,1,0,0,0-2,.13l4.69,70.39A6,6,0,0,0,78.31,191.35Z" style="fill:#90c6e0;" /><path class="cls-16" d="M160,191.35a1,1,0,0,1,0-2,4,4,0,0,0,4-3.72l4.69-70.39a1,1,0,0,1,2,.13L166,185.76A6,6,0,0,1,160,191.35Z" style="fill:#90c6e0;" /><path class="cls-16" d="M185.81,191.35a1,1,0,0,0,0-2,4,4,0,0,1-4-3.72l-4.69-70.39a1,1,0,0,0-2,.13l4.69,70.39A6,6,0,0,0,185.81,191.35Z" style="fill:#90c6e0;" /><rect class="cls-8" x="49" y="103.64" width="138.63" height="3.05" style="fill:#abdaf7;" /><rect class="cls-7" x="79.43" y="103.64" width="108.2" height="3.05" style="fill:#70b2dd;" /><path class="cls-7" d="M184.88,106.69v3.69a8.45,8.45,0,0,1-8.45,8.44H60.94a8.44,8.44,0,0,1-8.44-8.44v-3.69Z" style="fill:#70b2dd;" /><path class="cls-10" d="M184.88,106.69v3.69a8.18,8.18,0,0,1-7.88,8.44H77.75V106.69Z" style="fill:#4e8fb7;" /><path class="cls-17" d="M23.39,162.84l4.22,25.57a2.32,2.32,0,0,0,2.29,1.94H44.56a2.31,2.31,0,0,0,2.29-2l3.85-25.57a2.32,2.32,0,0,0-2.29-2.66H25.68A2.32,2.32,0,0,0,23.39,162.84Z" style="fill:none;stroke:#90c6e0;stroke-miterlimit:10;" /><g class="cls-18" style="clip-path:url(#clip-path);" ><rect class="cls-16" x="5.74" y="159.82" width="37.09" height="1.03" transform="translate(-106.26 64.14) rotate(-45)" style="fill:#90c6e0;" /><rect class="cls-16" x="8.58" y="162.66" width="37.09" height="1.02" transform="translate(-107.43 66.97) rotate(-45)" style="fill:#90c6e0;" /><rect class="cls-16" x="11.41" y="165.49" width="37.09" height="1.03" transform="translate(-108.61 69.8) rotate(-45)" style="fill:#90c6e0;" /><rect class="cls-16" x="14.24" y="168.32" width="37.09" height="1.02" transform="translate(-109.78 72.64) rotate(-45)" style="fill:#90c6e0;" /><rect class="cls-16" x="17.08" y="171.15" width="37.09" height="1.03" transform="translate(-110.95 75.47) rotate(-45)" style="fill:#90c6e0;" /><rect class="cls-16" x="19.91" y="173.99" width="37.09" height="1.02" transform="translate(-112.13 78.3) rotate(-45)" style="fill:#90c6e0;" /><rect class="cls-16" x="22.74" y="176.82" width="37.09" height="1.03" transform="translate(-113.3 81.14) rotate(-45)" style="fill:#90c6e0;" /><rect class="cls-16" x="25.58" y="179.66" width="37.09" height="1.03" transform="translate(-114.48 83.97) rotate(-45)" style="fill:#90c6e0;" /><rect class="cls-16" x="28.41" y="182.49" width="37.09" height="1.03" transform="translate(-115.65 86.81) rotate(-45)" style="fill:#90c6e0;" /><rect class="cls-16" x="31.25" y="185.33" width="37.09" height="1.03" transform="translate(-116.82 89.64) rotate(-45)" style="fill:#90c6e0;" /><rect class="cls-16" x="49.29" y="141.78" width="1.02" height="37.1" transform="translate(-98.79 82.18) rotate(-45)" style="fill:#90c6e0;" /><rect class="cls-16" x="46.45" y="144.62" width="1.03" height="37.1" transform="translate(-101.62 81) rotate(-45)" style="fill:#90c6e0;" /><rect class="cls-16" x="43.62" y="147.45" width="1.02" height="37.1" transform="translate(-104.46 79.82) rotate(-45)" style="fill:#90c6e0;" /><rect class="cls-16" x="40.78" y="150.28" width="1.03" height="37.1" transform="translate(-107.29 78.65) rotate(-45)" style="fill:#90c6e0;" /><rect class="cls-16" x="37.94" y="153.12" width="1.03" height="37.1" transform="translate(-110.12 77.47) rotate(-45)" style="fill:#90c6e0;" /><rect class="cls-16" x="35.11" y="155.95" width="1.03" height="37.1" transform="translate(-112.96 76.3) rotate(-45)" style="fill:#90c6e0;" /><rect class="cls-16" x="32.28" y="158.79" width="1.03" height="37.1" transform="translate(-115.79 75.13) rotate(-45)" style="fill:#90c6e0;" /><rect class="cls-16" x="29.45" y="161.62" width="1.02" height="37.1" transform="translate(-118.63 73.95) rotate(-45)" style="fill:#90c6e0;" /><rect class="cls-16" x="26.61" y="164.46" width="1.03" height="37.1" transform="translate(-121.45 72.77) rotate(-45)" style="fill:#90c6e0;" /><rect class="cls-16" x="23.78" y="167.29" width="1.02" height="37.1" transform="translate(-124.3 71.61) rotate(-45)" style="fill:#90c6e0;" /></g><path class="cls-16" d="M50.7,162.81l-.43,2.88H23.86l-.47-2.84a2.32,2.32,0,0,1,2.29-2.71H48.4A2.33,2.33,0,0,1,50.7,162.81Z" style="fill:#90c6e0;" /><path class="cls-16" d="M47,187.42l-.15,1a2.33,2.33,0,0,1-2.29,2H29.89a2.33,2.33,0,0,1-2.28-2l-.16-1Z" style="fill:#90c6e0;" /><path class="cls-8" d="M219.5,118.82l-8.57,12.31-1.43,2.06-7.83-15.33a33.77,33.77,0,0,1,8.5-22.08c8.66-9.54,7.42-16.54,7.33-17.06C218,79.51,227.31,95.55,219.5,118.82Z" style="fill:#abdaf7;" /><path class="cls-16" d="M219.5,118.82l-8.57,12.31c-.16-2.6.62-8.35,5.57-20.77,6.32-15.8,2.9-27.23,1-31.64C218,79.51,227.31,95.55,219.5,118.82Z" style="fill:#90c6e0;" /><path class="cls-16" d="M214.33,135.19l-1.33,9H200.67s-9.17-6-6.34-20.75c2.78-14.4-.84-20.47-1-20.74l.09,0C209.69,109.14,213.83,134.69,214.33,135.19Z" style="fill:#90c6e0;" /><path class="cls-7" d="M214.33,135.19l-1.33,9s-4.37,0-7-18.5c-2.45-17.34-11.45-22.38-12.58-23C209.69,109.14,213.83,134.69,214.33,135.19Z" style="fill:#70b2dd;" /><path class="cls-16" d="M224.89,144.19s0,3.33-.29,8.64c-.5,9-1.85,23.77-5.49,37.53h-18c-3.64-13.76-5-28.5-5.49-37.53-.29-5.31-.29-8.64-.29-8.64Z" style="fill:#90c6e0;" /><path class="cls-7" d="M224.89,144.19s0,3.33-.29,8.64h-29c-.29-5.31-.29-8.64-.29-8.64Z" style="fill:#70b2dd;" /><path class="cls-7" d="M238.75,119.44l-.08,0-.1,0c-1,.18-5.48,1-9.08,1.3h-.09a9.12,9.12,0,0,1-4.1-.61c-3.53,8.88.12,16.43-4.67,24h-12s-4.25-22.25,8.86-27.87a12,12,0,0,1,3.14-1c13.35-1.87,15,4.1,18.11,4.13Z" style="fill:#70b2dd;" /><path class="cls-16" d="M238.74,119.44l-.07,0-.1,0a37.48,37.48,0,0,1-9.08,1.3h-.09c-4.38,0-8.7-2.23-11.91-4.46a9.34,9.34,0,0,1,3.14-1C234,113.44,235.61,119.41,238.74,119.44Z" style="fill:#90c6e0;" /><path class="cls-19" d="M143,190.35s-2.59-9.41-.52-12l11-.37s1.58,2.83,1.67,12.41Z" style="fill:#9eb2ef;" /><polygon class="cls-20" points="131.18 138.49 139.63 178.31 156 178.31 150 135.18 131.18 138.49" style="fill:#1b3151;" /><path class="cls-19" d="M114.43,179.69a22.61,22.61,0,0,1,.65,10.66H92.75c-1.19,0-.49-2.24,1.5-3.91,2.88-2.43,7.8-4.78,8.12-6.75Z" style="fill:#9eb2ef;" /><path class="cls-21" d="M115,137.22l.88,42.47H100.62s-5.5-38.5-4.5-48.12,15.26-16.26,15.26-16.26l14.24,13.38L115,137.19Z" style="fill:#23406d;" /><path class="cls-20" d="M115.88,179.69H102.37c-.77-6.17-3.05-25.93-1.37-34.62,2-10.38,12.52-9.88,12.52-9.88l1.48,2Z" style="fill:#1b3151;" /><path class="cls-22" d="M129.19,57.29a2.77,2.77,0,0,0,.71-3.62s2.2-6,1-10.62-4-3.78-4-3.78.55-3.31-3.39-5.51-11.33.16-14.48,2-4.09-1.81-5.19-1.18-1.1,4.32,2.28,6.06c0,0-3.38-2.21-3.7-.56s.55,6.62,6.69,9.06l6.3,12.82L126,60.75S130.21,61.38,129.19,57.29Z" style="fill:url(#linear-gradient-3);" /><path class="cls-23" d="M108.18,45.64s.15,20.87,7.55,17.36l1.5,2.4,12.67-2.25-.71-5.86s-1.88,2.29-7.56,2.2c-5.11-.08-5-4.59-5-4.59s3.06-.71,1.57-4.25-4.57-2-3.39,2.76c0,0-3.24-1.24-2.45-6.11C112.35,47.3,109.51,47.14,108.18,45.64Z" style="fill:#feb19e;" /><path class="cls-24" d="M135.77,64s6.06-.82,11.56,6.34S162.83,97.1,149,96.77,135.77,64,135.77,64Z" style="fill:#3150bc;" /><path class="cls-19" d="M117,67.1l.15-2a3.59,3.59,0,0,1,2.8-3.25,44,44,0,0,1,9.31-1.12A3.63,3.63,0,0,1,132.69,63l.81,2.16Z" style="fill:#9eb2ef;" /><path class="cls-25" d="M153.25,105.69s-7.5,16.27-21.13,21.15-20.74-11.53-20.74-11.53l4.51-3.55-1-6.92L114,99.17l-.41-2.8-.09.15a39.68,39.68,0,0,1-5.45,7.12c-2.77,2.79-6.25,5.08-9.69,4-3.17-1-6.35-4.29-8.95-7.82a71.38,71.38,0,0,1-6.05-10c-2.19-1.07-4.38-6-3.88-8.88s3.69-3.75,3.69-3.75l3.5,2.44s2-1.62,3.06.38.5,6.29.5,6.29l3.9,2.16,4.68,2.59s2.21-11.17,7.29-18.42,11.56-7.5,17.21-8.17c17-2,18.4-.12,23.65,11.47l.14.32C152.5,88.19,153.25,105.69,153.25,105.69Z" style="fill:url(#linear-gradient-4);" /><path class="cls-26" d="M153.25,105.69s-7.5,16.27-21.13,21.15-20.74-11.53-20.74-11.53l4.51-3.55-1-6.92c2.88-3.1,8.36-7.55,18.64-12.3S146.52,81.2,147,76l.14.32C152.5,88.19,153.25,105.69,153.25,105.69Z" style="fill:#3150bc;opacity:0.3;mix-blend-mode:multiply;" /><path class="cls-26" d="M113.52,96.52a39.68,39.68,0,0,1-5.45,7.12c-3.35-9.9,2.22-24.33,2.22-24.33Z" style="fill:#3150bc;opacity:0.3;mix-blend-mode:multiply;" /><path class="cls-23" d="M89.43,99.87a71.38,71.38,0,0,1-6.05-10c-2.19-1.07-4.38-6-3.88-8.88s3.69-3.75,3.69-3.75l3.5,2.44s2-1.62,3.06.38.5,6.29.5,6.29l3.9,2.16C92,90.85,88.81,95.24,89.43,99.87Z" style="fill:#feb19e;" /><path class="cls-12" d="M86.69,79.69l-6.3-10.23a.83.83,0,0,0-1.15-.28h0A.84.84,0,0,0,79,70.35l6.66,10.27S86.63,80.44,86.69,79.69Z" style="fill:#525559;" /><path class="cls-19" d="M94.15,88.52s-4.4,2.92-5,12c0,0,1.87,4.25,2.81,4.62S95.1,93.84,98.55,91Z" style="fill:#9eb2ef;" /><polygon class="cls-10" points="106.13 138.72 97.83 190.35 101.98 190.35 111.83 138.79 106.13 138.72" style="fill:#4e8fb7;" /><polygon class="cls-16" points="113.52 138.72 119.5 190.35 123.33 190.35 118.43 138.72 113.52 138.72" style="fill:#90c6e0;" /><polygon class="cls-16" points="147.71 138.72 156 190.35 151.85 190.35 142 138.79 147.71 138.72" style="fill:#90c6e0;" /><polygon class="cls-10" points="140.31 138.72 134.33 190.35 130.5 190.35 135.41 138.72 140.31 138.72" style="fill:#4e8fb7;" /><path class="cls-8" d="M105.5,140.63s1-4.95,3.28-5.63,8.73-.51,10.36-2.89,10.49-30.61,14.78-33.71,31.58-1.56,31.58-1.56l-10.41,37.38a9.34,9.34,0,0,1-9.06,7Z" style="fill:#abdaf7;" /></g></g></g></svg><svg xmlns="http://www.w3.org/2000/svg" xmlns:xlink="http://www.w3.org/1999/xlink" viewBox="0 0 250 199.32"><defs><style>.cls-1,.cls-17{fill:none;}.cls-2{isolation:isolate;}.cls-3{fill:#e4ebf7;}.cls-4{fill:#fff;}.cls-5{fill:#c3cddd;}.cls-6{fill:#fff19c;}.cls-7{fill:#70b2dd;}.cls-8{fill:#abdaf7;}.cls-9{fill:#cae9f9;}.cls-10{fill:#4e8fb7;}.cls-11{fill:#404347;}.cls-12{fill:#525559;}.cls-13{fill:#707377;}.cls-14{fill:url(#linear-gradient);}.cls-15{fill:url(#linear-gradient-2);}.cls-16{fill:#90c6e0;}.cls-17{stroke:#90c6e0;stroke-miterlimit:10;}.cls-18{clip-path:url(#clip-path);}.cls-19{fill:#9eb2ef;}.cls-20{fill:#1b3151;}.cls-21{fill:#23406d;}.cls-22{fill:url(#linear-gradient-3);}.cls-23{fill:#feb19e;}.cls-24,.cls-26{fill:#3150bc;}.cls-25{fill:url(#linear-gradient-4);}.cls-26{opacity:0.3;mix-blend-mode:multiply;}</style><linearGradient id="linear-gradient" x1="79.87" y1="81.82" x2="119.04" y2="81.82" gradientUnits="userSpaceOnUse"><stop offset="0" stop-color="#f79239"/><stop offset="1" stop-color="#f7c759"/></linearGradient><linearGradient id="linear-gradient-2" x1="98.55" y1="73.71" x2="107.33" y2="73.71" xlink:href="#linear-gradient"/><clipPath id="clip-path"><path class="cls-1" d="M50.7,162.81l-.43,2.88L47,187.42l-.15,1a2.33,2.33,0,0,1-2.29,2H29.89a2.33,2.33,0,0,1-2.28-2l-.16-1-3.59-21.73-.47-2.84a2.32,2.32,0,0,1,2.29-2.71H48.4A2.33,2.33,0,0,1,50.7,162.81Z" style="fill:none;" /></clipPath><linearGradient id="linear-gradient-3" x1="119.71" y1="58.42" x2="115.05" y2="33.58" gradientUnits="userSpaceOnUse"><stop offset="0" stop-color="#3f2323"/><stop offset="1" stop-color="#5e3434"/></linearGradient><linearGradient id="linear-gradient-4" x1="124.36" y1="116.55" x2="111.7" y2="73.55" gradientUnits="userSpaceOnUse"><stop offset="0" stop-color="#3855e1"/><stop offset="1" stop-color="#5c7ef7"/></linearGradient></defs><g class="cls-2" style="isolation:isolate;" ><g id="Layer_2" data-name="Layer 2"><g id="OBJECTS"><path class="cls-3" d="M236.46,102.69a36.32,36.32,0,0,1-.84,4.88q-.1.5-.24,1a43.08,43.08,0,0,1-7.73,15.17l-.64.81c-24.91,30.89-93.34,44.69-148.72,21.61l-1.53-.65a133.46,133.46,0,0,1-13.59-6.79C41.88,126.48,28,109.78,20.81,92.2a0,0,0,0,1,0,0c-.36-.89-.7-1.78-1-2.68C8.55,59.13,17,26.67,41.23,10.36q.42-.3.87-.57A61.67,61.67,0,0,1,63.17,1.25C65,.87,66.73.59,68.47.39c.33,0,.66-.08,1-.11,25.74-2.6,44.82,13,60.41,29.54l.7.74c5.3,5.64,10.18,11.37,14.8,16.47l.67.75c10.62,11.66,19.79,19.86,29.1,16C209.28,49.77,241,58.54,236.46,102.69Z" style="fill:#e4ebf7;" /><path class="cls-3" d="M175.14,19.18c-11.6-15.66-29,1.34-18.59,16.67S203.28,57.18,175.14,19.18Z" style="fill:#e4ebf7;" /><path class="cls-4" d="M235.62,107.57q-.1.5-.24,1c-22.06-7.35-60.16-11.76-123,1.82-39.32,8.48-69.14,3.37-88.62-15.2-1-1-2-2-2.92-3a0,0,0,0,1,0,0c-.36-.89-.7-1.78-1-2.68a63.55,63.55,0,0,0,4.65,4.94c19.23,18.33,48.74,23.36,87.71,15C175.11,95.81,213.39,100.21,235.62,107.57Z" style="fill:#fff;" /><path class="cls-4" d="M227.65,123.73l-.64.81c-21.21-10.29-52.79-15.8-94.69,2.75a325.17,325.17,0,0,1-54,18.86l-1.53-.65a321.77,321.77,0,0,0,55.16-19.12C174.28,107.61,206.23,113.27,227.65,123.73Z" style="fill:#fff;" /><path class="cls-4" d="M146,47.78c-8.62,8.47-20.75,15.47-37.79,18.11a63.91,63.91,0,0,1-9.6.76,48.07,48.07,0,0,1-30.27-10.2c-14.93-11.61-23-31.1-27.15-46.09q.42-.3.87-.57C46.22,24.67,54.16,44.13,69,55.66c10.89,8.46,24,11.57,39.11,9.24,16.82-2.61,28.77-9.52,37.27-17.87Z" style="fill:#fff;" /><path class="cls-4" d="M130.57,30.56c-6.6,9.26-16.26,17-30.18,17.34h-.64A22.27,22.27,0,0,1,83.43,41c-9.11-9.2-13.17-26.17-15-40.56.33,0,.66-.08,1-.11,1.76,14.23,5.74,31,14.68,40a21.41,21.41,0,0,0,16.22,6.65c13.61-.35,23.06-8,29.51-17.08Z" style="fill:#fff;" /><ellipse class="cls-3" cx="125" cy="190.42" rx="125" ry="5.4" style="fill:#e4ebf7;" /><ellipse class="cls-5" cx="41.2" cy="189.39" rx="20.14" ry="1.97" style="fill:#c3cddd;" /><ellipse class="cls-5" cx="122.41" cy="190.61" rx="70.91" ry="2.91" style="fill:#c3cddd;" /><path class="cls-5" d="M233,190.35c0,1-9.56,1.83-21.35,1.83s-21.36-.82-21.36-1.83,9.56-1.83,21.36-1.83S233,189.34,233,190.35Z" style="fill:#c3cddd;" /><path class="cls-6" d="M150,58.7s1.55,2-6.12,1.32-9.66.09-12,3.79-6.94,5.22-9.13,2.63-.43,0-.43,0L135,88.19s12.92,4.08,13.75-3.59,2.75-9.66,5.08-11.16A8.44,8.44,0,0,0,157,69.77S156.74,62.2,150,58.7Z" style="fill:#fff19c;" /><path class="cls-7" d="M160.25,57.56l1.24-.61a2.29,2.29,0,0,1,2.93.81h0a2,2,0,0,1-.69,2.75l-.89.55Z" style="fill:#70b2dd;" /><path class="cls-8" d="M150,58.7l4-2a6.23,6.23,0,0,1,8,2.23h0a6.23,6.23,0,0,1-1.57,8.35l-3.89,2.86Z" style="fill:#abdaf7;" /><path class="cls-9" d="M156.55,70.11c-.84.48-3-1.68-4.82-4.83s-2.61-6.11-1.78-6.59,2.56,1.26,4.25,3.9c.19.3.38.61.57.94s.5.89.72,1.33C156.78,67.47,157.26,69.7,156.55,70.11Z" style="fill:#cae9f9;" /><path class="cls-7" d="M155.49,64.86a1.36,1.36,0,0,1-1.08.52,1.4,1.4,0,0,1-.21-2.79c.19.3.38.61.57.94S155.27,64.42,155.49,64.86Z" style="fill:#70b2dd;" /><path class="cls-10" d="M169,97.77l-1.4,0s.06-1.9,0-4.78v-.27c-.07-3.13-.24-10.45,6.58-13.93,2.53-1.29,4.29-4.43,4.68-8.39.48-4.67-1-9.22-3.61-11.31-5.06-4-10.6-.72-10.65-.69l-.73-1.19c.06,0,6.44-3.84,12.25.78,3,2.38,4.65,7.42,4.14,12.55-.46,4.51-2.44,8-5.45,9.5-6,3.07-5.88,9.54-5.81,12.65v.27C169,95.85,169,97.75,169,97.77Z" style="fill:#4e8fb7;" /><path class="cls-10" d="M176.75,103.64,169.12,98A1.82,1.82,0,0,0,167,98l-8,5.62Z" style="fill:#4e8fb7;" /><path class="cls-11" d="M69.71,73.79l-6.79,26.29a2.82,2.82,0,0,0,2.67,3.56H84.13Z" style="fill:#404347;" /><path class="cls-12" d="M77.82,101.34,69,71.21A3.2,3.2,0,0,1,72,67.1h46.42a3.21,3.21,0,0,1,3.08,2.34L130,99.56a3.21,3.21,0,0,1-3.09,4.08h-46A3.2,3.2,0,0,1,77.82,101.34Z" style="fill:#525559;" /><path class="cls-13" d="M80.71,101.34,71.86,71.21a3.2,3.2,0,0,1,3.07-4.11h46.41a3.21,3.21,0,0,1,3.09,2.34l8.48,30.12a3.22,3.22,0,0,1-3.09,4.08h-46A3.22,3.22,0,0,1,80.71,101.34Z" style="fill:#707377;" /><path class="cls-4" d="M128.91,99.64H89.19A2.25,2.25,0,0,1,87,98L81.66,79.78,80,74a2.25,2.25,0,0,1,2.16-2.89h40a2.25,2.25,0,0,1,2.17,1.64l6.76,24A2.25,2.25,0,0,1,128.91,99.64Z" style="fill:#fff;" /><path class="cls-14" d="M119,86.44V90s-5.12-2.5-12.71.84-13.75,2.08-18.25-7.17a6.57,6.57,0,0,0-6.42-3.91L80,74a2.25,2.25,0,0,1,2.16-2.89h9.3a15.84,15.84,0,0,1,3.33,4.58c4.33,8.92,5.83,11.25,13.08,10.08S119,86.44,119,86.44Z" style="fill:url(#linear-gradient);" /><path class="cls-15" d="M107.33,71.92a4.39,4.39,0,1,1-8.78,0,4.28,4.28,0,0,1,.08-.81h8.62A4.28,4.28,0,0,1,107.33,71.92Z" style="fill:url(#linear-gradient-2);" /><path class="cls-12" d="M79.39,79.62H76.53a.57.57,0,0,1-.54-.38L75.57,78a.57.57,0,0,1,.54-.75H79a.57.57,0,0,1,.54.38l.42,1.24A.56.56,0,0,1,79.39,79.62Z" style="fill:#525559;" /><path class="cls-12" d="M80.61,84.5H77.75a.55.55,0,0,1-.53-.38l-.43-1.25a.57.57,0,0,1,.54-.75h2.85a.57.57,0,0,1,.54.39l.43,1.24A.57.57,0,0,1,80.61,84.5Z" style="fill:#525559;" /><path class="cls-12" d="M81.89,89.38H79A.57.57,0,0,1,78.5,89l-.43-1.24a.57.57,0,0,1,.54-.75h2.86a.56.56,0,0,1,.53.38l.43,1.25A.57.57,0,0,1,81.89,89.38Z" style="fill:#525559;" /><path class="cls-16" d="M52.5,191.35a1,1,0,0,1,0-2,4,4,0,0,0,4-3.72l4.69-70.39a1,1,0,0,1,2,.13l-4.7,70.39A6,6,0,0,1,52.5,191.35Z" style="fill:#90c6e0;" /><path class="cls-16" d="M78.31,191.35a1,1,0,0,0,0-2,4,4,0,0,1-4-3.72l-4.69-70.39a1,1,0,0,0-2,.13l4.69,70.39A6,6,0,0,0,78.31,191.35Z" style="fill:#90c6e0;" /><path class="cls-16" d="M160,191.35a1,1,0,0,1,0-2,4,4,0,0,0,4-3.72l4.69-70.39a1,1,0,0,1,2,.13L166,185.76A6,6,0,0,1,160,191.35Z" style="fill:#90c6e0;" /><path class="cls-16" d="M185.81,191.35a1,1,0,0,0,0-2,4,4,0,0,1-4-3.72l-4.69-70.39a1,1,0,0,0-2,.13l4.69,70.39A6,6,0,0,0,185.81,191.35Z" style="fill:#90c6e0;" /><rect class="cls-8" x="49" y="103.64" width="138.63" height="3.05" style="fill:#abdaf7;" /><rect class="cls-7" x="79.43" y="103.64" width="108.2" height="3.05" style="fill:#70b2dd;" /><path class="cls-7" d="M184.88,106.69v3.69a8.45,8.45,0,0,1-8.45,8.44H60.94a8.44,8.44,0,0,1-8.44-8.44v-3.69Z" style="fill:#70b2dd;" /><path class="cls-10" d="M184.88,106.69v3.69a8.18,8.18,0,0,1-7.88,8.44H77.75V106.69Z" style="fill:#4e8fb7;" /><path class="cls-17" d="M23.39,162.84l4.22,25.57a2.32,2.32,0,0,0,2.29,1.94H44.56a2.31,2.31,0,0,0,2.29-2l3.85-25.57a2.32,2.32,0,0,0-2.29-2.66H25.68A2.32,2.32,0,0,0,23.39,162.84Z" style="fill:none;stroke:#90c6e0;stroke-miterlimit:10;" /><g class="cls-18" style="clip-path:url(#clip-path);" ><rect class="cls-16" x="5.74" y="159.82" width="37.09" height="1.03" transform="translate(-106.26 64.14) rotate(-45)" style="fill:#90c6e0;" /><rect class="cls-16" x="8.58" y="162.66" width="37.09" height="1.02" transform="translate(-107.43 66.97) rotate(-45)" style="fill:#90c6e0;" /><rect class="cls-16" x="11.41" y="165.49" width="37.09" height="1.03" transform="translate(-108.61 69.8) rotate(-45)" style="fill:#90c6e0;" /><rect class="cls-16" x="14.24" y="168.32" width="37.09" height="1.02" transform="translate(-109.78 72.64) rotate(-45)" style="fill:#90c6e0;" /><rect class="cls-16" x="17.08" y="171.15" width="37.09" height="1.03" transform="translate(-110.95 75.47) rotate(-45)" style="fill:#90c6e0;" /><rect class="cls-16" x="19.91" y="173.99" width="37.09" height="1.02" transform="translate(-112.13 78.3) rotate(-45)" style="fill:#90c6e0;" /><rect class="cls-16" x="22.74" y="176.82" width="37.09" height="1.03" transform="translate(-113.3 81.14) rotate(-45)" style="fill:#90c6e0;" /><rect class="cls-16" x="25.58" y="179.66" width="37.09" height="1.03" transform="translate(-114.48 83.97) rotate(-45)" style="fill:#90c6e0;" /><rect class="cls-16" x="28.41" y="182.49" width="37.09" height="1.03" transform="translate(-115.65 86.81) rotate(-45)" style="fill:#90c6e0;" /><rect class="cls-16" x="31.25" y="185.33" width="37.09" height="1.03" transform="translate(-116.82 89.64) rotate(-45)" style="fill:#90c6e0;" /><rect class="cls-16" x="49.29" y="141.78" width="1.02" height="37.1" transform="translate(-98.79 82.18) rotate(-45)" style="fill:#90c6e0;" /><rect class="cls-16" x="46.45" y="144.62" width="1.03" height="37.1" transform="translate(-101.62 81) rotate(-45)" style="fill:#90c6e0;" /><rect class="cls-16" x="43.62" y="147.45" width="1.02" height="37.1" transform="translate(-104.46 79.82) rotate(-45)" style="fill:#90c6e0;" /><rect class="cls-16" x="40.78" y="150.28" width="1.03" height="37.1" transform="translate(-107.29 78.65) rotate(-45)" style="fill:#90c6e0;" /><rect class="cls-16" x="37.94" y="153.12" width="1.03" height="37.1" transform="translate(-110.12 77.47) rotate(-45)" style="fill:#90c6e0;" /><rect class="cls-16" x="35.11" y="155.95" width="1.03" height="37.1" transform="translate(-112.96 76.3) rotate(-45)" style="fill:#90c6e0;" /><rect class="cls-16" x="32.28" y="158.79" width="1.03" height="37.1" transform="translate(-115.79 75.13) rotate(-45)" style="fill:#90c6e0;" /><rect class="cls-16" x="29.45" y="161.62" width="1.02" height="37.1" transform="translate(-118.63 73.95) rotate(-45)" style="fill:#90c6e0;" /><rect class="cls-16" x="26.61" y="164.46" width="1.03" height="37.1" transform="translate(-121.45 72.77) rotate(-45)" style="fill:#90c6e0;" /><rect class="cls-16" x="23.78" y="167.29" width="1.02" height="37.1" transform="translate(-124.3 71.61) rotate(-45)" style="fill:#90c6e0;" /></g><path class="cls-16" d="M50.7,162.81l-.43,2.88H23.86l-.47-2.84a2.32,2.32,0,0,1,2.29-2.71H48.4A2.33,2.33,0,0,1,50.7,162.81Z" style="fill:#90c6e0;" /><path class="cls-16" d="M47,187.42l-.15,1a2.33,2.33,0,0,1-2.29,2H29.89a2.33,2.33,0,0,1-2.28-2l-.16-1Z" style="fill:#90c6e0;" /><path class="cls-8" d="M219.5,118.82l-8.57,12.31-1.43,2.06-7.83-15.33a33.77,33.77,0,0,1,8.5-22.08c8.66-9.54,7.42-16.54,7.33-17.06C218,79.51,227.31,95.55,219.5,118.82Z" style="fill:#abdaf7;" /><path class="cls-16" d="M219.5,118.82l-8.57,12.31c-.16-2.6.62-8.35,5.57-20.77,6.32-15.8,2.9-27.23,1-31.64C218,79.51,227.31,95.55,219.5,118.82Z" style="fill:#90c6e0;" /><path class="cls-16" d="M214.33,135.19l-1.33,9H200.67s-9.17-6-6.34-20.75c2.78-14.4-.84-20.47-1-20.74l.09,0C209.69,109.14,213.83,134.69,214.33,135.19Z" style="fill:#90c6e0;" /><path class="cls-7" d="M214.33,135.19l-1.33,9s-4.37,0-7-18.5c-2.45-17.34-11.45-22.38-12.58-23C209.69,109.14,213.83,134.69,214.33,135.19Z" style="fill:#70b2dd;" /><path class="cls-16" d="M224.89,144.19s0,3.33-.29,8.64c-.5,9-1.85,23.77-5.49,37.53h-18c-3.64-13.76-5-28.5-5.49-37.53-.29-5.31-.29-8.64-.29-8.64Z" style="fill:#90c6e0;" /><path class="cls-7" d="M224.89,144.19s0,3.33-.29,8.64h-29c-.29-5.31-.29-8.64-.29-8.64Z" style="fill:#70b2dd;" /><path class="cls-7" d="M238.75,119.44l-.08,0-.1,0c-1,.18-5.48,1-9.08,1.3h-.09a9.12,9.12,0,0,1-4.1-.61c-3.53,8.88.12,16.43-4.67,24h-12s-4.25-22.25,8.86-27.87a12,12,0,0,1,3.14-1c13.35-1.87,15,4.1,18.11,4.13Z" style="fill:#70b2dd;" /><path class="cls-16" d="M238.74,119.44l-.07,0-.1,0a37.48,37.48,0,0,1-9.08,1.3h-.09c-4.38,0-8.7-2.23-11.91-4.46a9.34,9.34,0,0,1,3.14-1C234,113.44,235.61,119.41,238.74,119.44Z" style="fill:#90c6e0;" /><path class="cls-19" d="M143,190.35s-2.59-9.41-.52-12l11-.37s1.58,2.83,1.67,12.41Z" style="fill:#9eb2ef;" /><polygon class="cls-20" points="131.18 138.49 139.63 178.31 156 178.31 150 135.18 131.18 138.49" style="fill:#1b3151;" /><path class="cls-19" d="M114.43,179.69a22.61,22.61,0,0,1,.65,10.66H92.75c-1.19,0-.49-2.24,1.5-3.91,2.88-2.43,7.8-4.78,8.12-6.75Z" style="fill:#9eb2ef;" /><path class="cls-21" d="M115,137.22l.88,42.47H100.62s-5.5-38.5-4.5-48.12,15.26-16.26,15.26-16.26l14.24,13.38L115,137.19Z" style="fill:#23406d;" /><path class="cls-20" d="M115.88,179.69H102.37c-.77-6.17-3.05-25.93-1.37-34.62,2-10.38,12.52-9.88,12.52-9.88l1.48,2Z" style="fill:#1b3151;" /><path class="cls-22" d="M129.19,57.29a2.77,2.77,0,0,0,.71-3.62s2.2-6,1-10.62-4-3.78-4-3.78.55-3.31-3.39-5.51-11.33.16-14.48,2-4.09-1.81-5.19-1.18-1.1,4.32,2.28,6.06c0,0-3.38-2.21-3.7-.56s.55,6.62,6.69,9.06l6.3,12.82L126,60.75S130.21,61.38,129.19,57.29Z" style="fill:url(#linear-gradient-3);" /><path class="cls-23" d="M108.18,45.64s.15,20.87,7.55,17.36l1.5,2.4,12.67-2.25-.71-5.86s-1.88,2.29-7.56,2.2c-5.11-.08-5-4.59-5-4.59s3.06-.71,1.57-4.25-4.57-2-3.39,2.76c0,0-3.24-1.24-2.45-6.11C112.35,47.3,109.51,47.14,108.18,45.64Z" style="fill:#feb19e;" /><path class="cls-24" d="M135.77,64s6.06-.82,11.56,6.34S162.83,97.1,149,96.77,135.77,64,135.77,64Z" style="fill:#3150bc;" /><path class="cls-19" d="M117,67.1l.15-2a3.59,3.59,0,0,1,2.8-3.25,44,44,0,0,1,9.31-1.12A3.63,3.63,0,0,1,132.69,63l.81,2.16Z" style="fill:#9eb2ef;" /><path class="cls-25" d="M153.25,105.69s-7.5,16.27-21.13,21.15-20.74-11.53-20.74-11.53l4.51-3.55-1-6.92L114,99.17l-.41-2.8-.09.15a39.68,39.68,0,0,1-5.45,7.12c-2.77,2.79-6.25,5.08-9.69,4-3.17-1-6.35-4.29-8.95-7.82a71.38,71.38,0,0,1-6.05-10c-2.19-1.07-4.38-6-3.88-8.88s3.69-3.75,3.69-3.75l3.5,2.44s2-1.62,3.06.38.5,6.29.5,6.29l3.9,2.16,4.68,2.59s2.21-11.17,7.29-18.42,11.56-7.5,17.21-8.17c17-2,18.4-.12,23.65,11.47l.14.32C152.5,88.19,153.25,105.69,153.25,105.69Z" style="fill:url(#linear-gradient-4);" /><path class="cls-26" d="M153.25,105.69s-7.5,16.27-21.13,21.15-20.74-11.53-20.74-11.53l4.51-3.55-1-6.92c2.88-3.1,8.36-7.55,18.64-12.3S146.52,81.2,147,76l.14.32C152.5,88.19,153.25,105.69,153.25,105.69Z" style="fill:#3150bc;opacity:0.3;mix-blend-mode:multiply;" /><path class="cls-26" d="M113.52,96.52a39.68,39.68,0,0,1-5.45,7.12c-3.35-9.9,2.22-24.33,2.22-24.33Z" style="fill:#3150bc;opacity:0.3;mix-blend-mode:multiply;" /><path class="cls-23" d="M89.43,99.87a71.38,71.38,0,0,1-6.05-10c-2.19-1.07-4.38-6-3.88-8.88s3.69-3.75,3.69-3.75l3.5,2.44s2-1.62,3.06.38.5,6.29.5,6.29l3.9,2.16C92,90.85,88.81,95.24,89.43,99.87Z" style="fill:#feb19e;" /><path class="cls-12" d="M86.69,79.69l-6.3-10.23a.83.83,0,0,0-1.15-.28h0A.84.84,0,0,0,79,70.35l6.66,10.27S86.63,80.44,86.69,79.69Z" style="fill:#525559;" /><path class="cls-19" d="M94.15,88.52s-4.4,2.92-5,12c0,0,1.87,4.25,2.81,4.62S95.1,93.84,98.55,91Z" style="fill:#9eb2ef;" /><polygon class="cls-10" points="106.13 138.72 97.83 190.35 101.98 190.35 111.83 138.79 106.13 138.72" style="fill:#4e8fb7;" /><polygon class="cls-16" points="113.52 138.72 119.5 190.35 123.33 190.35 118.43 138.72 113.52 138.72" style="fill:#90c6e0;" /><polygon class="cls-16" points="147.71 138.72 156 190.35 151.85 190.35 142 138.79 147.71 138.72" style="fill:#90c6e0;" /><polygon class="cls-10" points="140.31 138.72 134.33 190.35 130.5 190.35 135.41 138.72 140.31 138.72" style="fill:#4e8fb7;" /><path class="cls-8" d="M105.5,140.63s1-4.95,3.28-5.63,8.73-.51,10.36-2.89,10.49-30.61,14.78-33.71,31.58-1.56,31.58-1.56l-10.41,37.38a9.34,9.34,0,0,1-9.06,7Z" style="fill:#abdaf7;" /></g></g></g></svg><svg xmlns="http://www.w3.org/2000/svg" xmlns:xlink="http://www.w3.org/1999/xlink" viewBox="0 0 250 199.32"><defs><style>.cls-1,.cls-17{fill:none;}.cls-2{isolation:isolate;}.cls-3{fill:#e4ebf7;}.cls-4{fill:#fff;}.cls-5{fill:#c3cddd;}.cls-6{fill:#fff19c;}.cls-7{fill:#70b2dd;}.cls-8{fill:#abdaf7;}.cls-9{fill:#cae9f9;}.cls-10{fill:#4e8fb7;}.cls-11{fill:#404347;}.cls-12{fill:#525559;}.cls-13{fill:#707377;}.cls-14{fill:url(#linear-gradient);}.cls-15{fill:url(#linear-gradient-2);}.cls-16{fill:#90c6e0;}.cls-17{stroke:#90c6e0;stroke-miterlimit:10;}.cls-18{clip-path:url(#clip-path);}.cls-19{fill:#9eb2ef;}.cls-20{fill:#1b3151;}.cls-21{fill:#23406d;}.cls-22{fill:url(#linear-gradient-3);}.cls-23{fill:#feb19e;}.cls-24,.cls-26{fill:#3150bc;}.cls-25{fill:url(#linear-gradient-4);}.cls-26{opacity:0.3;mix-blend-mode:multiply;}</style><linearGradient id="linear-gradient" x1="79.87" y1="81.82" x2="119.04" y2="81.82" gradientUnits="userSpaceOnUse"><stop offset="0" stop-color="#f79239"/><stop offset="1" stop-color="#f7c759"/></linearGradient><linearGradient id="linear-gradient-2" x1="98.55" y1="73.71" x2="107.33" y2="73.71" xlink:href="#linear-gradient"/><clipPath id="clip-path"><path class="cls-1" d="M50.7,162.81l-.43,2.88L47,187.42l-.15,1a2.33,2.33,0,0,1-2.29,2H29.89a2.33,2.33,0,0,1-2.28-2l-.16-1-3.59-21.73-.47-2.84a2.32,2.32,0,0,1,2.29-2.71H48.4A2.33,2.33,0,0,1,50.7,162.81Z" style="fill:none;" /></clipPath><linearGradient id="linear-gradient-3" x1="119.71" y1="58.42" x2="115.05" y2="33.58" gradientUnits="userSpaceOnUse"><stop offset="0" stop-color="#3f2323"/><stop offset="1" stop-color="#5e3434"/></linearGradient><linearGradient id="linear-gradient-4" x1="124.36" y1="116.55" x2="111.7" y2="73.55" gradientUnits="userSpaceOnUse"><stop offset="0" stop-color="#3855e1"/><stop offset="1" stop-color="#5c7ef7"/></linearGradient></defs><g class="cls-2" style="isolation:isolate;" ><g id="Layer_2" data-name="Layer 2"><g id="OBJECTS"><path class="cls-3" d="M236.46,102.69a36.32,36.32,0,0,1-.84,4.88q-.1.5-.24,1a43.08,43.08,0,0,1-7.73,15.17l-.64.81c-24.91,30.89-93.34,44.69-148.72,21.61l-1.53-.65a133.46,133.46,0,0,1-13.59-6.79C41.88,126.48,28,109.78,20.81,92.2a0,0,0,0,1,0,0c-.36-.89-.7-1.78-1-2.68C8.55,59.13,17,26.67,41.23,10.36q.42-.3.87-.57A61.67,61.67,0,0,1,63.17,1.25C65,.87,66.73.59,68.47.39c.33,0,.66-.08,1-.11,25.74-2.6,44.82,13,60.41,29.54l.7.74c5.3,5.64,10.18,11.37,14.8,16.47l.67.75c10.62,11.66,19.79,19.86,29.1,16C209.28,49.77,241,58.54,236.46,102.69Z" style="fill:#e4ebf7;" /><path class="cls-3" d="M175.14,19.18c-11.6-15.66-29,1.34-18.59,16.67S203.28,57.18,175.14,19.18Z" style="fill:#e4ebf7;" /><path class="cls-4" d="M235.62,107.57q-.1.5-.24,1c-22.06-7.35-60.16-11.76-123,1.82-39.32,8.48-69.14,3.37-88.62-15.2-1-1-2-2-2.92-3a0,0,0,0,1,0,0c-.36-.89-.7-1.78-1-2.68a63.55,63.55,0,0,0,4.65,4.94c19.23,18.33,48.74,23.36,87.71,15C175.11,95.81,213.39,100.21,235.62,107.57Z" style="fill:#fff;" /><path class="cls-4" d="M227.65,123.73l-.64.81c-21.21-10.29-52.79-15.8-94.69,2.75a325.17,325.17,0,0,1-54,18.86l-1.53-.65a321.77,321.77,0,0,0,55.16-19.12C174.28,107.61,206.23,113.27,227.65,123.73Z" style="fill:#fff;" /><path class="cls-4" d="M146,47.78c-8.62,8.47-20.75,15.47-37.79,18.11a63.91,63.91,0,0,1-9.6.76,48.07,48.07,0,0,1-30.27-10.2c-14.93-11.61-23-31.1-27.15-46.09q.42-.3.87-.57C46.22,24.67,54.16,44.13,69,55.66c10.89,8.46,24,11.57,39.11,9.24,16.82-2.61,28.77-9.52,37.27-17.87Z" style="fill:#fff;" /><path class="cls-4" d="M130.57,30.56c-6.6,9.26-16.26,17-30.18,17.34h-.64A22.27,22.27,0,0,1,83.43,41c-9.11-9.2-13.17-26.17-15-40.56.33,0,.66-.08,1-.11,1.76,14.23,5.74,31,14.68,40a21.41,21.41,0,0,0,16.22,6.65c13.61-.35,23.06-8,29.51-17.08Z" style="fill:#fff;" /><ellipse class="cls-3" cx="125" cy="190.42" rx="125" ry="5.4" style="fill:#e4ebf7;" /><ellipse class="cls-5" cx="41.2" cy="189.39" rx="20.14" ry="1.97" style="fill:#c3cddd;" /><ellipse class="cls-5" cx="122.41" cy="190.61" rx="70.91" ry="2.91" style="fill:#c3cddd;" /><path class="cls-5" d="M233,190.35c0,1-9.56,1.83-21.35,1.83s-21.36-.82-21.36-1.83,9.56-1.83,21.36-1.83S233,189.34,233,190.35Z" style="fill:#c3cddd;" /><path class="cls-6" d="M150,58.7s1.55,2-6.12,1.32-9.66.09-12,3.79-6.94,5.22-9.13,2.63-.43,0-.43,0L135,88.19s12.92,4.08,13.75-3.59,2.75-9.66,5.08-11.16A8.44,8.44,0,0,0,157,69.77S156.74,62.2,150,58.7Z" style="fill:#fff19c;" /><path class="cls-7" d="M160.25,57.56l1.24-.61a2.29,2.29,0,0,1,2.93.81h0a2,2,0,0,1-.69,2.75l-.89.55Z" style="fill:#70b2dd;" /><path class="cls-8" d="M150,58.7l4-2a6.23,6.23,0,0,1,8,2.23h0a6.23,6.23,0,0,1-1.57,8.35l-3.89,2.86Z" style="fill:#abdaf7;" /><path class="cls-9" d="M156.55,70.11c-.84.48-3-1.68-4.82-4.83s-2.61-6.11-1.78-6.59,2.56,1.26,4.25,3.9c.19.3.38.61.57.94s.5.89.72,1.33C156.78,67.47,157.26,69.7,156.55,70.11Z" style="fill:#cae9f9;" /><path class="cls-7" d="M155.49,64.86a1.36,1.36,0,0,1-1.08.52,1.4,1.4,0,0,1-.21-2.79c.19.3.38.61.57.94S155.27,64.42,155.49,64.86Z" style="fill:#70b2dd;" /><path class="cls-10" d="M169,97.77l-1.4,0s.06-1.9,0-4.78v-.27c-.07-3.13-.24-10.45,6.58-13.93,2.53-1.29,4.29-4.43,4.68-8.39.48-4.67-1-9.22-3.61-11.31-5.06-4-10.6-.72-10.65-.69l-.73-1.19c.06,0,6.44-3.84,12.25.78,3,2.38,4.65,7.42,4.14,12.55-.46,4.51-2.44,8-5.45,9.5-6,3.07-5.88,9.54-5.81,12.65v.27C169,95.85,169,97.75,169,97.77Z" style="fill:#4e8fb7;" /><path class="cls-10" d="M176.75,103.64,169.12,98A1.82,1.82,0,0,0,167,98l-8,5.62Z" style="fill:#4e8fb7;" /><path class="cls-11" d="M69.71,73.79l-6.79,26.29a2.82,2.82,0,0,0,2.67,3.56H84.13Z" style="fill:#404347;" /><path class="cls-12" d="M77.82,101.34,69,71.21A3.2,3.2,0,0,1,72,67.1h46.42a3.21,3.21,0,0,1,3.08,2.34L130,99.56a3.21,3.21,0,0,1-3.09,4.08h-46A3.2,3.2,0,0,1,77.82,101.34Z" style="fill:#525559;" /><path class="cls-13" d="M80.71,101.34,71.86,71.21a3.2,3.2,0,0,1,3.07-4.11h46.41a3.21,3.21,0,0,1,3.09,2.34l8.48,30.12a3.22,3.22,0,0,1-3.09,4.08h-46A3.22,3.22,0,0,1,80.71,101.34Z" style="fill:#707377;" /><path class="cls-4" d="M128.91,99.64H89.19A2.25,2.25,0,0,1,87,98L81.66,79.78,80,74a2.25,2.25,0,0,1,2.16-2.89h40a2.25,2.25,0,0,1,2.17,1.64l6.76,24A2.25,2.25,0,0,1,128.91,99.64Z" style="fill:#fff;" /><path class="cls-14" d="M119,86.44V90s-5.12-2.5-12.71.84-13.75,2.08-18.25-7.17a6.57,6.57,0,0,0-6.42-3.91L80,74a2.25,2.25,0,0,1,2.16-2.89h9.3a15.84,15.84,0,0,1,3.33,4.58c4.33,8.92,5.83,11.25,13.08,10.08S119,86.44,119,86.44Z" style="fill:url(#linear-gradient);" /><path class="cls-15" d="M107.33,71.92a4.39,4.39,0,1,1-8.78,0,4.28,4.28,0,0,1,.08-.81h8.62A4.28,4.28,0,0,1,107.33,71.92Z" style="fill:url(#linear-gradient-2);" /><path class="cls-12" d="M79.39,79.62H76.53a.57.57,0,0,1-.54-.38L75.57,78a.57.57,0,0,1,.54-.75H79a.57.57,0,0,1,.54.38l.42,1.24A.56.56,0,0,1,79.39,79.62Z" style="fill:#525559;" /><path class="cls-12" d="M80.61,84.5H77.75a.55.55,0,0,1-.53-.38l-.43-1.25a.57.57,0,0,1,.54-.75h2.85a.57.57,0,0,1,.54.39l.43,1.24A.57.57,0,0,1,80.61,84.5Z" style="fill:#525559;" /><path class="cls-12" d="M81.89,89.38H79A.57.57,0,0,1,78.5,89l-.43-1.24a.57.57,0,0,1,.54-.75h2.86a.56.56,0,0,1,.53.38l.43,1.25A.57.57,0,0,1,81.89,89.38Z" style="fill:#525559;" /><path class="cls-16" d="M52.5,191.35a1,1,0,0,1,0-2,4,4,0,0,0,4-3.72l4.69-70.39a1,1,0,0,1,2,.13l-4.7,70.39A6,6,0,0,1,52.5,191.35Z" style="fill:#90c6e0;" /><path class="cls-16" d="M78.31,191.35a1,1,0,0,0,0-2,4,4,0,0,1-4-3.72l-4.69-70.39a1,1,0,0,0-2,.13l4.69,70.39A6,6,0,0,0,78.31,191.35Z" style="fill:#90c6e0;" /><path class="cls-16" d="M160,191.35a1,1,0,0,1,0-2,4,4,0,0,0,4-3.72l4.69-70.39a1,1,0,0,1,2,.13L166,185.76A6,6,0,0,1,160,191.35Z" style="fill:#90c6e0;" /><path class="cls-16" d="M185.81,191.35a1,1,0,0,0,0-2,4,4,0,0,1-4-3.72l-4.69-70.39a1,1,0,0,0-2,.13l4.69,70.39A6,6,0,0,0,185.81,191.35Z" style="fill:#90c6e0;" /><rect class="cls-8" x="49" y="103.64" width="138.63" height="3.05" style="fill:#abdaf7;" /><rect class="cls-7" x="79.43" y="103.64" width="108.2" height="3.05" style="fill:#70b2dd;" /><path class="cls-7" d="M184.88,106.69v3.69a8.45,8.45,0,0,1-8.45,8.44H60.94a8.44,8.44,0,0,1-8.44-8.44v-3.69Z" style="fill:#70b2dd;" /><path class="cls-10" d="M184.88,106.69v3.69a8.18,8.18,0,0,1-7.88,8.44H77.75V106.69Z" style="fill:#4e8fb7;" /><path class="cls-17" d="M23.39,162.84l4.22,25.57a2.32,2.32,0,0,0,2.29,1.94H44.56a2.31,2.31,0,0,0,2.29-2l3.85-25.57a2.32,2.32,0,0,0-2.29-2.66H25.68A2.32,2.32,0,0,0,23.39,162.84Z" style="fill:none;stroke:#90c6e0;stroke-miterlimit:10;" /><g class="cls-18" style="clip-path:url(#clip-path);" ><rect class="cls-16" x="5.74" y="159.82" width="37.09" height="1.03" transform="translate(-106.26 64.14) rotate(-45)" style="fill:#90c6e0;" /><rect class="cls-16" x="8.58" y="162.66" width="37.09" height="1.02" transform="translate(-107.43 66.97) rotate(-45)" style="fill:#90c6e0;" /><rect class="cls-16" x="11.41" y="165.49" width="37.09" height="1.03" transform="translate(-108.61 69.8) rotate(-45)" style="fill:#90c6e0;" /><rect class="cls-16" x="14.24" y="168.32" width="37.09" height="1.02" transform="translate(-109.78 72.64) rotate(-45)" style="fill:#90c6e0;" /><rect class="cls-16" x="17.08" y="171.15" width="37.09" height="1.03" transform="translate(-110.95 75.47) rotate(-45)" style="fill:#90c6e0;" /><rect class="cls-16" x="19.91" y="173.99" width="37.09" height="1.02" transform="translate(-112.13 78.3) rotate(-45)" style="fill:#90c6e0;" /><rect class="cls-16" x="22.74" y="176.82" width="37.09" height="1.03" transform="translate(-113.3 81.14) rotate(-45)" style="fill:#90c6e0;" /><rect class="cls-16" x="25.58" y="179.66" width="37.09" height="1.03" transform="translate(-114.48 83.97) rotate(-45)" style="fill:#90c6e0;" /><rect class="cls-16" x="28.41" y="182.49" width="37.09" height="1.03" transform="translate(-115.65 86.81) rotate(-45)" style="fill:#90c6e0;" /><rect class="cls-16" x="31.25" y="185.33" width="37.09" height="1.03" transform="translate(-116.82 89.64) rotate(-45)" style="fill:#90c6e0;" /><rect class="cls-16" x="49.29" y="141.78" width="1.02" height="37.1" transform="translate(-98.79 82.18) rotate(-45)" style="fill:#90c6e0;" /><rect class="cls-16" x="46.45" y="144.62" width="1.03" height="37.1" transform="translate(-101.62 81) rotate(-45)" style="fill:#90c6e0;" /><rect class="cls-16" x="43.62" y="147.45" width="1.02" height="37.1" transform="translate(-104.46 79.82) rotate(-45)" style="fill:#90c6e0;" /><rect class="cls-16" x="40.78" y="150.28" width="1.03" height="37.1" transform="translate(-107.29 78.65) rotate(-45)" style="fill:#90c6e0;" /><rect class="cls-16" x="37.94" y="153.12" width="1.03" height="37.1" transform="translate(-110.12 77.47) rotate(-45)" style="fill:#90c6e0;" /><rect class="cls-16" x="35.11" y="155.95" width="1.03" height="37.1" transform="translate(-112.96 76.3) rotate(-45)" style="fill:#90c6e0;" /><rect class="cls-16" x="32.28" y="158.79" width="1.03" height="37.1" transform="translate(-115.79 75.13) rotate(-45)" style="fill:#90c6e0;" /><rect class="cls-16" x="29.45" y="161.62" width="1.02" height="37.1" transform="translate(-118.63 73.95) rotate(-45)" style="fill:#90c6e0;" /><rect class="cls-16" x="26.61" y="164.46" width="1.03" height="37.1" transform="translate(-121.45 72.77) rotate(-45)" style="fill:#90c6e0;" /><rect class="cls-16" x="23.78" y="167.29" width="1.02" height="37.1" transform="translate(-124.3 71.61) rotate(-45)" style="fill:#90c6e0;" /></g><path class="cls-16" d="M50.7,162.81l-.43,2.88H23.86l-.47-2.84a2.32,2.32,0,0,1,2.29-2.71H48.4A2.33,2.33,0,0,1,50.7,162.81Z" style="fill:#90c6e0;" /><path class="cls-16" d="M47,187.42l-.15,1a2.33,2.33,0,0,1-2.29,2H29.89a2.33,2.33,0,0,1-2.28-2l-.16-1Z" style="fill:#90c6e0;" /><path class="cls-8" d="M219.5,118.82l-8.57,12.31-1.43,2.06-7.83-15.33a33.77,33.77,0,0,1,8.5-22.08c8.66-9.54,7.42-16.54,7.33-17.06C218,79.51,227.31,95.55,219.5,118.82Z" style="fill:#abdaf7;" /><path class="cls-16" d="M219.5,118.82l-8.57,12.31c-.16-2.6.62-8.35,5.57-20.77,6.32-15.8,2.9-27.23,1-31.64C218,79.51,227.31,95.55,219.5,118.82Z" style="fill:#90c6e0;" /><path class="cls-16" d="M214.33,135.19l-1.33,9H200.67s-9.17-6-6.34-20.75c2.78-14.4-.84-20.47-1-20.74l.09,0C209.69,109.14,213.83,134.69,214.33,135.19Z" style="fill:#90c6e0;" /><path class="cls-7" d="M214.33,135.19l-1.33,9s-4.37,0-7-18.5c-2.45-17.34-11.45-22.38-12.58-23C209.69,109.14,213.83,134.69,214.33,135.19Z" style="fill:#70b2dd;" /><path class="cls-16" d="M224.89,144.19s0,3.33-.29,8.64c-.5,9-1.85,23.77-5.49,37.53h-18c-3.64-13.76-5-28.5-5.49-37.53-.29-5.31-.29-8.64-.29-8.64Z" style="fill:#90c6e0;" /><path class="cls-7" d="M224.89,144.19s0,3.33-.29,8.64h-29c-.29-5.31-.29-8.64-.29-8.64Z" style="fill:#70b2dd;" /><path class="cls-7" d="M238.75,119.44l-.08,0-.1,0c-1,.18-5.48,1-9.08,1.3h-.09a9.12,9.12,0,0,1-4.1-.61c-3.53,8.88.12,16.43-4.67,24h-12s-4.25-22.25,8.86-27.87a12,12,0,0,1,3.14-1c13.35-1.87,15,4.1,18.11,4.13Z" style="fill:#70b2dd;" /><path class="cls-16" d="M238.74,119.44l-.07,0-.1,0a37.48,37.48,0,0,1-9.08,1.3h-.09c-4.38,0-8.7-2.23-11.91-4.46a9.34,9.34,0,0,1,3.14-1C234,113.44,235.61,119.41,238.74,119.44Z" style="fill:#90c6e0;" /><path class="cls-19" d="M143,190.35s-2.59-9.41-.52-12l11-.37s1.58,2.83,1.67,12.41Z" style="fill:#9eb2ef;" /><polygon class="cls-20" points="131.18 138.49 139.63 178.31 156 178.31 150 135.18 131.18 138.49" style="fill:#1b3151;" /><path class="cls-19" d="M114.43,179.69a22.61,22.61,0,0,1,.65,10.66H92.75c-1.19,0-.49-2.24,1.5-3.91,2.88-2.43,7.8-4.78,8.12-6.75Z" style="fill:#9eb2ef;" /><path class="cls-21" d="M115,137.22l.88,42.47H100.62s-5.5-38.5-4.5-48.12,15.26-16.26,15.26-16.26l14.24,13.38L115,137.19Z" style="fill:#23406d;" /><path class="cls-20" d="M115.88,179.69H102.37c-.77-6.17-3.05-25.93-1.37-34.62,2-10.38,12.52-9.88,12.52-9.88l1.48,2Z" style="fill:#1b3151;" /><path class="cls-22" d="M129.19,57.29a2.77,2.77,0,0,0,.71-3.62s2.2-6,1-10.62-4-3.78-4-3.78.55-3.31-3.39-5.51-11.33.16-14.48,2-4.09-1.81-5.19-1.18-1.1,4.32,2.28,6.06c0,0-3.38-2.21-3.7-.56s.55,6.62,6.69,9.06l6.3,12.82L126,60.75S130.21,61.38,129.19,57.29Z" style="fill:url(#linear-gradient-3);" /><path class="cls-23" d="M108.18,45.64s.15,20.87,7.55,17.36l1.5,2.4,12.67-2.25-.71-5.86s-1.88,2.29-7.56,2.2c-5.11-.08-5-4.59-5-4.59s3.06-.71,1.57-4.25-4.57-2-3.39,2.76c0,0-3.24-1.24-2.45-6.11C112.35,47.3,109.51,47.14,108.18,45.64Z" style="fill:#feb19e;" /><path class="cls-24" d="M135.77,64s6.06-.82,11.56,6.34S162.83,97.1,149,96.77,135.77,64,135.77,64Z" style="fill:#3150bc;" /><path class="cls-19" d="M117,67.1l.15-2a3.59,3.59,0,0,1,2.8-3.25,44,44,0,0,1,9.31-1.12A3.63,3.63,0,0,1,132.69,63l.81,2.16Z" style="fill:#9eb2ef;" /><path class="cls-25" d="M153.25,105.69s-7.5,16.27-21.13,21.15-20.74-11.53-20.74-11.53l4.51-3.55-1-6.92L114,99.17l-.41-2.8-.09.15a39.68,39.68,0,0,1-5.45,7.12c-2.77,2.79-6.25,5.08-9.69,4-3.17-1-6.35-4.29-8.95-7.82a71.38,71.38,0,0,1-6.05-10c-2.19-1.07-4.38-6-3.88-8.88s3.69-3.75,3.69-3.75l3.5,2.44s2-1.62,3.06.38.5,6.29.5,6.29l3.9,2.16,4.68,2.59s2.21-11.17,7.29-18.42,11.56-7.5,17.21-8.17c17-2,18.4-.12,23.65,11.47l.14.32C152.5,88.19,153.25,105.69,153.25,105.69Z" style="fill:url(#linear-gradient-4);" /><path class="cls-26" d="M153.25,105.69s-7.5,16.27-21.13,21.15-20.74-11.53-20.74-11.53l4.51-3.55-1-6.92c2.88-3.1,8.36-7.55,18.64-12.3S146.52,81.2,147,76l.14.32C152.5,88.19,153.25,105.69,153.25,105.69Z" style="fill:#3150bc;opacity:0.3;mix-blend-mode:multiply;" /><path class="cls-26" d="M113.52,96.52a39.68,39.68,0,0,1-5.45,7.12c-3.35-9.9,2.22-24.33,2.22-24.33Z" style="fill:#3150bc;opacity:0.3;mix-blend-mode:multiply;" /><path class="cls-23" d="M89.43,99.87a71.38,71.38,0,0,1-6.05-10c-2.19-1.07-4.38-6-3.88-8.88s3.69-3.75,3.69-3.75l3.5,2.44s2-1.62,3.06.38.5,6.29.5,6.29l3.9,2.16C92,90.85,88.81,95.24,89.43,99.87Z" style="fill:#feb19e;" /><path class="cls-12" d="M86.69,79.69l-6.3-10.23a.83.83,0,0,0-1.15-.28h0A.84.84,0,0,0,79,70.35l6.66,10.27S86.63,80.44,86.69,79.69Z" style="fill:#525559;" /><path class="cls-19" d="M94.15,88.52s-4.4,2.92-5,12c0,0,1.87,4.25,2.81,4.62S95.1,93.84,98.55,91Z" style="fill:#9eb2ef;" /><polygon class="cls-10" points="106.13 138.72 97.83 190.35 101.98 190.35 111.83 138.79 106.13 138.72" style="fill:#4e8fb7;" /><polygon class="cls-16" points="113.52 138.72 119.5 190.35 123.33 190.35 118.43 138.72 113.52 138.72" style="fill:#90c6e0;" /><polygon class="cls-16" points="147.71 138.72 156 190.35 151.85 190.35 142 138.79 147.71 138.72" style="fill:#90c6e0;" /><polygon class="cls-10" points="140.31 138.72 134.33 190.35 130.5 190.35 135.41 138.72 140.31 138.72" style="fill:#4e8fb7;" /><path class="cls-8" d="M105.5,140.63s1-4.95,3.28-5.63,8.73-.51,10.36-2.89,10.49-30.61,14.78-33.71,31.58-1.56,31.58-1.56l-10.41,37.38a9.34,9.34,0,0,1-9.06,7Z" style="fill:#abdaf7;" /></g></g></g></svg>