<svg xmlns="http://www.w3.org/2000/svg" xmlns:xlink="http://www.w3.org/1999/xlink" viewBox="0 0 165.77 255.26"><defs><style>.cls-1{isolation:isolate;}.cls-2{fill:url(#Áåçûìÿííûé_ãðàäèåíò_373);}.cls-3{opacity:0.86;fill:url(#Áåçûìÿííûé_ãðàäèåíò_75);}.cls-11,.cls-12,.cls-14,.cls-26,.cls-3,.cls-32,.cls-52,.cls-57,.cls-58,.cls-59,.cls-60,.cls-63{mix-blend-mode:multiply;}.cls-4{fill:url(#Áåçûìÿííûé_ãðàäèåíò_71);}.cls-5{fill:url(#Áåçûìÿííûé_ãðàäèåíò_48);}.cls-6{fill:url(#Áåçûìÿííûé_ãðàäèåíò_161);}.cls-7{fill:url(#Áåçûìÿííûé_ãðàäèåíò_45);}.cls-8{fill:#ff97ed;}.cls-9{fill:url(#Áåçûìÿííûé_ãðàäèåíò_134);}.cls-10{fill:url(#Áåçûìÿííûé_ãðàäèåíò_134-2);}.cls-11,.cls-12,.cls-14,.cls-26,.cls-32,.cls-52,.cls-57,.cls-58,.cls-59{opacity:0.62;}.cls-11{fill:url(#Áåçûìÿííûé_ãðàäèåíò_75-2);}.cls-12{fill:url(#Áåçûìÿííûé_ãðàäèåíò_75-3);}.cls-13{fill:url(#Áåçûìÿííûé_ãðàäèåíò_322);}.cls-14{fill:url(#Áåçûìÿííûé_ãðàäèåíò_75-4);}.cls-15{fill:#a74aff;}.cls-16{fill:url(#Áåçûìÿííûé_ãðàäèåíò_45-2);}.cls-17{fill:url(#Áåçûìÿííûé_ãðàäèåíò_71-2);}.cls-18{fill:url(#Áåçûìÿííûé_ãðàäèåíò_30);}.cls-19{fill:url(#Áåçûìÿííûé_ãðàäèåíò_322-2);}.cls-20{fill:url(#Áåçûìÿííûé_ãðàäèåíò_15);}.cls-21{fill:#e87a8d;}.cls-22{fill:url(#Áåçûìÿííûé_ãðàäèåíò_326);}.cls-23{fill:url(#Áåçûìÿííûé_ãðàäèåíò_9);}.cls-24{fill:url(#Áåçûìÿííûé_ãðàäèåíò_48-2);}.cls-25{fill:#ffacff;}.cls-26{fill:url(#Áåçûìÿííûé_ãðàäèåíò_75-5);}.cls-27{fill:url(#Áåçûìÿííûé_ãðàäèåíò_13);}.cls-28{fill:url(#Áåçûìÿííûé_ãðàäèåíò_78);}.cls-29{fill:url(#Áåçûìÿííûé_ãðàäèåíò_96);}.cls-30{fill:url(#Áåçûìÿííûé_ãðàäèåíò_69);}.cls-31{fill:url(#Áåçûìÿííûé_ãðàäèåíò_13-2);}.cls-32{fill:url(#Áåçûìÿííûé_ãðàäèåíò_75-6);}.cls-33{fill:url(#Áåçûìÿííûé_ãðàäèåíò_71-3);}.cls-34{fill:#77485e;}.cls-35{fill:url(#Áåçûìÿííûé_ãðàäèåíò_48-3);}.cls-36{fill:url(#Áåçûìÿííûé_ãðàäèåíò_69-2);}.cls-37{fill:url(#Áåçûìÿííûé_ãðàäèåíò_62);}.cls-38{fill:url(#Áåçûìÿííûé_ãðàäèåíò_19);}.cls-39{fill:url(#Áåçûìÿííûé_ãðàäèåíò_69-3);}.cls-40{fill:url(#Áåçûìÿííûé_ãðàäèåíò_74);}.cls-41{fill:url(#Áåçûìÿííûé_ãðàäèåíò_94);}.cls-42{fill:url(#Áåçûìÿííûé_ãðàäèåíò_74-2);}.cls-43{fill:url(#Áåçûìÿííûé_ãðàäèåíò_94-2);}.cls-44{fill:#fff;}.cls-45{fill:url(#Áåçûìÿííûé_ãðàäèåíò_27);}.cls-46{fill:url(#Áåçûìÿííûé_ãðàäèåíò_134-3);}.cls-47{fill:#9f4a8b;}.cls-48{fill:#9f3e8b;}.cls-49{fill:url(#Áåçûìÿííûé_ãðàäèåíò_52);}.cls-50{fill:#ffebed;}.cls-51{fill:#ff9aab;}.cls-52{fill:url(#Áåçûìÿííûé_ãðàäèåíò_75-7);}.cls-53{fill:url(#Áåçûìÿííûé_ãðàäèåíò_322-3);}.cls-54{fill:url(#Áåçûìÿííûé_ãðàäèåíò_134-4);}.cls-55{fill:url(#Áåçûìÿííûé_ãðàäèåíò_45-3);}.cls-56{fill:url(#Áåçûìÿííûé_ãðàäèåíò_45-4);}.cls-57{fill:url(#Áåçûìÿííûé_ãðàäèåíò_75-8);}.cls-58{fill:url(#Áåçûìÿííûé_ãðàäèåíò_75-9);}.cls-59{fill:url(#Áåçûìÿííûé_ãðàäèåíò_75-10);}.cls-60{opacity:0.5;fill:url(#Áåçûìÿííûé_ãðàäèåíò_75-11);}.cls-61{fill:url(#Áåçûìÿííûé_ãðàäèåíò_326-2);}.cls-62{fill:url(#Áåçûìÿííûé_ãðàäèåíò_9-2);}.cls-63{opacity:0.3;fill:url(#Áåçûìÿííûé_ãðàäèåíò_75-12);}</style><linearGradient id="Áåçûìÿííûé_ãðàäèåíò_373" x1="100.36" y1="255.26" x2="100.36" y2="204.1" gradientUnits="userSpaceOnUse"><stop offset="0" stop-color="#1c257b"/><stop offset="1" stop-color="#482c83"/></linearGradient><linearGradient id="Áåçûìÿííûé_ãðàäèåíò_75" x1="99.18" y1="252.65" x2="99.18" y2="218.47" gradientUnits="userSpaceOnUse"><stop offset="0" stop-color="#8b8be0"/><stop offset="1" stop-color="#a177b7"/></linearGradient><linearGradient id="Áåçûìÿííûé_ãðàäèåíò_71" x1="16.92" y1="96.04" x2="16.92" y2="35.27" gradientUnits="userSpaceOnUse"><stop offset="0.02" stop-color="#ffc2a9"/><stop offset="1" stop-color="#ff9595"/></linearGradient><linearGradient id="Áåçûìÿííûé_ãðàäèåíò_48" x1="49.62" y1="137.56" x2="49.62" y2="73.13" gradientUnits="userSpaceOnUse"><stop offset="0" stop-color="#d191ff"/><stop offset="1" stop-color="#cf95ff"/></linearGradient><linearGradient id="Áåçûìÿííûé_ãðàäèåíò_161" x1="49.69" y1="137.57" x2="49.69" y2="73.13" gradientUnits="userSpaceOnUse"><stop offset="0" stop-color="#9570ff"/><stop offset="1" stop-color="#cf95ff"/></linearGradient><linearGradient id="Áåçûìÿííûé_ãðàäèåíò_45" x1="24.8" y1="87.8" x2="24.8" y2="74.31" gradientUnits="userSpaceOnUse"><stop offset="0" stop-color="#ff817f"/><stop offset="1" stop-color="#cf6074"/></linearGradient><linearGradient id="Áåçûìÿííûé_ãðàäèåíò_134" x1="21.97" y1="64.89" x2="27.06" y2="49.32" gradientUnits="userSpaceOnUse"><stop offset="0" stop-color="#ff8883"/><stop offset="1" stop-color="#e8868d"/></linearGradient><linearGradient id="Áåçûìÿííûé_ãðàäèåíò_134-2" x1="12.31" y1="59.73" x2="16.05" y2="48.27" xlink:href="#Áåçûìÿííûé_ãðàäèåíò_134"/><linearGradient id="Áåçûìÿííûé_ãðàäèåíò_75-2" x1="24.74" y1="91.09" x2="24.74" y2="73.13" xlink:href="#Áåçûìÿííûé_ãðàäèåíò_75"/><linearGradient id="Áåçûìÿííûé_ãðàäèåíò_75-3" x1="60.52" y1="136.28" x2="60.52" y2="90.43" xlink:href="#Áåçûìÿííûé_ãðàäèåíò_75"/><linearGradient id="Áåçûìÿííûé_ãðàäèåíò_322" x1="150.25" y1="20.52" x2="150.25" y2="-16.34" gradientTransform="translate(12.22 -33.37) rotate(20.07)" gradientUnits="userSpaceOnUse"><stop offset="0" stop-color="#b31a8f"/><stop offset="1" stop-color="#fe117e"/></linearGradient><linearGradient id="Áåçûìÿííûé_ãðàäèåíò_75-4" x1="150.57" y1="39.39" x2="150.57" y2="0" xlink:href="#Áåçûìÿííûé_ãðàäèåíò_75"/><linearGradient id="Áåçûìÿííûé_ãðàäèåíò_45-2" x1="88.29" y1="124.36" x2="88.29" y2="107.22" xlink:href="#Áåçûìÿííûé_ãðàäèåíò_45"/><linearGradient id="Áåçûìÿííûé_ãðàäèåíò_71-2" x1="92.29" y1="108.31" x2="92.29" y2="18.51" xlink:href="#Áåçûìÿííûé_ãðàäèåíò_71"/><linearGradient id="Áåçûìÿííûé_ãðàäèåíò_30" x1="95.58" y1="108.31" x2="95.58" y2="18.51" gradientUnits="userSpaceOnUse"><stop offset="0.02" stop-color="#ffa58b"/><stop offset="1" stop-color="#ff898e"/></linearGradient><linearGradient id="Áåçûìÿííûé_ãðàäèåíò_322-2" x1="106.12" y1="93.48" x2="106.12" y2="10.39" gradientTransform="matrix(1, 0, 0, 1, 0, 0)" xlink:href="#Áåçûìÿííûé_ãðàäèåíò_322"/><linearGradient id="Áåçûìÿííûé_ãðàäèåíò_15" x1="134.2" y1="102.46" x2="134.2" y2="75.43" gradientUnits="userSpaceOnUse"><stop offset="0.02" stop-color="#ffac8b"/><stop offset="1" stop-color="#ff9595"/></linearGradient><linearGradient id="Áåçûìÿííûé_ãðàäèåíò_326" x1="78.47" y1="27.87" x2="78.47" y2="14.1" gradientUnits="userSpaceOnUse"><stop offset="0" stop-color="#b31a8f"/><stop offset="1" stop-color="#92117e"/></linearGradient><linearGradient id="Áåçûìÿííûé_ãðàäèåíò_9" x1="74.79" y1="50.62" x2="74.79" y2="14.4" gradientUnits="userSpaceOnUse"><stop offset="0" stop-color="#d61a8f"/><stop offset="1" stop-color="#fe3ca6"/></linearGradient><linearGradient id="Áåçûìÿííûé_ãðàäèåíò_48-2" x1="102.91" y1="232.95" x2="102.91" y2="109.96" xlink:href="#Áåçûìÿííûé_ãðàäèåíò_48"/><linearGradient id="Áåçûìÿííûé_ãðàäèåíò_75-5" x1="95.42" y1="232.95" x2="95.42" y2="191.61" xlink:href="#Áåçûìÿííûé_ãðàäèåíò_75"/><linearGradient id="Áåçûìÿííûé_ãðàäèåíò_13" x1="97.44" y1="162.32" x2="137.53" y2="162.32" gradientUnits="userSpaceOnUse"><stop offset="0" stop-color="#5142d8"/><stop offset="1" stop-color="#3989e8"/></linearGradient><linearGradient id="Áåçûìÿííûé_ãðàäèåíò_78" x1="124.95" y1="199.07" x2="124.95" y2="125.56" gradientUnits="userSpaceOnUse"><stop offset="0" stop-color="#3d2cb0"/><stop offset="1" stop-color="#0355c7"/></linearGradient><linearGradient id="Áåçûìÿííûé_ãðàäèåíò_96" x1="98.73" y1="201.61" x2="98.73" y2="120.46" gradientUnits="userSpaceOnUse"><stop offset="0" stop-color="#744fd8"/><stop offset="1" stop-color="#3996f7"/></linearGradient><linearGradient id="Áåçûìÿííûé_ãðàäèåíò_69" x1="125.08" y1="199.22" x2="125.08" y2="124.36" gradientUnits="userSpaceOnUse"><stop offset="0" stop-color="#d0c7f8"/><stop offset="1" stop-color="#fff"/></linearGradient><linearGradient id="Áåçûìÿííûé_ãðàäèåíò_13-2" x1="119.61" y1="201.61" x2="119.61" y2="120.82" xlink:href="#Áåçûìÿííûé_ãðàäèåíò_13"/><linearGradient id="Áåçûìÿííûé_ãðàäèåíò_75-6" x1="101.05" y1="182.7" x2="109.01" y2="158.36" xlink:href="#Áåçûìÿííûé_ãðàäèåíò_75"/><linearGradient id="Áåçûìÿííûé_ãðàäèåíò_71-3" x1="75.56" y1="160.84" x2="121.67" y2="160.84" xlink:href="#Áåçûìÿííûé_ãðàäèåíò_71"/><linearGradient id="Áåçûìÿííûé_ãðàäèåíò_48-3" x1="130.83" y1="173.87" x2="130.83" y2="149.06" xlink:href="#Áåçûìÿííûé_ãðàäèåíò_48"/><linearGradient id="Áåçûìÿííûé_ãðàäèåíò_69-2" x1="101.62" y1="71.87" x2="101.62" y2="42.78" xlink:href="#Áåçûìÿííûé_ãðàäèåíò_69"/><linearGradient id="Áåçûìÿííûé_ãðàäèåíò_62" x1="97.65" y1="36.69" x2="119.6" y2="36.69" gradientUnits="userSpaceOnUse"><stop offset="0" stop-color="#bd33a0"/><stop offset="1" stop-color="#0665a5"/></linearGradient><linearGradient id="Áåçûìÿííûé_ãðàäèåíò_19" x1="66.88" y1="25.49" x2="69.71" y2="34.74" gradientUnits="userSpaceOnUse"><stop offset="0" stop-color="#0665a5"/><stop offset="1" stop-color="#bd33a0"/></linearGradient><linearGradient id="Áåçûìÿííûé_ãðàäèåíò_69-3" x1="60.47" y1="62.89" x2="60.47" y2="36.69" xlink:href="#Áåçûìÿííûé_ãðàäèåíò_69"/><radialGradient id="Áåçûìÿííûé_ãðàäèåíò_74" cx="102.46" cy="65.67" r="9.14" gradientUnits="userSpaceOnUse"><stop offset="0" stop-color="#cf95ff"/><stop offset="1" stop-color="#8161ff"/></radialGradient><linearGradient id="Áåçûìÿííûé_ãðàäèåíò_94" x1="102.17" y1="68.35" x2="102.17" y2="55.42" gradientUnits="userSpaceOnUse"><stop offset="0" stop-color="#8642a0"/><stop offset="1" stop-color="#4e37b7"/></linearGradient><radialGradient id="Áåçûìÿííûé_ãðàäèåíò_74-2" cx="62.03" cy="57.31" r="6.61" xlink:href="#Áåçûìÿííûé_ãðàäèåíò_74"/><linearGradient id="Áåçûìÿííûé_ãðàäèåíò_94-2" x1="62.27" y1="53.38" x2="62.27" y2="40.45" gradientTransform="translate(109.62 -8.59) rotate(90)" xlink:href="#Áåçûìÿííûé_ãðàäèåíò_94"/><linearGradient id="Áåçûìÿííûé_ãðàäèåíò_27" x1="67.23" y1="59.27" x2="67.23" y2="47.94" gradientTransform="translate(22.61 -3.76) rotate(18.11)" gradientUnits="userSpaceOnUse"><stop offset="0" stop-color="#ff8883"/><stop offset="1" stop-color="#ffb1a4"/></linearGradient><linearGradient id="Áåçûìÿííûé_ãðàäèåíò_134-3" x1="67.24" y1="59.27" x2="67.24" y2="52.88" gradientTransform="translate(22.61 -3.76) rotate(18.11)" xlink:href="#Áåçûìÿííûé_ãðàäèåíò_134"/><linearGradient id="Áåçûìÿííûé_ãðàäèåíò_52" x1="73.68" y1="98.39" x2="73.68" y2="86.51" gradientUnits="userSpaceOnUse"><stop offset="0" stop-color="#cf6074"/><stop offset="1" stop-color="#e04a7f"/></linearGradient><linearGradient id="Áåçûìÿííûé_ãðàäèåíò_75-7" x1="137.79" y1="82.01" x2="137.79" y2="26.43" xlink:href="#Áåçûìÿííûé_ãðàäèåíò_75"/><linearGradient id="Áåçûìÿííûé_ãðàäèåíò_322-3" x1="126.92" y1="129.1" x2="126.92" y2="22.37" gradientTransform="matrix(1, 0, 0, 1, 0, 0)" xlink:href="#Áåçûìÿííûé_ãðàäèåíò_322"/><linearGradient id="Áåçûìÿííûé_ãðàäèåíò_134-4" x1="10.25" y1="50.9" x2="13.87" y2="39.85" xlink:href="#Áåçûìÿííûé_ãðàäèåíò_134"/><linearGradient id="Áåçûìÿííûé_ãðàäèåíò_45-3" x1="116.5" y1="171.02" x2="119.68" y2="161.29" xlink:href="#Áåçûìÿííûé_ãðàäèåíò_45"/><linearGradient id="Áåçûìÿííûé_ãðàäèåíò_45-4" x1="84.64" y1="166.65" x2="85.4" y2="164.31" xlink:href="#Áåçûìÿííûé_ãðàäèåíò_45"/><linearGradient id="Áåçûìÿííûé_ãðàäèåíò_75-8" x1="130.85" y1="173.87" x2="130.85" y2="156.41" xlink:href="#Áåçûìÿííûé_ãðàäèåíò_75"/><linearGradient id="Áåçûìÿííûé_ãðàäèåíò_75-9" x1="136.86" y1="151.36" x2="136.86" y2="145.02" xlink:href="#Áåçûìÿííûé_ãðàäèåíò_75"/><linearGradient id="Áåçûìÿííûé_ãðàäèåíò_75-10" x1="92.86" y1="220.44" x2="92.86" y2="210.12" xlink:href="#Áåçûìÿííûé_ãðàäèåíò_75"/><linearGradient id="Áåçûìÿííûé_ãðàäèåíò_75-11" x1="70.34" y1="232.37" x2="70.34" y2="223.16" xlink:href="#Áåçûìÿííûé_ãðàäèåíò_75"/><linearGradient id="Áåçûìÿííûé_ãðàäèåíò_326-2" x1="112.44" y1="42.07" x2="112.44" y2="13.66" xlink:href="#Áåçûìÿííûé_ãðàäèåíò_326"/><linearGradient id="Áåçûìÿííûé_ãðàäèåíò_9-2" x1="124.23" y1="123.42" x2="124.23" y2="12.57" xlink:href="#Áåçûìÿííûé_ãðàäèåíò_9"/><linearGradient id="Áåçûìÿííûé_ãðàäèåíò_75-12" x1="104.66" y1="232.95" x2="104.66" y2="210.64" xlink:href="#Áåçûìÿííûé_ãðàäèåíò_75"/></defs><g class="cls-1"><g id="Layer_2" data-name="Layer 2"><g id="illustration"><path class="cls-2" d="M134.9,255.26H111.31c-.38-.85-.75-1.72-1.12-2.6h0c-4.81-11.39-8.73-24.07-8.73-24.07-2.27-1.71-6.44,0-6.44,0a27.27,27.27,0,0,0-1.64,3.91c-2,6-3.47,14.37-4.21,19.48a.18.18,0,0,0,0,.06c-.38,2.66-.43,3.23-.43,3.23H66.39A140.11,140.11,0,0,1,66,236v-.14c.08-2.16.19-3.94.28-5.2l0-.35c.08-1.09.14-1.69.14-1.69,1.32-8.72,45.66-24.45,45.66-24.45s13.83-1.13,17.24,11.56c.85,3.17,1.63,7.23,2.31,11.54,0,.09,0,.18,0,.27.05.3.1.61.14.91l.09.58c0,.23.07.46.11.68s0,.33.07.49.05.37.08.55,0,.33.07.5,0,.2,0,.29,0,.31.07.47,0,.26,0,.39C134,243.83,134.9,255.26,134.9,255.26Z"/><path class="cls-3" d="M132.39,232.37h0c-.25-.06-4.46-1-12.77,4.24s-9.38,15.61-9.42,16.05c-4.81-11.39-8.73-24.07-8.73-24.07-2.27-1.71-6.44,0-6.44,0a27.27,27.27,0,0,0-1.64,3.91h0c-2.39,6.53-4,18.28-4.2,19.48a.18.18,0,0,0,0,.06v0s-1.71-5.49-8.91-10.23A40.68,40.68,0,0,0,66,236v-.14l.28-5.2,0-.35,50.28-11.8s13.27,1.07,13.9,2.84a55,55,0,0,1,1.17,5.92c0,.09,0,.18,0,.27.05.31.1.61.14.91l.09.58c0,.23.07.46.11.68s0,.33.07.49.05.38.08.55,0,.33.07.5,0,.2,0,.29,0,.31.07.47S132.39,232.37,132.39,232.37Z"/><path class="cls-4" d="M23.5,96a122.83,122.83,0,0,1-5.12-19A36.17,36.17,0,0,1,7.3,64.74,72.9,72.9,0,0,0,3.22,57.2C1,53.79-.57,48.48.19,46.77s3.13,1.54,4.26,3.85a53,53,0,0,0,3.79,5.91L9,55.68S7.11,49.14,6.63,46.3s-.19-7.2.38-8.43,2.27-.38,2.84.66c0,0-.57-1.89.19-2.56s3.79,1.14,4.83,4.46,1,4.83,1.43,6.16a30.31,30.31,0,0,0,1.23,2.84,77.31,77.31,0,0,1-1.33-8.62c-.19-3.22.3-5.34,1.34-5.53s2.77,2.87,2.82,6.67c0,2.85,1,4.92,2,7.38a27.21,27.21,0,0,0,3.91,5.93,2.16,2.16,0,0,0,1.32-2c-.09-1.43-1-4.31-.43-6.41.85-2.91,3.79-4.23,4.73-3.76s-1,6.05,0,8.85a49.09,49.09,0,0,1,2,7.63c.29,1.9-5,10-5.21,11.47S32,80.31,32,80.31,27.38,93.76,23.5,96Z"/><path class="cls-5" d="M29.09,73.16s.94-.27,2.46.87,1,4.67,1,4.67S37,86.85,47,96s25.64,13.73,29.43,14.87a18,18,0,0,1,5.94,3l-13.27,23.7A152.43,152.43,0,0,0,49.61,122c-10.86-7.2-15.28-8.34-19.83-13.14s-8.21-14.4-9.1-15.41-3.49-1.77-3.76-3.66,3-5.61,3-5.61l1.3,3.59s8.72-4,8.87-12.06Z"/><path class="cls-6" d="M82.48,114,69.06,137.57s-.48-.47-1.37-1.29h0A154.54,154.54,0,0,0,49.61,122c-3.55-2.35-6.41-4.06-8.81-5.45-5-2.88-8-4.46-11-7.69-4.55-4.8-8.21-14.4-9.1-15.41s-2.86-1.58-3.56-3h0a2,2,0,0,1-.2-.65c-.27-1.9,3-5.61,3-5.61l1.3,3.59s8.71-4,8.86-12.06l-1.19-2.58a3.49,3.49,0,0,1,2.68.87,3.31,3.31,0,0,1,1,2.31,10,10,0,0,1,0,2.36,67.19,67.19,0,0,0,8.76,11.66l.06.07C43,92.21,44.85,94.1,47,96c10,9.19,25.65,13.74,29.44,14.87a19.51,19.51,0,0,1,3.85,1.63A14.62,14.62,0,0,1,82.48,114Z"/><path class="cls-7" d="M29.39,74.31a9.36,9.36,0,0,1-9.85,8.47,35.33,35.33,0,0,0,1.65,5s8.43-3.45,8.87-12.06Z"/><polygon class="cls-8" points="59.01 126.73 65.31 125.97 65.31 128.53 60.54 129.1 59.01 126.73"/><path class="cls-9" d="M25.76,54.67s-3.92,1.48-6.22,9.42c0,0,4.25-6.66,7.37-8,2.48-1.06.44-6.4.05-6.83C28.37,54.59,25.76,54.67,25.76,54.67Z"/><path class="cls-10" d="M7.55,58.17a30.21,30.21,0,0,1,13.26-8.34A15.17,15.17,0,0,0,7.55,58.17Z"/><path class="cls-11" d="M32.57,76.34c-.75,2.42-2.21,7.41-5.25,10.76-5.48,6-9.94,3.44-10.2,3.38h0a2,2,0,0,1-.2-.65c-.27-1.9,3-5.61,3-5.61l1.3,3.59s8.71-4,8.86-12.06l-1.19-2.58a3.49,3.49,0,0,1,2.68.87A3.31,3.31,0,0,1,32.57,76.34Z"/><path class="cls-12" d="M80.24,112.54,67.69,136.28h0A154.54,154.54,0,0,0,49.61,122c-3.55-2.35-6.41-4.06-8.81-5.45a135.55,135.55,0,0,1,21.05,11.51L63.76,110s-1.9-.31-9.73-6.75A87.48,87.48,0,0,1,41.37,90.43C43,92.21,44.85,94.1,47,96c10,9.19,25.65,13.74,29.44,14.87A19.51,19.51,0,0,1,80.24,112.54Z"/><path class="cls-13" d="M133.59,21.63S137,5.26,150.8,0a17.17,17.17,0,0,1,12.41,11.8l-7,5.72,7.53-3.5a10.84,10.84,0,0,1,1.61,9.14s-9.32,5.2-17.42,7.48c0,0,9.46,0,17.49,4.65a5.44,5.44,0,0,1-1.5,4.1,44.8,44.8,0,0,0-16.13-5.89l-4.56,2.84Z"/><path class="cls-14" d="M150.8,0s-6,1.23-12.58,14.1c0,0,2,2.45,9.54,1.41a99.17,99.17,0,0,0,15.45-3.71l-7,5.72-7.92,4.85a67.67,67.67,0,0,0,9.67-3.26C162.76,17,163.71,14,163.71,14a10.25,10.25,0,0,1,1.61,9.14s-9.45,5.46-17.42,7.48c0,0,4.28,2.31,9.65,4.66s6.34,4.09,6.34,4.09S155,34.08,147.76,33.5L135.38,16.2S139.64,4.35,150.8,0Z"/><path class="cls-15" d="M131.84,19.7s.76-3.1,3.54-3.5,12.38,6.07,12.38,17.3c0,0,.12,2-3.16,1.77S131.84,19.7,131.84,19.7Z"/><path class="cls-16" d="M95.5,107.22a29.19,29.19,0,0,0,0,6.44L97.44,115s-8.67,9.37-14.92,9.37-1.9-8.33-1.9-8.33a4.7,4.7,0,0,0,1.9-2.47c.38-1.51-1-5.87-1-5.87Z"/><path class="cls-17" d="M125.9,93.48c-10.27,10.27-28.61,15.89-45.84,14.66l-3-.29H77c-.81-.1-1.63-.21-2.44-.34-18.69-3-29-20.62-28.73-29.47s4-12.84,6.57-17.39,3.65-22.09,12-32.15c6.61-8,25.74-10.64,39.37-9.85a36.81,36.81,0,0,1,33,25.77C141.75,60.07,137.27,82.11,125.9,93.48Z"/><path class="cls-18" d="M125.9,93.48c-10.27,10.27-28.61,15.89-45.84,14.66l-3-.29h0c11.72-.68,31.59-2.49,38.2-15.39,7-13.71,3.08-23.35,3.08-23.35-12.88,10-31.83.87-31.83.87-2-21,8.21-42.1,8.21-42.1C80.66,23.31,73,32.6,73,32.6a53.11,53.11,0,0,1-8.45,30.81c-9.14,4.28-12.2-2.77-12.2-2.77,2.52-4.55,3.65-22.09,12-32.15,6.61-8,25.74-10.64,39.37-9.85a36.81,36.81,0,0,1,33,25.77C141.75,60.07,137.27,82.11,125.9,93.48Z"/><path class="cls-19" d="M92.35,18.83a18.79,18.79,0,0,0-11.92-3c-6.63.75-12.23,3.85-15.51,12.07l-2.5,3.3s2.85-13.1,10-18.6S96.6,13.66,96.6,13.66a51.34,51.34,0,0,1,13.31-1c12.46.45,23.1,4.21,33.81,17.76,10.57,13.38,5.49,44.33-.95,52.48s-16.86,10.61-16.86,10.61L125.81,82s8.54-18,5.27-34.76c-3.47-17.81-14.17-24.31-23-26.4C97.45,18.33,92.35,18.83,92.35,18.83Z"/><path class="cls-20" d="M126.41,81.48s8.34-8.59,15.54-5.31c8.54,3.9,6.06,17.82-.76,23.5-5.93,4.94-16.8,3-20.08-3.41C121.11,96.26,119.84,86.91,126.41,81.48Z"/><path class="cls-21" d="M125.08,88.17S131,82.36,137.72,83s6.75,6.44,6.75,6.44-1.43-4.11-5.7-4.3a6,6,0,0,0-5.79,3s2.21-.12,3.28,3.35-5,7.45-8.71,5.31S125.08,88.17,125.08,88.17Z"/><path class="cls-22" d="M64.6,27.87s9.58-8.17,27.75-9c0,0-9.27-6.52-15.83-4.25C70.61,16.63,65.1,25.37,64.6,27.87Z"/><path class="cls-23" d="M94.46,18.81S82.75,10.87,69.1,16.29C55.73,21.6,54,40.17,55.62,50.62l2.74-7.92s-1-20.37,10.8-25.29a20.94,20.94,0,0,1,20.3,1.71Z"/><path class="cls-24" d="M111.12,151.46c1.64,13.43,7.61,31,11.62,40.15.17.4.34.79.51,1.16,4,8.71,6.44,7.57,7.39,10s-.76,8-.76,8a14.7,14.7,0,0,1,1.71,9.85l0,0c-.47.51-8.35,8.59-33,11.35a130.55,130.55,0,0,1-20.87.84h-.3l-.55,0h0l-1.92-.14-.28,0-.92-.09c-.9-.09-1.49-.17-1.49-.17l-1.42-.18a29,29,0,0,1-7.14-1.72,11.87,11.87,0,0,1,0-7.2l-.19-.15c-.85-.66-4.24-3.51-4.45-6.8v-.06c-.19-3.79,1.89-6.25,3.22-10.61s1.7-50.78,4-63.47S77.78,114.7,77.78,114.7s-1.39-3.79,1.36-3.6,3.4,1.12,3.4,1.12a3.24,3.24,0,0,1-.06,1.79c-1.63,2.86-4.83,7.95.47,8.08,7.58.19,12.36-12.13,12.36-12.13,2.57.19,2.12,3.23,2.12,3.23a22.76,22.76,0,0,1,5.78,2.6,98.17,98.17,0,0,1,14.73,16c6.26,8.34,18.38,12.13,24.26,18.95s4.46,16.94,4.46,16.94c-3,2.65-14.85,3.34-14.85,3.34A50.37,50.37,0,0,0,124.22,159C119.7,154.11,111.12,151.46,111.12,151.46Z"/><path class="cls-25" d="M114.86,205s4.63,1.24,5.25,2.46a10,10,0,0,1,.74,3.19l1.49-1.11s.5-2.38-.08-3.13-3.56-1.47-3.56-1.47Z"/><path class="cls-25" d="M98.6,201.61a38,38,0,0,1-6.29,4.86l3.5,1.31s5-4.32,6-6.17Z"/><path class="cls-26" d="M131.59,220.62s-7.58,8.52-33,11.37-34.93-1.52-34.93-1.52c36.7,8.15,64.51-8.68,64.51-8.68,1.67-4-3.1-10.08-3.1-10.08-27.92,11.18-61.41,11.56-61.41,11.56l-.19-.15-.32-.26c-3.95-3.17-4.13-6.1-4.13-6.54v-.06s13.79,4.42,34,.38a117.47,117.47,0,0,0,35.65-13.77s-33.09,2-36.94,0-9.41-7.33-9.41-7.33l40.41-3.93c.17.4.34.79.51,1.16,4,8.71,6.44,7.57,7.39,10s-.76,8-.76,8A14.7,14.7,0,0,1,131.59,220.62Z"/><polygon class="cls-27" points="97.44 125.56 134.91 125.56 137.53 127.33 128.62 198.76 126.46 199.07 97.44 195.54 97.44 125.56"/><polygon class="cls-28" points="134.91 125.56 126.46 199.07 115 197.85 123.95 125.56 134.91 125.56"/><path class="cls-29" d="M73.36,195.29s-.91-48.76,2.2-74c0,0,26.76-1.46,46.46-.45l2.21,1.21-6.16,78.57-3.07,1Z"/><path class="cls-30" d="M124,124.36s3.89,3.23,7.93,3.48l-7,69.72s-4.08-.56-6.77,1.66Z"/><polygon class="cls-31" points="124.23 122.03 122.02 120.82 115 201.61 118.07 200.6 124.23 122.03"/><path class="cls-32" d="M78.16,165.4s4.67,5.92,7.07,8.35l2,2.06-5.66.21a61.75,61.75,0,0,0,9.26,3.2c4.17.94,26,1.33,26,1.33h2.81l.26-3.28,7-.8,2,1.33,2.34-.13.72-5.76-3.22-7.09-23,1.32Z"/><path class="cls-33" d="M116.05,159.8l-2-.07s-1.51-6.63-2.9-8.27-6.45-2.65-9.73-4.67-4.42-3-5.18-1.9.14,5.37,2.38,6.44,4.57,1.52,5.07,2.15a4.16,4.16,0,0,1,.57,2s-6.57,1-10-.51a22.29,22.29,0,0,0-9.34-2.33c-2.85.06-3.73,1.2-3.67,1.83s5.43,3,7.71,4,4,2,4,2a20.58,20.58,0,0,1-5.88.57c-2.59-.25-4.8-1.32-7.64-1s-3.66,1.45-3.85,2.09,1.7,1.32,1.7,1.32a.86.86,0,0,0-.56.82c-.07.7,4.1,3.92,7,5.56a20.42,20.42,0,0,0,7.2,2,2.27,2.27,0,0,1-1,1.52c-.89.63-3.1.63-4.74.56s-4.92-.06-5.56.95,4.68,2.09,7.27,2.46,11.24-.25,16.67-1.57a28.5,28.5,0,0,0,9.7-4.71l8.36.16S121.67,162.38,116.05,159.8Z"/><path class="cls-34" d="M89.3,51.93s1.54-9.42,8.35-11.06C105,39.12,114.41,45.93,115,56.54Z"/><path class="cls-34" d="M67.37,49.83s1.1-9.59-2.77-15-7.08,8.66-7.08,8.66Z"/><path class="cls-35" d="M146.37,168.13c-1,.89-5.56,3.33-19.05,4.27,0,0-3,1.8-5.65,1.42a4.58,4.58,0,0,1-3.54-2.85l3.54.07s-1.2-9-6.68-11.28c0,0-.62-2.79.8-3.35,1.14-.45,3.67.92,3.67.92a30.36,30.36,0,0,0,8-2.27c4.83-2,5.43-6,8.08-6s7.47,1.89,9.29,8.08c.29,1,.56,1.94.79,2.82C146.79,164.52,147.18,167.39,146.37,168.13Z"/><path class="cls-36" d="M99.47,42.8c-5.64.24-10.32,6.06-11.18,13.54-.79,6.86,0,10.61,3,13.08s16.34,4.3,21.16-.76C118,62.88,116.15,42.07,99.47,42.8Z"/><path class="cls-37" d="M97.65,27.46a17.17,17.17,0,0,0,1.17,6s10,1.85,14,4.88a28.45,28.45,0,0,1,6.75,7.57,25.57,25.57,0,0,0-5.77-10.14C109.53,31.15,100,30.3,97.65,27.46Z"/><path class="cls-38" d="M64.29,28.7A7.17,7.17,0,0,1,72.19,34s-.47-7.74-2.78-9.26A8.11,8.11,0,0,0,64.29,28.7Z"/><path class="cls-39" d="M67.37,49.83c-.31,5.31-2,10.71-4.37,12.41a1.19,1.19,0,0,1-.15.09.38.38,0,0,1-.11.08c-2.83,1.64-9.57-1.15-9.22-4.59.5-5,4.23-16.56,6.67-19.52,1.8-2.17,4.22-3,6.36,3.39A22.73,22.73,0,0,1,67.37,49.83Z"/><circle class="cls-40" cx="102.17" cy="61.89" r="9.33"/><path class="cls-41" d="M108.63,61.89a6.46,6.46,0,1,1-6.46-6.47A6.46,6.46,0,0,1,108.63,61.89Z"/><path class="cls-42" d="M67.37,49.83c-.31,5.31-2,10.71-4.37,12.41a1.19,1.19,0,0,1-.15.09,3.64,3.64,0,0,1-2.32.46c-3-.46-4.79-5-4-10.06s3.84-8.85,6.84-8.4C65.39,44.65,66.88,46.84,67.37,49.83Z"/><ellipse class="cls-43" cx="62.71" cy="53.68" rx="6.46" ry="3.8" transform="translate(0.18 107.57) rotate(-81.32)"/><path class="cls-44" d="M95.4,58.37a1.83,1.83,0,1,1-1.83-1.83A1.83,1.83,0,0,1,95.4,58.37Z"/><path class="cls-44" d="M57.79,50.82c-.1,1-.64,1.78-1.22,1.73s-1-.92-.88-1.92.63-1.78,1.21-1.73S57.88,49.81,57.79,50.82Z"/><path class="cls-45" d="M77,70.64a29,29,0,0,0-5.42,1.88,6.76,6.76,0,0,1-4.06.76c-3.8-2-5.59-4.6-5.27-6.24a1.63,1.63,0,0,1,.61-1,18,18,0,0,1,4.34-2.33c3.88-2,9.75.36,10.24,2.27a8.76,8.76,0,0,1-.19,3.79C77.11,70.28,77,70.64,77,70.64Z"/><path class="cls-46" d="M77,70.64a29,29,0,0,0-5.42,1.88,6.76,6.76,0,0,1-4.06.76c-3.8-2-5.59-4.6-5.27-6.24,0,0,1.53,1.42,5.93,1.94,3.9.46,7.28.2,9.07.76C77.11,70.28,77,70.64,77,70.64Z"/><path class="cls-47" d="M72.23,72.21s2-2.46,4.76-1.57A43.28,43.28,0,0,0,72.23,72.21Z"/><path class="cls-21" d="M60.54,79.56s-.29,11.38,3.88,17,11.94,4,16.49-1a25.77,25.77,0,0,0,5.59-12Z"/><path class="cls-48" d="M87,80a22.77,22.77,0,0,1-2.15,8.33h0c-3.76,7.93-11.59,12-17.34,9.21-2.41-1.16-4-3.59-5-6.38-1.9-5.17-2-11.6-2-13.57-.11-2.66-1.14-3.38-1.39-3.51l3.13,1.37c6.66.13,12.29,2.71,15.37,3.23,3.55.61,6.65-.21,8.16,0S87,80,87,80Z"/><path class="cls-49" d="M84.85,88.3h0c-3.76,7.93-11.59,12-17.34,9.21-2.41-1.16-4-3.59-5-6.38,0,0,4.12-3.72,12.09-4.48S84.85,88.3,84.85,88.3Z"/><path class="cls-50" d="M62.2,75.43s.36,3.27,5.32,4.79,12.41-1.34,12.41-1.34a22.11,22.11,0,0,1-5.32-1C71.34,76.93,66.08,75.19,62.2,75.43Z"/><path class="cls-21" d="M83.83,77.16a11,11,0,0,1,4.86,5.32,15.08,15.08,0,0,0-1.15-5C86.59,75.81,83.83,77.16,83.83,77.16Z"/><path class="cls-21" d="M59.64,74.31a5.82,5.82,0,0,0,2.56.51,18.61,18.61,0,0,1,9.17,1.23A39.18,39.18,0,0,0,81,78.54a21.92,21.92,0,0,0,3.76.11,35.61,35.61,0,0,1-5.08.33c-2-.09-7.21-2.19-11.5-2.87a23.21,23.21,0,0,0-6-.44A6.75,6.75,0,0,1,59.64,74.31Z"/><path class="cls-21" d="M91.28,69.42A34.17,34.17,0,0,0,115,67a13.06,13.06,0,0,1-6.37,4.83C104.12,73.59,95.69,73.4,91.28,69.42Z"/><path class="cls-21" d="M53.7,56.54s2.29,6.38,10.06,5c0,0-3.85,3.78-7,2.12A6.07,6.07,0,0,1,53.7,56.54Z"/><path class="cls-51" d="M63.54,93.48s2.4-4.71,6.78-6.07c0,0-5.69,1.15-7.81,3.73Z"/><path class="cls-50" d="M63.36,93.09s1.41.42,4.61,1.48a55.83,55.83,0,0,1,7.26,3.12S66.88,101.06,63.36,93.09Z"/><path class="cls-52" d="M130.48,26.43s3.46,14.4,8.28,17.86,8.9-1.61,8.63-7c0,0,6.69,17.21-2.38,41.74,0,0-1.86-4.94-9.91-2.86A19.65,19.65,0,0,0,125.81,82a88.28,88.28,0,0,0,4.52-15.81c1.26-7.71.09-21.91.09-21.91Z"/><path class="cls-53" d="M115,23.39s9.45,8.14,13.09,24-.29,41.87.47,53.43,6.56,11.54,5.64,28.23c0,0,3.83-14.21-1.66-25.39s.24-22.68,5.14-39.57-7-38.46-10.83-40.75S115,23.39,115,23.39Z"/><path class="cls-54" d="M9.85,38.53A20.76,20.76,0,0,1,11,43.65l.25,2.78,2.13,5.5,1.17-.62a34.51,34.51,0,0,1-3.11-5c-.47-1.39.35-2.62-.31-4.89A7.11,7.11,0,0,0,9.85,38.53Z"/><path class="cls-55" d="M115,159.76s3,6.59,1.24,11.18l5.43.1S121.37,163.14,115,159.76Z"/><path class="cls-56" d="M77.27,163.33a75.09,75.09,0,0,0,8.25,2.75,50.48,50.48,0,0,0,7.51.73,19.36,19.36,0,0,1-7.62,0A30.76,30.76,0,0,1,77.27,163.33Z"/><path class="cls-57" d="M146.37,168.13c-.93.94-5.56,3.33-19.05,4.27,0,0-3,1.8-5.65,1.42a4.58,4.58,0,0,1-3.54-2.85l3.54.07s-1.2-9-6.68-11.28c0,0-.62-2.79.8-3.35,0,0,7.51,8,8.43,15.05a11.07,11.07,0,0,0,7.75-5.13l-.76,2.85s12.22-4.72,13.92-7.39c.31-.48,1.25-1.11,1.25-1.82C147.05,163.53,146.93,167.56,146.37,168.13Z"/><path class="cls-58" d="M132.51,151.05a10.56,10.56,0,0,1,8.7.31,22.55,22.55,0,0,0-5.89-6.34l-.49,4.09A5,5,0,0,0,132.51,151.05Z"/><path class="cls-59" d="M71.6,218.21s6,3.53,19.32,1.71a52.12,52.12,0,0,0,23.21-9.8,87.35,87.35,0,0,1-23.72,7C78.16,218.66,71.6,218.21,71.6,218.21Z"/><path class="cls-60" d="M68.45,223.16c.1.71,1,6.44,3.77,9.21l-1.42-.18h0S69,230.68,68.45,223.16Z"/><path class="cls-61" d="M98.6,19.12S109.52,20.34,115,24s11.28,18.06,11.28,18.06S124,19.59,118.2,15.8,103.63,13.36,98.6,19.12Z"/><path class="cls-62" d="M98.6,19.12s5.23-6.26,12.05-6.55c0,0,11.75-.09,16.87,7.2S134.05,47.53,137.75,57s10.89,18.09,12,33.82-11,32.59-11,32.59,6.92-23.18,6.08-38.28-10.13-23.87-16.76-37.7-6-29.56-15.73-32.21C104.32,13,98.6,19.12,98.6,19.12Z"/><path class="cls-8" d="M26,103.71l3.12-1.25.91,1.76L27.49,106S26.51,104.54,26,103.71Z"/><polygon class="cls-8" points="47.09 100.03 47.09 109.02 49.69 109.02 49.62 101.56 47.09 100.03"/><polygon class="cls-8" points="33.83 87.8 38.75 87.41 40.8 89.79 34.8 89.79 33.83 87.8"/><polygon class="cls-25" points="68.45 205.65 73.05 212.28 76.58 210.64 70.28 204.99 68.45 205.65"/><polygon class="cls-25" points="63.87 177.27 67.42 179.38 67.42 182.41 63.87 180.55 63.87 177.27"/><polygon class="cls-25" points="109.61 223.16 104.66 231.15 109.36 230.27 112.58 223.84 109.61 223.16"/><path class="cls-25" d="M144.9,155a12.07,12.07,0,0,1-3.24,4l1.62,2.75s2.59-1.88,2.9-2.79A32.82,32.82,0,0,0,144.9,155Z"/><path class="cls-25" d="M127.83,156s4.66.24,7.08-.52l1.76,2a30.62,30.62,0,0,1-9.4.34Z"/><path class="cls-25" d="M135.44,171.45s1.58-1,2.09-3.95l3-.88a9.34,9.34,0,0,1-1.71,4.29S136.2,171.36,135.44,171.45Z"/><path class="cls-25" d="M100.22,114.19l-2.78,3.54,4.25.86,2.26-2.2A21.29,21.29,0,0,0,100.22,114.19Z"/><path class="cls-63" d="M131.59,220.62l0,0c-.47.51-8.35,8.59-33,11.35a130.55,130.55,0,0,1-20.87.84,22.26,22.26,0,0,0,3.85-.15s-.73-7.12-1-10.6c0,0,1.66,7.7,3.68,10.47,0,0,7.39-.12,10.42-.82a81.38,81.38,0,0,1-1.78-11.29,50.4,50.4,0,0,0,4,11.29l4.23-1.13s-1.13-5.38-1.92-11.41c0,0,2.18,8.69,4.07,11.6,0,0,9.22-1.52,10.83-3,0,0,1.3-4.23-.54-12.08a60.05,60.05,0,0,1,2.79,11.58l5.91-2.15a54.24,54.24,0,0,0,.25-12.41s2,7.17,1.69,11.59l4.71-3a39.19,39.19,0,0,0-1.32-10.67,27.07,27.07,0,0,1,2.84,10.17Z"/></g></g></g></svg>