<svg xmlns="http://www.w3.org/2000/svg" xmlns:xlink="http://www.w3.org/1999/xlink" viewBox="0 0 274.81 366.93"><defs><style>.cls-1{isolation:isolate;}.cls-2{fill:url(#Áåçûìÿííûé_ãðàäèåíò_96);}.cls-13,.cls-3,.cls-67{opacity:0.83;}.cls-13,.cls-21,.cls-3,.cls-5,.cls-54,.cls-55,.cls-56,.cls-57,.cls-58,.cls-59,.cls-60,.cls-61,.cls-62,.cls-63,.cls-64,.cls-67,.cls-71,.cls-72,.cls-75,.cls-76,.cls-77,.cls-78,.cls-8{mix-blend-mode:multiply;}.cls-3{fill:url(#Áåçûìÿííûé_ãðàäèåíò_81);}.cls-4{fill:url(#Áåçûìÿííûé_ãðàäèåíò_373);}.cls-21,.cls-5,.cls-54,.cls-55,.cls-56,.cls-57,.cls-58,.cls-60,.cls-61,.cls-62,.cls-63,.cls-64,.cls-71,.cls-72,.cls-78,.cls-8{opacity:0.62;}.cls-5{fill:url(#Áåçûìÿííûé_ãðàäèåíò_75);}.cls-6{fill:url(#Áåçûìÿííûé_ãðàäèåíò_71);}.cls-7{fill:url(#Áåçûìÿííûé_ãðàäèåíò_12);}.cls-8{fill:url(#Áåçûìÿííûé_ãðàäèåíò_75-2);}.cls-9{fill:url(#Áåçûìÿííûé_ãðàäèåíò_30);}.cls-10{fill:url(#Áåçûìÿííûé_ãðàäèåíò_96-2);}.cls-11{fill:url(#Áåçûìÿííûé_ãðàäèåíò_30-2);}.cls-12{fill:url(#Áåçûìÿííûé_ãðàäèåíò_12-2);}.cls-13{fill:url(#Áåçûìÿííûé_ãðàäèåíò_81-2);}.cls-14{fill:url(#Áåçûìÿííûé_ãðàäèåíò_71-2);}.cls-15{fill:url(#Áåçûìÿííûé_ãðàäèåíò_30-3);}.cls-16{fill:url(#Áåçûìÿííûé_ãðàäèåíò_65);}.cls-17{fill:url(#Áåçûìÿííûé_ãðàäèåíò_71-3);}.cls-18{fill:url(#Áåçûìÿííûé_ãðàäèåíò_96-3);}.cls-19{fill:#e87a8d;}.cls-20{fill:url(#Áåçûìÿííûé_ãðàäèåíò_373-2);}.cls-21{fill:url(#Áåçûìÿííûé_ãðàäèåíò_75-3);}.cls-22{fill:url(#Áåçûìÿííûé_ãðàäèåíò_71-4);}.cls-23{fill:url(#Áåçûìÿííûé_ãðàäèåíò_71-5);}.cls-24{fill:url(#Áåçûìÿííûé_ãðàäèåíò_71-6);}.cls-25{fill:url(#Áåçûìÿííûé_ãðàäèåíò_373-3);}.cls-26{fill:#77485e;}.cls-27{fill:url(#Áåçûìÿííûé_ãðàäèåíò_69);}.cls-28{fill:url(#Áåçûìÿííûé_ãðàäèåíò_69-2);}.cls-29{fill:url(#Áåçûìÿííûé_ãðàäèåíò_77);}.cls-30{fill:url(#Áåçûìÿííûé_ãðàäèåíò_74);}.cls-31{fill:url(#Áåçûìÿííûé_ãðàäèåíò_94);}.cls-32{fill:url(#Áåçûìÿííûé_ãðàäèåíò_74-2);}.cls-33{fill:url(#Áåçûìÿííûé_ãðàäèåíò_77-2);}.cls-34{fill:url(#Áåçûìÿííûé_ãðàäèåíò_94-2);}.cls-35{fill:url(#Áåçûìÿííûé_ãðàäèåíò_373-4);}.cls-36{fill:#e37e7f;}.cls-37{fill:url(#Áåçûìÿííûé_ãðàäèåíò_134);}.cls-38{fill:url(#Áåçûìÿííûé_ãðàäèåíò_27);}.cls-39{fill:#9f4a8b;}.cls-40{fill:url(#Áåçûìÿííûé_ãðàäèåíò_373-5);}.cls-41{fill:url(#Áåçûìÿííûé_ãðàäèåíò_373-6);}.cls-42{fill:url(#Áåçûìÿííûé_ãðàäèåíò_373-7);}.cls-43{fill:url(#Áåçûìÿííûé_ãðàäèåíò_34);}.cls-44{fill:url(#Áåçûìÿííûé_ãðàäèåíò_30-4);}.cls-45{fill:url(#Áåçûìÿííûé_ãðàäèåíò_373-8);}.cls-46{fill:url(#Áåçûìÿííûé_ãðàäèåíò_373-9);}.cls-47{fill:url(#Áåçûìÿííûé_ãðàäèåíò_15);}.cls-48{fill:#fff;}.cls-49{fill:url(#Áåçûìÿííûé_ãðàäèåíò_77-3);}.cls-50{fill:url(#Áåçûìÿííûé_ãðàäèåíò_80);}.cls-51{fill:url(#Áåçûìÿííûé_ãðàäèåíò_77-4);}.cls-52{fill:url(#Áåçûìÿííûé_ãðàäèåíò_77-5);}.cls-53{fill:url(#Áåçûìÿííûé_ãðàäèåíò_77-6);}.cls-54{fill:url(#Áåçûìÿííûé_ãðàäèåíò_75-4);}.cls-55{fill:url(#Áåçûìÿííûé_ãðàäèåíò_75-5);}.cls-56{fill:url(#Áåçûìÿííûé_ãðàäèåíò_75-6);}.cls-57{fill:url(#Áåçûìÿííûé_ãðàäèåíò_75-7);}.cls-58{fill:url(#Áåçûìÿííûé_ãðàäèåíò_75-8);}.cls-59,.cls-70{opacity:0.5;}.cls-59{fill:url(#Áåçûìÿííûé_ãðàäèåíò_87);}.cls-60{fill:url(#Áåçûìÿííûé_ãðàäèåíò_75-9);}.cls-61{fill:url(#Áåçûìÿííûé_ãðàäèåíò_75-10);}.cls-62{fill:url(#Áåçûìÿííûé_ãðàäèåíò_75-11);}.cls-63{fill:url(#Áåçûìÿííûé_ãðàäèåíò_75-12);}.cls-64{fill:url(#Áåçûìÿííûé_ãðàäèåíò_75-13);}.cls-65{fill:url(#Áåçûìÿííûé_ãðàäèåíò_25);}.cls-66{fill:url(#Áåçûìÿííûé_ãðàäèåíò_77-7);}.cls-67{fill:url(#Áåçûìÿííûé_ãðàäèåíò_81-3);}.cls-68,.cls-69,.cls-70,.cls-86,.cls-87{mix-blend-mode:soft-light;}.cls-68{fill:url(#Áåçûìÿííûé_ãðàäèåíò_264);}.cls-69{fill:url(#Áåçûìÿííûé_ãðàäèåíò_264-2);}.cls-70{fill:url(#Áåçûìÿííûé_ãðàäèåíò_264-3);}.cls-71{fill:url(#Áåçûìÿííûé_ãðàäèåíò_75-14);}.cls-72{fill:url(#Áåçûìÿííûé_ãðàäèåíò_75-15);}.cls-73{fill:url(#Áåçûìÿííûé_ãðàäèåíò_78);}.cls-74{fill:url(#Áåçûìÿííûé_ãðàäèåíò_73);}.cls-75,.cls-76,.cls-77{opacity:0.84;}.cls-75{fill:url(#Áåçûìÿííûé_ãðàäèåíò_75-16);}.cls-76{fill:url(#Áåçûìÿííûé_ãðàäèåíò_75-17);}.cls-77{fill:url(#Áåçûìÿííûé_ãðàäèåíò_75-18);}.cls-78{fill:url(#Áåçûìÿííûé_ãðàäèåíò_17);}.cls-79{fill:url(#Áåçûìÿííûé_ãðàäèåíò_373-10);}.cls-80{fill:url(#Áåçûìÿííûé_ãðàäèåíò_86);}.cls-81{fill:url(#Áåçûìÿííûé_ãðàäèåíò_373-11);}.cls-82{fill:url(#Áåçûìÿííûé_ãðàäèåíò_86-2);}.cls-83{fill:url(#Áåçûìÿííûé_ãðàäèåíò_86-3);}.cls-84{fill:url(#Áåçûìÿííûé_ãðàäèåíò_86-4);}.cls-85{fill:url(#Áåçûìÿííûé_ãðàäèåíò_25-2);}.cls-86{fill:#d7e2ff;}.cls-87,.cls-88{fill:#d7d9ff;}.cls-89{mix-blend-mode:screen;fill:url(#Áåçûìÿííûé_ãðàäèåíò_8);}.cls-90{fill:url(#Áåçûìÿííûé_ãðàäèåíò_30-5);}</style><linearGradient id="Áåçûìÿííûé_ãðàäèåíò_96" x1="207.73" y1="214.86" x2="207.73" y2="105.34" gradientUnits="userSpaceOnUse"><stop offset="0" stop-color="#744fd8"/><stop offset="1" stop-color="#3996f7"/></linearGradient><linearGradient id="Áåçûìÿííûé_ãðàäèåíò_81" x1="204.94" y1="214.67" x2="204.94" y2="105.34" gradientUnits="userSpaceOnUse"><stop offset="0" stop-color="#9d68c2"/><stop offset="1" stop-color="#ccedff"/></linearGradient><linearGradient id="Áåçûìÿííûé_ãðàäèåíò_373" x1="149.82" y1="366.91" x2="149.82" y2="231.4" gradientUnits="userSpaceOnUse"><stop offset="0" stop-color="#1c257b"/><stop offset="1" stop-color="#482c83"/></linearGradient><linearGradient id="Áåçûìÿííûé_ãðàäèåíò_75" x1="162.87" y1="281.42" x2="162.87" y2="231.39" gradientUnits="userSpaceOnUse"><stop offset="0" stop-color="#8b8be0"/><stop offset="1" stop-color="#a177b7"/></linearGradient><linearGradient id="Áåçûìÿííûé_ãðàäèåíò_71" x1="228.23" y1="211" x2="228.23" y2="193" gradientUnits="userSpaceOnUse"><stop offset="0.02" stop-color="#ffc2a9"/><stop offset="1" stop-color="#ff9595"/></linearGradient><linearGradient id="Áåçûìÿííûé_ãðàäèåíò_12" x1="161.98" y1="248.5" x2="161.98" y2="231.4" gradientUnits="userSpaceOnUse"><stop offset="0" stop-color="#d1c8f8"/><stop offset="1" stop-color="#eee5f9"/></linearGradient><linearGradient id="Áåçûìÿííûé_ãðàäèåíò_75-2" x1="161.73" y1="248.5" x2="161.73" y2="231.4" xlink:href="#Áåçûìÿííûé_ãðàäèåíò_75"/><linearGradient id="Áåçûìÿííûé_ãðàäèåíò_30" x1="258.92" y1="177.37" x2="258.92" y2="171.64" gradientUnits="userSpaceOnUse"><stop offset="0.02" stop-color="#ffa58b"/><stop offset="1" stop-color="#ff898e"/></linearGradient><linearGradient id="Áåçûìÿííûé_ãðàäèåíò_96-2" x1="98.73" y1="182.24" x2="98.73" y2="101.81" xlink:href="#Áåçûìÿííûé_ãðàäèåíò_96"/><linearGradient id="Áåçûìÿííûé_ãðàäèåíò_30-2" x1="153.81" y1="124.46" x2="153.81" y2="76.48" xlink:href="#Áåçûìÿííûé_ãðàäèåíò_30"/><linearGradient id="Áåçûìÿííûé_ãðàäèåíò_12-2" x1="152.63" y1="118.57" x2="152.63" y2="96.09" xlink:href="#Áåçûìÿííûé_ãðàäèåíò_12"/><linearGradient id="Áåçûìÿííûé_ãðàäèåíò_81-2" x1="98.89" y1="182.24" x2="98.89" y2="101.81" xlink:href="#Áåçûìÿííûé_ãðàäèåíò_81"/><linearGradient id="Áåçûìÿííûé_ãðàäèåíò_71-2" x1="155.27" y1="88.98" x2="155.27" y2="12.8" xlink:href="#Áåçûìÿííûé_ãðàäèåíò_71"/><linearGradient id="Áåçûìÿííûé_ãðàäèåíò_30-3" x1="153.62" y1="72.69" x2="153.62" y2="12.49" xlink:href="#Áåçûìÿííûé_ãðàäèåíò_30"/><linearGradient id="Áåçûìÿííûé_ãðàäèåíò_65" x1="153" y1="58.66" x2="144.01" y2="1.88" gradientUnits="userSpaceOnUse"><stop offset="0" stop-color="#d49092"/><stop offset="0.13" stop-color="#d18e92"/><stop offset="0.2" stop-color="#c98991"/><stop offset="0.27" stop-color="#bb7f90"/><stop offset="0.32" stop-color="#a7718f"/><stop offset="0.37" stop-color="#8c5f8d"/><stop offset="0.42" stop-color="#6c498a"/><stop offset="0.46" stop-color="#472f88"/><stop offset="0.47" stop-color="#3e2987"/><stop offset="0.61" stop-color="#352278"/><stop offset="0.85" stop-color="#291762"/><stop offset="1" stop-color="#24135a"/></linearGradient><linearGradient id="Áåçûìÿííûé_ãðàäèåíò_71-3" x1="42.75" y1="180.75" x2="42.75" y2="46.72" xlink:href="#Áåçûìÿííûé_ãðàäèåíò_71"/><linearGradient id="Áåçûìÿííûé_ãðàäèåíò_96-3" x1="154.74" y1="247.19" x2="154.74" y2="96.09" xlink:href="#Áåçûìÿííûé_ãðàäèåíò_96"/><linearGradient id="Áåçûìÿííûé_ãðàäèåíò_373-2" x1="231.99" y1="202.11" x2="231.99" y2="128.93" xlink:href="#Áåçûìÿííûé_ãðàäèåíò_373"/><linearGradient id="Áåçûìÿííûé_ãðàäèåíò_75-3" x1="257.13" y1="186.13" x2="257.13" y2="157.95" xlink:href="#Áåçûìÿííûé_ãðàäèåíò_75"/><linearGradient id="Áåçûìÿííûé_ãðàäèåíò_71-4" x1="258.16" y1="172.92" x2="258.16" y2="157.95" xlink:href="#Áåçûìÿííûé_ãðàäèåíò_71"/><linearGradient id="Áåçûìÿííûé_ãðàäèåíò_71-5" x1="265.35" y1="159.69" x2="265.35" y2="148.34" xlink:href="#Áåçûìÿííûé_ãðàäèåíò_71"/><linearGradient id="Áåçûìÿííûé_ãðàäèåíò_71-6" x1="257.49" y1="178.98" x2="257.49" y2="174.04" xlink:href="#Áåçûìÿííûé_ãðàäèåíò_71"/><linearGradient id="Áåçûìÿííûé_ãðàäèåíò_373-3" x1="148.95" y1="41.04" x2="148.95" y2="28.76" xlink:href="#Áåçûìÿííûé_ãðàäèåíò_373"/><linearGradient id="Áåçûìÿííûé_ãðàäèåíò_69" x1="153.46" y1="50.46" x2="153.46" y2="40.64" gradientUnits="userSpaceOnUse"><stop offset="0" stop-color="#d0c7f8"/><stop offset="1" stop-color="#fff"/></linearGradient><linearGradient id="Áåçûìÿííûé_ãðàäèåíò_69-2" x1="172.54" y1="47.77" x2="172.54" y2="37.95" xlink:href="#Áåçûìÿííûé_ãðàäèåíò_69"/><linearGradient id="Áåçûìÿííûé_ãðàäèåíò_77" x1="15.31" y1="78.66" x2="31.15" y2="78.66" gradientUnits="userSpaceOnUse"><stop offset="0" stop-color="#cf6074"/><stop offset="1" stop-color="#ff817f"/></linearGradient><radialGradient id="Áåçûìÿííûé_ãðàäèåíò_74" cx="152.36" cy="46.95" r="3.86" gradientUnits="userSpaceOnUse"><stop offset="0" stop-color="#cf95ff"/><stop offset="1" stop-color="#8161ff"/></radialGradient><linearGradient id="Áåçûìÿííûé_ãðàäèåíò_94" x1="152.24" y1="48.09" x2="152.24" y2="42.62" gradientUnits="userSpaceOnUse"><stop offset="0" stop-color="#8642a0"/><stop offset="1" stop-color="#4e37b7"/></linearGradient><radialGradient id="Áåçûìÿííûé_ãðàäèåíò_74-2" cx="171.75" cy="44.81" r="2.59" xlink:href="#Áåçûìÿííûé_ãðàäèåíò_74"/><linearGradient id="Áåçûìÿííûé_ãðàäèåíò_77-2" x1="10.02" y1="65.88" x2="23.27" y2="65.88" xlink:href="#Áåçûìÿííûé_ãðàäèåíò_77"/><linearGradient id="Áåçûìÿííûé_ãðàäèåíò_94-2" x1="171.13" y1="45.95" x2="171.13" y2="40.48" xlink:href="#Áåçûìÿííûé_ãðàäèåíò_94"/><linearGradient id="Áåçûìÿííûé_ãðàäèåíò_373-4" x1="172.27" y1="33.46" x2="172.27" y2="25.01" xlink:href="#Áåçûìÿííûé_ãðàäèåíò_373"/><linearGradient id="Áåçûìÿííûé_ãðàäèåíò_134" x1="167.27" y1="59.48" x2="169.6" y2="52.37" gradientUnits="userSpaceOnUse"><stop offset="0" stop-color="#ff8883"/><stop offset="1" stop-color="#e8868d"/></linearGradient><linearGradient id="Áåçûìÿííûé_ãðàäèåíò_27" x1="168.71" y1="56.33" x2="168.71" y2="49.26" gradientUnits="userSpaceOnUse"><stop offset="0" stop-color="#ff8883"/><stop offset="1" stop-color="#ffb1a4"/></linearGradient><linearGradient id="Áåçûìÿííûé_ãðàäèåíò_373-5" x1="29.82" y1="122.01" x2="29.82" y2="67.39" gradientTransform="translate(38.12 -26.95) rotate(28.27)" xlink:href="#Áåçûìÿííûé_ãðàäèåíò_373"/><linearGradient id="Áåçûìÿííûé_ãðàäèåíò_373-6" x1="205.01" y1="122.18" x2="205.01" y2="67.57" gradientTransform="matrix(-0.88, -0.47, -0.47, 0.88, 249.14, 86.32)" xlink:href="#Áåçûìÿííûé_ãðàäèåíò_373"/><linearGradient id="Áåçûìÿííûé_ãðàäèåíò_373-7" x1="32.16" y1="123.55" x2="32.16" y2="121.15" gradientTransform="translate(38.12 -26.95) rotate(28.27)" xlink:href="#Áåçûìÿííûé_ãðàäèåíò_373"/><linearGradient id="Áåçûìÿííûé_ãðàäèåíò_34" x1="32.16" y1="116.89" x2="32.16" y2="96.35" gradientTransform="translate(38.12 -26.95) rotate(28.27)" gradientUnits="userSpaceOnUse"><stop offset="0" stop-color="#6a4fac"/><stop offset="1" stop-color="#513689"/></linearGradient><linearGradient id="Áåçûìÿííûé_ãðàäèåíò_30-4" x1="28.66" y1="68.06" x2="28.66" y2="41.54" xlink:href="#Áåçûìÿííûé_ãðàäèåíò_30"/><linearGradient id="Áåçûìÿííûé_ãðàäèåíò_373-8" x1="228.67" y1="209.88" x2="228.67" y2="201.45" xlink:href="#Áåçûìÿííûé_ãðàäèåíò_373"/><linearGradient id="Áåçûìÿííûé_ãðàäèåíò_373-9" x1="237.57" y1="366.93" x2="237.57" y2="209.85" xlink:href="#Áåçûìÿííûé_ãðàäèåíò_373"/><linearGradient id="Áåçûìÿííûé_ãðàäèåíò_15" x1="352.28" y1="69.59" x2="352.28" y2="48.05" gradientTransform="matrix(-0.98, 0.18, 0.18, 0.98, 466.3, -56.29)" gradientUnits="userSpaceOnUse"><stop offset="0.02" stop-color="#ffac8b"/><stop offset="1" stop-color="#ff9595"/></linearGradient><linearGradient id="Áåçûìÿííûé_ãðàäèåíò_77-3" x1="141.44" y1="88.53" x2="168.42" y2="88.53" xlink:href="#Áåçûìÿííûé_ãðàäèåíò_77"/><linearGradient id="Áåçûìÿííûé_ãðàäèåíò_80" x1="33.48" y1="93.85" x2="33.48" y2="72.94" gradientUnits="userSpaceOnUse"><stop offset="0.02" stop-color="#ff997c"/><stop offset="1" stop-color="#ff898e"/></linearGradient><linearGradient id="Áåçûìÿííûé_ãðàäèåíò_77-4" x1="40.54" y1="81.72" x2="45.42" y2="81.72" xlink:href="#Áåçûìÿííûé_ãðàäèåíò_77"/><linearGradient id="Áåçûìÿííûé_ãðàäèåíò_77-5" x1="45.26" y1="109.26" x2="45.26" y2="100.63" xlink:href="#Áåçûìÿííûé_ãðàäèåíò_77"/><linearGradient id="Áåçûìÿííûé_ãðàäèåíò_77-6" x1="80.73" y1="179.85" x2="80.73" y2="133.89" xlink:href="#Áåçûìÿííûé_ãðàäèåíò_77"/><linearGradient id="Áåçûìÿííûé_ãðàäèåíò_75-4" x1="153.67" y1="247.19" x2="153.67" y2="98.17" xlink:href="#Áåçûìÿííûé_ãðàäèåíò_75"/><linearGradient id="Áåçûìÿííûé_ãðàäèåíò_75-5" x1="145.67" y1="173.96" x2="145.67" y2="167.34" xlink:href="#Áåçûìÿííûé_ãðàäèåíò_75"/><linearGradient id="Áåçûìÿííûé_ãðàäèåíò_75-6" x1="190.97" y1="140.45" x2="190.97" y2="101.19" xlink:href="#Áåçûìÿííûé_ãðàäèåíò_75"/><linearGradient id="Áåçûìÿííûé_ãðàäèåíò_75-7" x1="176.81" y1="150.18" x2="176.81" y2="113.74" xlink:href="#Áåçûìÿííûé_ãðàäèåíò_75"/><linearGradient id="Áåçûìÿííûé_ãðàäèåíò_75-8" x1="165.09" y1="219.96" x2="165.09" y2="209.88" xlink:href="#Áåçûìÿííûé_ãðàäèåíò_75"/><linearGradient id="Áåçûìÿííûé_ãðàäèåíò_87" x1="117.37" y1="161.43" x2="117.37" y2="142.03" gradientUnits="userSpaceOnUse"><stop offset="0" stop-color="#9d68c2"/><stop offset="1" stop-color="#90aeff"/></linearGradient><linearGradient id="Áåçûìÿííûé_ãðàäèåíò_75-9" x1="175.64" y1="281.42" x2="175.64" y2="251.83" xlink:href="#Áåçûìÿííûé_ãðàäèåíò_75"/><linearGradient id="Áåçûìÿííûé_ãðàäèåíò_75-10" x1="118.4" y1="366.91" x2="118.4" y2="265.05" xlink:href="#Áåçûìÿííûé_ãðàäèåíò_75"/><linearGradient id="Áåçûìÿííûé_ãðàäèåíò_75-11" x1="181.48" y1="366.91" x2="181.48" y2="281.69" xlink:href="#Áåçûìÿííûé_ãðàäèåíò_75"/><linearGradient id="Áåçûìÿííûé_ãðàäèåíò_75-12" x1="129.14" y1="353.82" x2="129.14" y2="343.27" xlink:href="#Áåçûìÿííûé_ãðàäèåíò_75"/><linearGradient id="Áåçûìÿííûé_ãðàäèåíò_75-13" x1="190.43" y1="348.37" x2="190.43" y2="341.09" xlink:href="#Áåçûìÿííûé_ãðàäèåíò_75"/><linearGradient id="Áåçûìÿííûé_ãðàäèåíò_25" x1="231.99" y1="200.33" x2="231.99" y2="128.93" gradientUnits="userSpaceOnUse"><stop offset="0" stop-color="#8642a0"/><stop offset="1" stop-color="#6456c0"/></linearGradient><linearGradient id="Áåçûìÿííûé_ãðàäèåíò_77-7" x1="252.39" y1="168.05" x2="261.82" y2="168.05" xlink:href="#Áåçûìÿííûé_ãðàäèåíò_77"/><linearGradient id="Áåçûìÿííûé_ãðàäèåíò_81-3" x1="131.85" y1="105.23" x2="131.85" y2="105" xlink:href="#Áåçûìÿííûé_ãðàäèåíò_81"/><linearGradient id="Áåçûìÿííûé_ãðàäèåíò_264" x1="164.16" y1="229.17" x2="164.16" y2="213.85" gradientUnits="userSpaceOnUse"><stop offset="0" stop-color="#b9acf4"/><stop offset="1" stop-color="#e1d1f5"/></linearGradient><linearGradient id="Áåçûìÿííûé_ãðàäèåíò_264-2" x1="175.27" y1="238.42" x2="175.27" y2="226.92" xlink:href="#Áåçûìÿííûé_ãðàäèåíò_264"/><linearGradient id="Áåçûìÿííûé_ãðàäèåíò_264-3" x1="218.3" y1="202.11" x2="218.3" y2="160.1" xlink:href="#Áåçûìÿííûé_ãðàäèåíò_264"/><linearGradient id="Áåçûìÿííûé_ãðàäèåíò_75-14" x1="127.82" y1="317.8" x2="127.82" y2="275.36" xlink:href="#Áåçûìÿííûé_ãðàäèåíò_75"/><linearGradient id="Áåçûìÿííûé_ãðàäèåíò_75-15" x1="173.41" y1="319.76" x2="173.41" y2="268.41" xlink:href="#Áåçûìÿííûé_ãðàäèåíò_75"/><linearGradient id="Áåçûìÿííûé_ãðàäèåíò_78" x1="169.62" y1="115.16" x2="169.62" y2="100.47" gradientUnits="userSpaceOnUse"><stop offset="0" stop-color="#3d2cb0"/><stop offset="1" stop-color="#0355c7"/></linearGradient><linearGradient id="Áåçûìÿííûé_ãðàäèåíò_73" x1="131.52" y1="41.36" x2="128.48" y2="22.19" gradientUnits="userSpaceOnUse"><stop offset="0" stop-color="#5e3187"/><stop offset="0.38" stop-color="#422271"/><stop offset="0.76" stop-color="#2c1760"/><stop offset="1" stop-color="#24135a"/></linearGradient><linearGradient id="Áåçûìÿííûé_ãðàäèåíò_75-16" x1="160.84" y1="21.34" x2="160.84" y2="4.03" xlink:href="#Áåçûìÿííûé_ãðàäèåíò_75"/><linearGradient id="Áåçûìÿííûé_ãðàäèåíò_75-17" x1="148.25" y1="21.34" x2="148.25" y2="9.59" xlink:href="#Áåçûìÿííûé_ãðàäèåíò_75"/><linearGradient id="Áåçûìÿííûé_ãðàäèåíò_75-18" x1="172.11" y1="20.39" x2="172.11" y2="12.81" xlink:href="#Áåçûìÿííûé_ãðàäèåíò_75"/><linearGradient id="Áåçûìÿííûé_ãðàäèåíò_17" x1="149.59" y1="57.63" x2="149.59" y2="37.57" gradientUnits="userSpaceOnUse"><stop offset="0" stop-color="#f2c7cc"/><stop offset="1" stop-color="#a177b7"/></linearGradient><linearGradient id="Áåçûìÿííûé_ãðàäèåíò_373-10" x1="151.67" y1="55.57" x2="154" y2="36.15" xlink:href="#Áåçûìÿííûé_ãðàäèåíò_373"/><linearGradient id="Áåçûìÿííûé_ãðàäèåíò_86" x1="152.03" y1="55.53" x2="154.36" y2="36.11" gradientUnits="userSpaceOnUse"><stop offset="0" stop-color="#1c257b"/><stop offset="1" stop-color="#65459c"/></linearGradient><linearGradient id="Áåçûìÿííûé_ãðàäèåíò_373-11" x1="173.2" y1="51.65" x2="175.18" y2="35.22" xlink:href="#Áåçûìÿííûé_ãðàäèåíò_373"/><linearGradient id="Áåçûìÿííûé_ãðàäèåíò_86-2" x1="173.6" y1="51.65" x2="175.58" y2="35.22" xlink:href="#Áåçûìÿííûé_ãðàäèåíò_86"/><linearGradient id="Áåçûìÿííûé_ãðàäèåíò_86-3" x1="165.95" y1="39.39" x2="166.28" y2="36.64" xlink:href="#Áåçûìÿííûé_ãðàäèåíò_86"/><linearGradient id="Áåçûìÿííûé_ãðàäèåíò_86-4" x1="134.43" y1="56.67" x2="136.18" y2="42.09" xlink:href="#Áåçûìÿííûé_ãðàäèåíò_86"/><linearGradient id="Áåçûìÿííûé_ãðàäèåíò_25-2" x1="136.76" y1="49.46" x2="136.76" y2="45.35" xlink:href="#Áåçûìÿííûé_ãðàäèåíò_25"/><linearGradient id="Áåçûìÿííûé_ãðàäèåíò_8" x1="145.78" y1="50.33" x2="145.78" y2="41.28" gradientUnits="userSpaceOnUse"><stop offset="0"/><stop offset="1" stop-color="#e1d1f5"/></linearGradient><linearGradient id="Áåçûìÿííûé_ãðàäèåíò_30-5" x1="158.05" y1="88.98" x2="158.05" y2="72.98" xlink:href="#Áåçûìÿííûé_ãðàäèåíò_30"/></defs><g class="cls-1"><g id="Layer_2" data-name="Layer 2"><g id="illustration"><path class="cls-2" d="M226.55,171s-2.52-.76-3.53,1.26-4.17,26.27-3.29,33.09,3.41,4.3,3.41,4.3-.25,4-1.89,5.18h0l-.11-.08-.15-.1h0c-1-.64-4.33-2.86-7.43-5a45.73,45.73,0,0,1-5.81-4.68s.51-4,.51-5.17-8.09-28.05-16-36.38c-7.42-7.77-.13-51.54.89-57.45l.12-.66s6.44,1.89,9.22,3.92,12.76,26.65,13.26,39.28,5.05,19.8,5.05,19.8a4.9,4.9,0,0,1,4,0Z"/><path class="cls-3" d="M221,214.67c-1-.64-4.33-2.86-7.43-5a45.73,45.73,0,0,1-5.81-4.68s.51-4,.51-5.17-8.09-28.05-16-36.38c-7.42-7.77-.13-51.54.89-57.45l.12-.66s5.24,6.57,7.51,19.64-.94,38.85-.94,38.85,4.54,20.84,15.72,21.22c0,0-9.37,13.73-5.68,20.62C210.53,207,219.26,213.46,221,214.67Z"/><path class="cls-4" d="M199.59,335.3a29.36,29.36,0,0,1-1.09,5.78h0c-.81,2.79-1.83,4.88-2.39,7.28-.88,3.79-1.89,18.54-1.89,18.54H167.69a215,215,0,0,0,3.79-23.34c1.45-13.05-6.35-58-7-61.88,0-.17-.05-.26-.05-.26C157.59,310,140.85,343.07,139.14,345a20.8,20.8,0,0,1-5.11,3.6c-1.9,3.6-5.88,18.35-5.88,18.35H97.65c1.7-7.8,9.47-19.48,11.94-23.84S121.33,309,123.8,289.26c1-8.21,1.82-16.88,2.4-24.21v0c.81-10.24,1.2-17.84,1.2-17.84,7.76-7.95,68.47-15.79,68.47-15.79l1.92,6.23s2.17.47,2.46,2-1.75,2.9-1.75,2.9C205.31,281.17,200.15,329.05,199.59,335.3Z"/><path class="cls-5" d="M127.23,250.21s18.36-2.26,29.92,3.23,10.52,15,10.52,15l-3.26,13,11.23-11.75,22.87-27.15a34.34,34.34,0,0,1-9.84,3.72s7.79-4.83,9.12-8.62l-1.92-6.23-68.64,14.66Z"/><path class="cls-6" d="M217.87,198.5s-.75,8.52,4.36,12.5c0,0,10.52-5.49,15.7-14.46S217.87,198.5,217.87,198.5Z"/><path class="cls-7" d="M127.4,247.19l-.17,1.31s14.18-3.58,21-3.84,14.05,5.18,28.58,2.53,19.93-13.14,19.93-13.14l-.87-2.65Z"/><path class="cls-8" d="M132.17,247.34a276.51,276.51,0,0,1,32.92-5.64c19.14-2.18,26.35-2.85,28.14-4.27s3-4.94,3-4.94l-.36-1.09L127.4,247.19l-.17,1.31Z"/><path class="cls-9" d="M258.39,171.64s2.93,2.37,2.95,4.41-4.84,1.1-4.84,1.1Z"/><path class="cls-10" d="M114.13,162.31l-2.08-11.37s-5.31,0-13.07,7.2a22.51,22.51,0,0,1-2.85,8.77S87.19,171.22,83,177.09s-5.72,6.46-10.05,3.13c-1.15-.88-1.93-3.87-2.34-7.94a102.67,102.67,0,0,1,.68-22.36c.88-6.26,2.33-11.81,4.34-14.7a13.4,13.4,0,0,1,1.71-6.89l.28.19a5.83,5.83,0,0,0,3.88.95c2.15-.38,3.95-3.67,3.95-3.67a2.88,2.88,0,0,1,1.86,1,47.73,47.73,0,0,0,14-14c5.43-8.76,6.31-9.84,6.31-9.84a18.43,18.43,0,0,1,3.27-.92,12.24,12.24,0,0,1,4.94,0S142.3,142.86,114.13,162.31Z"/><path class="cls-11" d="M170.35,105.34s-3.29-4.92-3.29-16.35L141.44,76.48s1.29,8.83-3.05,16.48c-1.15,2-6.5,5.21-6.5,5.21s23.42,28.88,34.66,26.11,9-15,9-15S173.63,110,170.35,105.34Z"/><path class="cls-12" d="M135,96.09s12.69,12.64,23.61,13.35c11.7.76,9.77-9,9.77-9s5.3,7.42,3.78,13.27-13.07,6.12-22,2.24S132.8,97,132.8,97Z"/><path class="cls-13" d="M114.13,162.31l-2.08-11.37s-5.31,0-13.07,7.2a22.51,22.51,0,0,1-2.85,8.77S87.19,171.22,83,177.09s-5.72,6.46-10.05,3.13c-1.15-.88-1.93-3.87-2.34-7.94l.68-1.63V149.92c.88-6.26,2.33-11.81,4.34-14.7a13.4,13.4,0,0,1,1.71-6.89l.28.19c7.35,4.79,10,18.88,10.46,29.37.07-2.66,1.75-13,3-12.76,1.64.25,4.41,19.2,4.41,19.2,3.28-16.25-7.3-35.85-8.15-37.41a66.76,66.76,0,0,1,11.31,28.7l15-11s9-9.1,5.92-24.76S111,102.08,111,102.08a12.24,12.24,0,0,1,4.94,0S142.3,142.86,114.13,162.31Z"/><path class="cls-14" d="M176.91,86.32a.55.55,0,0,0-.1.11,3.79,3.79,0,0,1-1.15,1c-5.69,2.91-20.84,2.15-29-5.05A34.68,34.68,0,0,1,139.29,73a.11.11,0,0,0,0,0c-3-5.43-4.67-11.07-6.31-15-2.65-6.31-4.83-16.88-4.29-23,.5-5.68,1.64-10.48,9.35-17s26.65-6.95,31.45-.38,4.67,21.35,5.81,24.63,5.18,7.2,6.32,11.62C182.64,57.89,181.54,80.55,176.91,86.32Z"/><path class="cls-15" d="M177,45.35s-.25,3.95-3.33,4.22c-2.41.21-3.88-3.35-3.88-3.35s-.43-9.65.79-14.4L171.69,28a10.92,10.92,0,0,0-8.23-3c-4.92.43-6.69,5.7-6.69,5.7s4.37,12.51,3.74,18.55A12.24,12.24,0,0,1,151.65,52,14.4,14.4,0,0,1,142,47.77s-3.51,4.1-4.18,7.58c-.8,4.16.58,17.34.58,17.34S134,58.41,132.77,54.24s-3.41-22.67-2.09-25.83S135.84,15,152.24,12.94s19.45,3.47,19.45,3.47l1.69,8.15v4.2s1.15,10.83,1.56,12.65A12.53,12.53,0,0,0,177,45.35Z"/><path class="cls-16" d="M173.45,29.18a29.41,29.41,0,0,0-3.6-11.06,25.26,25.26,0,0,1-9.19,5.68,30.5,30.5,0,0,0,3.87-4.34,42.54,42.54,0,0,1-8.7,5s1.42-2.18,1.42-3.13-3.6-5.11-7.77-5a20,20,0,0,0-16.11,10.42c-4,7.58,0,8.28,2.2,10.26a140.69,140.69,0,0,0-.85,17.26,39,39,0,0,0,.65,6.34c.06.29.13.56.2.82l-5.69-5.2a24.1,24.1,0,0,0-2.24-8.45c-.24-.57-.52-1.16-.83-1.77l0,0-.38-.73c-1.36-2.54-5.55-7.3-5-12.13.57-4.56,8.86-8.46,10.88-11.5,0,0-6.35,2-9.36,5.06a7.41,7.41,0,0,1,2.84-4.46c2.35-1.61,4.33-.61,7.75-2S141.62,7.32,147.11,3s18.1-3.5,22.17,0a10.28,10.28,0,0,1,2.41,3.11h0s0,0,0,0a16.69,16.69,0,0,1,1.73,6.67S175.82,22.52,173.45,29.18Z"/><path class="cls-17" d="M79.65,133.89l-4,1.32s-18.18-10.79-24.06-37c0,0,4.55-7.86,4.74-10.71s-2.72-8.77-3.6-16.23.88-13.13.76-14-4.68-1-5.94,2.65.63,10.24,0,11.5a36.33,36.33,0,0,1-2.15,3.41S38.73,64.66,37,63.65s-4.55,3.94-5.81,4.18S25.27,61.7,20.82,58,8,46.54,7.18,46.73A3.16,3.16,0,0,0,5.38,50c.19,1.51,3.79,8.15,9.28,10.8,0,0,6.64,4.55,10.14,10.7,0,0-1.51,2.56-2.56,2.66s-7-3.89-11.74-5.78S1.4,65.2.64,65.49s-.47,2,0,3.12S5.38,73.06,10,74.2c0,0,6.92,2.75,9.19,5.59,0,0-.28,2.84-1,3.32s-6.44-.38-10-.86-7.57.1-8,.57S.07,84.91,2.92,86s6.25.38,6.82.47,10.89,3.32,12.12,4.08,6.64,8.83,10.52,11.29S41.85,103,41.85,103s6.22,34.93,9.26,48.82,14.65,28.3,24.75,28.93c0,0,9.1-3.54,9.6-22.23S79.65,133.89,79.65,133.89Z"/><path class="cls-18" d="M189.16,172.67a111.77,111.77,0,0,0,1.14,41.18s3,2.08,3.41,4.73a.18.18,0,0,0,0,0,15.84,15.84,0,0,1-.2,5.07,18.73,18.73,0,0,1,2.47,3.22,3,3,0,0,1,.37,1.24,10.79,10.79,0,0,1-.94,4.44s-2.28,5.88-26,8a307.87,307.87,0,0,0-42.06,6.63s-1.43-4.73,1.18-8.33c0,0-4-3.6-3.84-4.93s8.91-16.48,6.64-27.09-10.8-19.22-15.54-39.93c0,0-3.16-1.06-3.35-2.58s1.39-4,1.39-4l.57,1.08s10.8-6.19,7.89-32.34-6-27.74-11.38-27c0,0,4.31-4,5.32-3.9s1.39,1.95,1.39,1.95a11.21,11.21,0,0,0,7.36,0,19.57,19.57,0,0,0,6.65-4s24,20.31,34.53,19.07c12-1.42,3.54-14.58,3.54-14.58s7.54,1.48,11.58,2.42,5.56,0,5.56,0,2.4-3.57,5.56-1.18,7.07,15.52,5.81,36.74S189.16,172.67,189.16,172.67Z"/><path class="cls-19" d="M148.17,44.93a8.57,8.57,0,0,0-.31,3.69c.34,1.75,6.64,3.46,9.63.81S148.17,44.93,148.17,44.93Z"/><path class="cls-20" d="M274.81,133.89c-7.83,21-29.31,65.56-29.31,65.56-28.29,5.43-54.82.88-54.82.88l-1.52-2.45c9.85-29.8,31.08-68.66,31.08-68.66,26-1.39,53.56,2.77,53.56,2.77Z"/><path class="cls-21" d="M249.74,165.44s-1.2,14.08,2.08,20.69L264.74,158l-6.15,1.45.81,2.84A16.3,16.3,0,0,0,249.74,165.44Z"/><path class="cls-22" d="M263.82,158s2.06,1.63,2.47,3,1,5.1-3.23,6.25l-1.89.5s1.39.64,1.64,1.58-1.32,3-3.85,3.54-6.76-.5-8-1.64-.44-2.72,1.45-3.16c0,0-2.78-.62-2.65-2.55s6.5-4,13.26-3.39Z"/><path class="cls-19" d="M170.35,46.8A3.08,3.08,0,0,0,173.63,48c2.27-.48,2.06-4.41,1.64-5.78S170.39,45.53,170.35,46.8Z"/><path class="cls-23" d="M268.94,148.34s3.41,3.17,3.41,5.35-5,4.92-13.64,6a4.44,4.44,0,0,1,0-3.48c.8-1.8,5.11-4.32,8.66-4.89Z"/><path class="cls-24" d="M259,174.05s-5.85-.56-5.35,4.78a16.19,16.19,0,0,0,5.68-.23,2.37,2.37,0,0,0,1.89-3.16C261,174.81,260.82,174.31,259,174.05Z"/><path class="cls-25" d="M141.71,41a12.57,12.57,0,0,1,3.45-6.14c2.15-2.22,6.3-4.47,9.21-5.6a6.92,6.92,0,0,1,.44,2.71s.48-1.67.89-3.25a11.62,11.62,0,0,1,.45,4.66s-2.54.89-6.72,2A13.87,13.87,0,0,0,141.71,41Z"/><path class="cls-26" d="M169.75,44.93s0-8,2.32-8.43c1.94-.37,2.86,4.14,2.86,4.14Z"/><path class="cls-26" d="M147.86,47.2s-.07-5.61,4.52-7.6,6.19,4.46,6.19,4.46Z"/><path class="cls-27" d="M159,47.2c-.13,1.17-1.71,3.26-5.12,3.26-3,0-6.07-1.52-6.06-3.26a5.12,5.12,0,0,1,.44-1.94,8.21,8.21,0,0,1,3.34-3.8,5.38,5.38,0,0,1,3.29-.79C158.6,41.05,159.16,46,159,47.2Z"/><path class="cls-28" d="M175.33,43.23c0,2.6-1.08,4.58-3.06,4.54a2.18,2.18,0,0,1-1.7-.65,3.33,3.33,0,0,1-.63-1.38c-.07-.25-.14-.52-.2-.81a23.37,23.37,0,0,1,.86-4.45,9.06,9.06,0,0,1,.49-1.2A2.36,2.36,0,0,1,172.27,38C173.81,37.46,175.29,40.62,175.33,43.23Z"/><path class="cls-29" d="M31.15,67.83a99.9,99.9,0,0,0-6.28,10c-2.81,5-3,12.63-3,12.63a43.69,43.69,0,0,0-6.15-2.28c-2.18-.47,5.31-12,5.31-12l8.5-9.37Z"/><path class="cls-30" d="M156.18,45.36a3.95,3.95,0,0,1-7.89,0,.34.34,0,0,1,0-.1,8.21,8.21,0,0,1,3.34-3.8,3.92,3.92,0,0,1,4.54,3.9Z"/><path class="cls-31" d="M155,45.35a2.73,2.73,0,1,1-2.73-2.73A2.74,2.74,0,0,1,155,45.35Z"/><path class="cls-32" d="M173.63,43.22c0,2.18-1.2,3.94-2.68,3.94a1.58,1.58,0,0,1-.38,0,3.33,3.33,0,0,1-.63-1.38c-.07-.25-.14-.52-.2-.81a23.37,23.37,0,0,1,.86-4.45,9.06,9.06,0,0,1,.49-1.2C172.51,39.39,173.63,41.11,173.63,43.22Z"/><path class="cls-33" d="M10,74.2s2.65,1,3.84.66,1.8-2.86,1.8-3.18-3.4-2.58-3.4-2.58l4.3,2.16,4.21-5A26.12,26.12,0,0,0,15.07,61s3.43,2.08,4.47,1.32A4,4,0,0,0,21,59.47c0-.71-3.52-4.32-3.52-4.32s5.29,4.33,5.73,5.06-2.5,11.23-2.5,11.23L15,76.61S11.59,75,10,74.2Z"/><path class="cls-34" d="M172.52,43.22c0,1.51-.83,2.73-1.86,2.73a1.43,1.43,0,0,1-.72-.21c-.07-.25-.14-.52-.2-.81a23.37,23.37,0,0,1,.86-4.45h.06C171.69,40.48,172.52,41.71,172.52,43.22Z"/><path class="cls-19" d="M170.7,29.24s-2.12,11.23-.95,17c0,0-.68-8.64,1.94-14.8Z"/><path class="cls-35" d="M170.29,33.46s.25-3.79.82-7l.38,1.33,1.1-2.77s2.84,1.73,1.1,5.44C173.69,30.45,171.86,30.24,170.29,33.46Z"/><path class="cls-19" d="M159.26,61s.24,2.57,5,4,8.78.56,10.26-1.08a7.77,7.77,0,0,1-4.31,2.33c-2.78.51-7-.15-9-1.67a7.16,7.16,0,0,1-2.62-3.16Z"/><path class="cls-36" d="M157.21,62.06a17.77,17.77,0,0,1,4.36-1.53,10.77,10.77,0,0,0-3.19-.16C157.37,60.62,157.21,62.06,157.21,62.06Z"/><path class="cls-37" d="M162.07,55.06s3.29,0,6.32.19,5.81-.19,7-1a6.56,6.56,0,0,1-3.6,5.69,4.94,4.94,0,0,1-3.1,0,8,8,0,0,0-4.17-2.09S162,57.09,162.07,55.06Z"/><path class="cls-38" d="M168.07,49.3c-3.91.54-6,5.76-6,5.76l7.39,1.27a11.94,11.94,0,0,0,5.88-2.09S172,48.75,168.07,49.3Z"/><path class="cls-39" d="M164.24,57.75s.37-.34,1.58-.27,2.36,2,2.36,2A9.19,9.19,0,0,0,164.24,57.75Z"/><path class="cls-40" d="M29,48.07,16.69,70.92s-3.17,13.24-9,18.45c0,0-.68,2.54,1,6.36l25.87-48.1S31.44,46.31,29,48.07Z"/><path class="cls-41" d="M37.22,52.5,24.93,75.35s-9.29,10-10.4,17.73c0,0-1.74,2-5.87,2.65l25.87-48.1S37.33,49.48,37.22,52.5Z"/><path class="cls-42" d="M8.18,94.5l1.78,1s-1.51,1.91-2,1.64S8.18,94.5,8.18,94.5Z"/><path class="cls-43" d="M7.64,89.37l6.89,3.71s.8-6.66,10.4-17.73l-8.24-4.43A43.6,43.6,0,0,1,7.64,89.37Z"/><path class="cls-44" d="M39,65.76s-4-5-7.58-10.57S21.49,40.66,19.31,41.61,19,48.24,21,51.84s4.55,4.93,5.69,6.82,4.45,9.17,4.45,9.17S36.29,69.06,39,65.76Z"/><path class="cls-45" d="M227.47,201.73s-1.61,7.66-.91,8.13,4.39-8.41,4.39-8.41Z"/><path class="cls-46" d="M204.2,366.93l-.5-.05c0-.26,3-26.42,34.86-35.91,17.41-5.19,29-17.26,31.77-33.11a43,43,0,0,0-16.86-41.6c-25.38-18.75-27.15-46.11-27.16-46.38l.5,0c0,.27,1.77,27.41,27,46a43.46,43.46,0,0,1,17,42.08C268,314,256.3,326.21,238.7,331.45,207.18,340.84,204.22,366.67,204.2,366.93Z"/><path class="cls-47" d="M135,59.58s-6.26-6.24-10-2.71c-4.44,4.19-1.3,13.41,3.61,17.39,4.27,3.47,8.86,2.55,9.81-1.57C138.39,72.69,139.69,63.38,135,59.58Z"/><path class="cls-19" d="M134.81,65.45s-3.69-4.32-6.73-3.21-2.16,6-2.16,6,0-3.55,2-4.08,3.18,2,3.18,2-1.06.09-1,3.08S133.61,75,135,72.87,134.81,65.45,134.81,65.45Z"/><path class="cls-48" d="M156.77,45.59a.67.67,0,1,1-.66-.66A.66.66,0,0,1,156.77,45.59Z"/><path class="cls-48" d="M174.5,43.29a.67.67,0,1,1-.67-.67A.67.67,0,0,1,174.5,43.29Z"/><path class="cls-49" d="M141.44,83.06s9.84,19.12,27,17.41A55.36,55.36,0,0,1,167.06,89s-8-.22-13.9-2.67c-6.67-2.76-11.72-9.84-11.72-9.84Z"/><path class="cls-50" d="M39,93.59c-4.65,1.33-13.29-2.76-14-6.69S30,72.31,35.22,73s7.72,4.5,6.63,8C40.61,84.89,41.63,92.83,39,93.59Z"/><path class="cls-51" d="M45.42,74.77s-5.18,8.62-4.7,15.73c0,0-1.36-10.3,3.47-17.56Z"/><path class="cls-52" d="M41.85,103s4.84-1,6.82-2.37L43,109.26S42.23,105.82,41.85,103Z"/><path class="cls-53" d="M75.67,135.21s3.38,4,5.63,19.64-3.93,25-3.93,25,6.26-1.19,8.12-19.5-5.84-26.46-5.84-26.46Z"/><path class="cls-54" d="M195.42,232.6s-2.28,5.88-26,8a307.87,307.87,0,0,0-42.06,6.63s-1.43-4.73,1.18-8.33c0,0-4-3.6-3.84-4.93s8.91-16.48,6.64-27.09-10.8-19.22-15.54-39.93c0,0-3.16-1.06-3.35-2.58s1.39-4,1.39-4l.57,1.08s10.8-6.19,7.89-32.34-6-27.74-11.38-27c0,0,4.31-4,5.32-3.9,0,0,6.42,4.82,10.85,30.75,3.71,21.71,9.88,35.27,9.88,35.27a76.64,76.64,0,0,0,26.39,4.07c14.22-.47,12.77-2.26,25.26-1.36,0,0-27,2.88-37.2,4.73a108.15,108.15,0,0,0-19.57,5.73s8.67,20.18,7.25,33.63a66.61,66.61,0,0,1-4.54,17.68s1.78.7,19.17-.05,39.94-10,39.94-10a.18.18,0,0,0,0,0,11.59,11.59,0,0,1-.2,5.07s-17.37,3.79-33.41,6.82-25.51,8-25.51,8,3.28,1.83,28.27-.89,32.21-4.37,33.48-9.45v0A10.79,10.79,0,0,1,195.42,232.6Z"/><path class="cls-55" d="M128.58,172.68s3-4,9.81-5.07,17.7,1.53,24.38,1.52c0,0-18.67,3.53-25.76,4.54S128.58,172.68,128.58,172.68Z"/><path class="cls-56" d="M186.89,103s6.83,11.94,8.09,37.45c0,0,1.13-20.17-5.81-39.26A4.94,4.94,0,0,0,186.89,103Z"/><path class="cls-57" d="M186,113.74s-2.08,15-18.28,36.44c0,0,10.6-8.6,14.33-16.93C186,124.41,186,113.74,186,113.74Z"/><path class="cls-58" d="M145.67,209.88a23.39,23.39,0,0,0,15,9.52c10.23,1.9,23.88-1.64,23.88-1.64s-13.14,2.27-23-1A87.84,87.84,0,0,1,145.67,209.88Z"/><path class="cls-59" d="M112.05,150.94s7.67-3.17,10.63-8.91c0,0-.46,14.22-8.23,19.4A57.84,57.84,0,0,1,112.05,150.94Z"/><path class="cls-60" d="M164.41,281.42l4-14.78s7-10.17,18.42-14.81L175.64,269Z"/><path class="cls-61" d="M139.14,345a20.8,20.8,0,0,1-5.11,3.6c-1.9,3.6-5.88,18.35-5.88,18.35H97.65c1.7-7.8,9.47-19.48,11.94-23.84S121.33,309,123.8,289.26c1-8.21,1.82-16.88,2.4-24.21,0,.56,1,6.28-1.9,34.1-3,28.55-5.11,40.89-4.86,43.41S132.07,351.15,139.14,345Z"/><path class="cls-62" d="M198.5,341.09c-.81,2.79-1.83,4.88-2.39,7.28-.88,3.79-1.89,18.54-1.89,18.54H167.69a215,215,0,0,0,3.79-23.34c1.45-13.05-6.35-58-7-61.88.88,4.14,10.69,50.78,12.9,54.74C182.16,345,195.19,347.93,198.5,341.09Z"/><path class="cls-63" d="M119.77,343.27A14.5,14.5,0,0,0,132,353.82l2-5.26a53.64,53.64,0,0,0,4.48-3s-2.83,2.15-9.37,1.14S119.77,343.27,119.77,343.27Z"/><path class="cls-64" d="M182.36,342.44s4.59,5.17,13.75,5.93a75.15,75.15,0,0,0,2.39-7.28s-3.82,3.64-8.07,3.64A16.64,16.64,0,0,1,182.36,342.44Z"/><path class="cls-65" d="M274.81,133.89C236.53,129,221,131.24,221,131.24c-13.69,23.44-30.29,69.09-30.29,69.09l-1.52-2.45c9.85-29.8,31.08-68.66,31.08-68.66,26-1.39,53.56,2.77,53.56,2.77Z"/><path class="cls-66" d="M261.17,167.67a59.53,59.53,0,0,1-8.78.32,29.09,29.09,0,0,0,9.43.07Z"/><path class="cls-67" d="M131.81,105a2.09,2.09,0,0,0,.08.23C131.85,105.12,131.82,105,131.81,105Z"/><path class="cls-68" d="M134.6,228.68s9.24.29,28.27-3.09c20.24-3.6,27.43-11.74,27.43-11.74s2.91,1.89,3.41,4.73c0,0-17.16,7.24-30.84,9S137.37,229.51,134.6,228.68Z"/><path class="cls-69" d="M154.31,238.42s11.46-1.84,24.25-5S196,226.92,196,226.92s2.11,4.11-6.29,6.48S154.31,238.42,154.31,238.42Z"/><path class="cls-70" d="M206.2,161.47l41.23,33.94-1.93,4a172.72,172.72,0,0,1-54.82.88l-1.52-2.45s9.3-24.88,15.55-37.78Z"/><path class="cls-71" d="M127.23,275.36a146.57,146.57,0,0,0,1.91,42.44Z"/><path class="cls-72" d="M169.65,280.16s7,27.79,12.71,39.6c0,0-11.19-15.35-15.26-25.71l-2.64-12.36,3.21-13.28Z"/><path class="cls-73" d="M169.75,100.58l-1.33-.11s2.74,4.38,3.31,8-1.82,5.92-5.52,6.71c0,0,6-.35,6.72-4.45S169.75,100.58,169.75,100.58Z"/><path class="cls-74" d="M127.3,26s-6.35,3.66-6.54,8.5,3.89,7.94,3.89,7.94l.56-2.61a13.57,13.57,0,0,0,6.06-.56,14.52,14.52,0,0,0,4.3-2.28s-3.74-2.2-3.83-5.85,6.37-10.24,6.37-10.24l-5.78.68A60.83,60.83,0,0,0,127.3,26Z"/><path class="cls-75" d="M157.25,21.34s5.81-6.32,7-10.74S160.74,4,160.74,4s1.65,1.84,1.33,6.07S157.25,21.34,157.25,21.34Z"/><path class="cls-76" d="M139.16,20.1s5.91-10.38,11.47-10.51,7.18,10.11,6.62,11.75c0,0-.16-4.05-7.07-4.26A18.08,18.08,0,0,0,139.16,20.1Z"/><path class="cls-77" d="M169.85,18.12a40.67,40.67,0,0,0,3.6-5.31,45.67,45.67,0,0,1,.9,5.88s.44,1.14-3.34,1.7Z"/><path class="cls-78" d="M129.88,56.22,140,47.77s.38,8,7.4,9.44,12.23-.87,14.15-5.3a36.9,36.9,0,0,0,2.27-10.58s.47-.71,2.71-.69a4.91,4.91,0,0,1,3.19.9V37.73s-4.64-.72-6.66.92c0,0,.69,12.3-3.69,15.34s-8.1,3.44-12.8,1.06c-3.63-1.84-5.15-7.7-4-11.09l-3.4.68-9.73,11.43Z"/><path class="cls-79" d="M162.28,37.82c-1.92-2.55-15.26-.14-19,4s1.05,12.34,7,13.51c6.94,1.37,10.2-.88,12.12-3.81C164.43,48.43,164,40.13,162.28,37.82Zm-.09,12.28c-1.56,4.32-7.31,5.77-12.14,4.49-3-.8-8.07-5.42-6.93-10.63s16.57-7.46,18.45-5.47C163.09,40.09,163.75,45.79,162.19,50.1Z"/><path class="cls-80" d="M162.64,37.78c-1.92-2.55-15.26-.14-19,4s1.05,12.34,7,13.52c6.94,1.37,10.2-.88,12.12-3.81C164.79,48.39,164.38,40.09,162.64,37.78Zm-.09,12.28c-1.56,4.31-7.31,5.77-12.14,4.48-3-.79-8.07-5.41-6.93-10.62s16.57-7.46,18.45-5.48C163.45,40.05,164.11,45.75,162.55,50.06Z"/><path class="cls-81" d="M179.12,36.47c-1.14-1.87-7.63-1.15-9.25,0-1.05.76-.48,9.85,2.4,13.67a3.94,3.94,0,0,0,5.17,1.29C179.59,49.92,180.25,38.35,179.12,36.47Zm-.92,12.4c-.89,2.47-3.09,3-5.26,1-1.94-1.8-3.66-10.62-2.4-12.53,1.06-1.6,6.35-2.08,7.87-.41S179.23,46,178.2,48.87Z"/><path class="cls-82" d="M179.52,36.47c-1.14-1.87-7.63-1.15-9.25,0-1.05.76-.48,9.85,2.4,13.67a4,4,0,0,0,5.18,1.29C180,49.92,180.66,38.35,179.52,36.47Zm-.92,12.4c-.89,2.47-3.09,3-5.25,1-1.95-1.8-3.67-10.62-2.4-12.53,1.05-1.6,6.35-2.08,7.86-.41S179.64,46,178.6,48.87Z"/><path class="cls-83" d="M163.29,39.07a6.86,6.86,0,0,1,6.51-.62,3.29,3.29,0,0,1,.16-1.32s-2.57-.76-7.52.44A12,12,0,0,1,163.29,39.07Z"/><path class="cls-84" d="M142.56,42.86l-3.4,1.1L128.06,55.8a2.66,2.66,0,0,1,1.37.27l9.94-10.52a5.31,5.31,0,0,1,2.8-.62A4.58,4.58,0,0,1,142.56,42.86Z"/><polygon class="cls-85" points="137.85 45.35 137.95 47.05 135.68 49.46 135.57 47.79 137.85 45.35"/><path class="cls-86" d="M163.31,37.37l.59.61a18.55,18.55,0,0,1,3.36-.39,5.65,5.65,0,0,1,2.05.18l.43-.69A15.23,15.23,0,0,0,163.31,37.37Z"/><path class="cls-86" d="M171.25,36l.36.47a8.67,8.67,0,0,1,6.07-.47l-.09-.53A14,14,0,0,0,171.25,36Z"/><path class="cls-86" d="M156.77,37.43l.18-.53s4.25-.45,5.41.73a7.74,7.74,0,0,1,1.48,3.7l-.53.08s-.4-2.67-1.69-3.46S156.77,37.43,156.77,37.43Z"/><path class="cls-87" d="M147.42,52.91s2.23,2.79,7.35,2.37a9.56,9.56,0,0,0,7.3-4.19A9.5,9.5,0,0,1,154.65,55C149.65,55.19,147.42,52.91,147.42,52.91Z"/><path class="cls-87" d="M173.35,49.91s1.39,1.55,3,1.34a3,3,0,0,0,2.15-2s-.9,1.81-2.55,1.72A3.94,3.94,0,0,1,173.35,49.91Z"/><path class="cls-88" d="M152.86,55a2.84,2.84,0,0,0,1.5.32,5.64,5.64,0,0,0,2.27-.55A19,19,0,0,1,152.86,55Z"/><path class="cls-88" d="M174.52,50.8a3.42,3.42,0,0,0,2.22,0,2.68,2.68,0,0,0,1.19-.8,1.34,1.34,0,0,1-1.24,1.27A3.57,3.57,0,0,1,174.52,50.8Z"/><path class="cls-87" d="M149,54.16s-.19-4.1,4.67-7a9.94,9.94,0,0,1,9.33-.43,8.45,8.45,0,0,1-2.46,6C157.88,55.24,152.18,55.38,149,54.16Z"/><path class="cls-87" d="M172.34,48.34s3.27-4.17,6.95-5.48c0,0-.08,5.64-1.36,7.14S174.22,52,172.34,48.34Z"/><path class="cls-89" d="M143.62,45.23s.52,3.32,2.42,5.1l1.91-.45a51.21,51.21,0,0,1-1.52-8.6A6.31,6.31,0,0,0,143.62,45.23Z"/><path class="cls-90" d="M176.81,86.43a3.79,3.79,0,0,1-1.15,1c-5.69,2.91-20.84,2.15-29-5.05A34.68,34.68,0,0,1,139.29,73a30.86,30.86,0,0,0,14.52,11.64C164.19,88.75,176.08,87.47,176.81,86.43Z"/></g></g></g></svg>