<svg xmlns="http://www.w3.org/2000/svg" xmlns:xlink="http://www.w3.org/1999/xlink" viewBox="0 0 258.41 155.15"><defs><style>.cls-1{isolation:isolate;}.cls-2{fill:#e4ebf7;}.cls-15,.cls-3{fill:#fff;}.cls-4{fill:#4e8fb7;}.cls-18,.cls-5{fill:#70b2dd;}.cls-6{fill:#abdaf7;}.cls-7{fill:#f49187;}.cls-8{fill:url(#linear-gradient);}.cls-9{fill:#f6613a;opacity:0.5;}.cls-10{fill:#feb19e;}.cls-11{fill:#ff856a;}.cls-12{fill:url(#linear-gradient-2);}.cls-13{fill:#ffc7ae;}.cls-14{fill:#525559;}.cls-15{stroke:#f230db;stroke-miterlimit:10;}.cls-16,.cls-17{fill:#90c6e0;}.cls-17,.cls-18{opacity:0.35;mix-blend-mode:multiply;}</style><linearGradient id="linear-gradient" x1="147.48" y1="142.63" x2="138.48" y2="87.96" gradientUnits="userSpaceOnUse"><stop offset="0" stop-color="#f79239"/><stop offset="1" stop-color="#f7c759"/></linearGradient><linearGradient id="linear-gradient-2" x1="112.88" y1="42.23" x2="155.16" y2="42.23" gradientUnits="userSpaceOnUse"><stop offset="0" stop-color="#3f2323"/><stop offset="1" stop-color="#5e3434"/></linearGradient></defs><g class="cls-1"><g id="Layer_2" data-name="Layer 2"><g id="OBJECTS"><path class="cls-2" d="M257,107.93l-.21,1.18c-5,28.28-19.75,40.71-19.75,40.71H16.15S2.64,125,8.58,103.32c.09-.33.18-.66.28-1C12.77,89.44,23.8,77.82,49,73.45c5.42-.94,10.41-1.84,15-2.7l1.91-.37c16-3.06,27.14-5.79,35.62-8.91h0l1.83-.7C120.61,54,126.5,45.18,141.94,27.28q1.8-2.09,3.84-4.09c.3-.3.6-.59.91-.87A85.4,85.4,0,0,1,178,3.62l1-.32c15.27-4.84,31.86-4.91,45.89,3.56.53.32,1.06.65,1.59,1,11.11,7.33,20.47,20.28,26.06,40.79C259.18,73.18,259.46,92.77,257,107.93Z"/><path class="cls-3" d="M234.71,53.69c-3.18,16-14.11,28.92-32.48,38.33-36.1,18.47-50.47,41.58-56.15,57.8H145l0-.09c5.69-16.41,20.15-39.89,56.71-58.6,18.09-9.26,28.84-21.92,32-37.63,3.21-16.2-2.23-33.19-8.88-46.64.53.32,1.06.65,1.59,1C232.84,21.22,237.85,37.82,234.71,53.69Z"/><path class="cls-3" d="M257,107.93l-.21,1.18a397.87,397.87,0,0,1-50.31,18.7c-16.54,5-28.15,12.41-34.65,22h-1.2c6.55-10.07,18.47-17.77,35.56-23A396.22,396.22,0,0,0,257,107.93Z"/><path class="cls-3" d="M180.3,19.67c0,17.43-5.13,41.16-29.42,55.29C140.59,81,129,83.2,117.45,83.2c-15.72,0-31.47-4.15-44.13-8.78C70.11,73.25,67,72,64,70.75l1.91-.37c25,10.31,58.86,18.61,84.46,3.72,23.88-13.89,28.91-37.27,28.92-54.43a103.48,103.48,0,0,0-1.3-16l1-.32A104.76,104.76,0,0,1,180.3,19.67Z"/><path class="cls-3" d="M144.16,53.44c-4.87,6.43-13.49,9.65-25.75,9.65a99.53,99.53,0,0,1-16.86-1.62l1.83-.7c20.11,3.23,33.53.58,40-7.93,5.78-7.61,5.15-18.94,2.42-29.65.3-.3.6-.59.91-.87C149.6,33.4,150.33,45.31,144.16,53.44Z"/><path class="cls-3" d="M127.07,149.82h-1c-2.12-8.37-6.05-17.41-13.22-24.75-11.75-12-29.59-17.06-53-14.93-21.45,1.94-38.61-.35-51.22-6.82.09-.33.18-.66.28-1,12.46,6.45,29.49,8.73,50.85,6.8,23.76-2.15,41.86,3,53.83,15.24C120.92,131.94,124.93,141.24,127.07,149.82Z"/><path class="cls-4" d="M41.13,140.4s5.75-12.88-7.5-22.88-16.25-17.25-16.25-17.25S12.91,123.75,21,134.9V151H40.62Z"/><path class="cls-5" d="M29.27,150.15s-.65-9,8.31-15S46.42,123,46.42,123s6.88,17.24-1.82,27.13Z"/><path class="cls-6" d="M31.26,150.15s1.39-12.13-9.93-18.63S7.64,116.65,7.64,116.65s-6.25,21.12,4,33.5Z"/><path class="cls-7" d="M101.38,125.9a81,81,0,0,1-13.61,16.66v6.05h13.52a112.16,112.16,0,0,0,12.83-8.84S116.93,121.06,101.38,125.9Z"/><path class="cls-7" d="M186.38,137.4s-.63,12-3.63,12.75-15.29-10.38-15.29-10.38l-1.4-5.31,9.11-6.65S186,131.15,186.38,137.4Z"/><path class="cls-8" d="M186.38,137.4c-2.88-5.5-20.63-1.5-20.63-1.5l12.63,12.71H121.62c1.88-6.54.76-22.46.76-22.46s0,.23,0,.35a17.76,17.76,0,0,1-4.21,9.77c-.24,3.26-4,3.5-4,3.5a22.1,22.1,0,0,0-1.93-7.21c-3.69-7.63-10.81-6.66-10.81-6.66-.76-4,3.5-5,3.5-5s5.24-30.5,12.87-36.5,20.07-9,20.07-9l12.81-.87s25.12,5,30.12,13.62,4.13,41.25,4.13,41.25C188.88,132.65,186.38,137.4,186.38,137.4Z"/><path class="cls-9" d="M165.75,135.9s2.13-18.5-4.75-34.63c0,0,1.13,24.5-8.87,31.38s-27,5.5-31.25,17.5l37.5-.34Z"/><path class="cls-9" d="M122.33,126.5a17.76,17.76,0,0,1-4.21,9.77c-.24,3.26-4,3.5-4,3.5a22.1,22.1,0,0,0-1.93-7.21,21.17,21.17,0,0,0,5.56-9.24c2.65-8.76,1-18.28.84-19A161.07,161.07,0,0,1,122.33,126.5Z"/><path class="cls-10" d="M149.5,142.27s14.13-9.87,26.13-5.87,11,12.25,7.12,13.75H152.83Z"/><path class="cls-10" d="M153.27,75s-2.94,16.5-11.69,16.59c-7.64.07-5.87-9.95-5.3-12.5.08-.38.14-.59.14-.59L133.25,66.4l16.83-8.91.34,1.85v0Z"/><path class="cls-11" d="M136.28,79.07c.08-.38.14-.59.14-.59L133.25,66.4l16.83-8.91.34,1.85v0C152.63,79.07,136.59,79.07,136.28,79.07Z"/><path class="cls-12" d="M152.31,51.59a29.46,29.46,0,0,0,2.75-9.82c.5-5.12-.93-6.31-3.06-6.31,0,0-1.12-5.81-3.81-7.81s-13.63.94-17.81,3.44-7.25-4.39-9.19-4.1-2.31,5.6-.81,8c0,0-3.5-1.94-4.07-3.94s-4.56,1.63-3.12,9.07,4.75,8.37,4.75,8.37.62,7.88,7.06,8.75,23.44-.62,23.44-.62Z"/><path class="cls-10" d="M122.38,48.77s3.12,21.38,11,24.13,14.45-5.66,15.45-7.91,1.42-7,1.42-7,2.69.62,3-4.13-3.81-7.56-4.81.62c0,0-3.86-2.12-2.69-9.37a16.94,16.94,0,0,1-10.58,4.16c-6.17,0-.84-4.16-.84-4.16A16.91,16.91,0,0,1,122.38,48.77Z"/><rect class="cls-6" x="120.25" y="147.4" width="51.33" height="2.75"/><rect class="cls-5" x="155.75" y="147.4" width="15.83" height="2.75"/><path class="cls-13" d="M162.92,147.48s-4.54-6.77-11.35-6.66c-5.16.08-5.35,3.33-5.35,3.33a3.08,3.08,0,0,0-3.47,3.33Z"/><path class="cls-10" d="M99.08,147.06s.25-3.75-1.41-4.25a3,3,0,0,0-2.92.92s-1.25-5.5-5.92-5.67-13.08,4.59-7.91,9Z"/><path class="cls-5" d="M111.08,148.61a1.54,1.54,0,0,1-1.54,1.54H81.46a1.54,1.54,0,1,1,0-3.08h28.08A1.54,1.54,0,0,1,111.08,148.61Z"/><path class="cls-6" d="M102.75,148.61a1.54,1.54,0,0,1-1.54,1.54H81.46a1.54,1.54,0,1,1,0-3.08h19.75A1.54,1.54,0,0,1,102.75,148.61Z"/><path class="cls-14" d="M95.5,144.59l-5-16.27a1.41,1.41,0,0,0-1.71-.95h0a1.42,1.42,0,0,0-1,1.86l6,15.79A1.27,1.27,0,0,0,95.5,144.59Z"/><path class="cls-15" d="M60.44,104.11c.54,3.29-.64,6.21-2.64,6.54s-4.06-2.06-4.6-5.34.64-6.21,2.64-6.54S59.89,100.83,60.44,104.11Z"/><path class="cls-16" d="M90.82,133H37.51a5.72,5.72,0,0,1-5.3-3.61C26,113.84,21.36,98.69,19.49,84.26a5.71,5.71,0,0,1,5.66-6.44h54a5.69,5.69,0,0,1,5.63,4.86c2,13.37,6,27.7,11.38,42.75A5.7,5.7,0,0,1,90.82,133Z"/><path class="cls-6" d="M88.66,133H37.51a5.72,5.72,0,0,1-5.3-3.61C26,113.84,21.36,98.69,19.49,84.26a5.71,5.71,0,0,1,5.66-6.44H77a5.71,5.71,0,0,1,5.64,4.86c2,13.37,6,27.7,11.37,42.75A5.69,5.69,0,0,1,88.66,133Z"/><path class="cls-16" d="M86,150.15H65.55a7,7,0,0,1-6.59-4.7L52.83,124c3.39,0,6.72,0,10,0h3.26L71,140.69a5.52,5.52,0,0,0,4.32,3.55l7.66,1.2a3.17,3.17,0,0,1,2.6,2.45Z"/><path class="cls-17" d="M75.28,144.24l-1.73-.16a6.5,6.5,0,0,1-5.47-4l-5.26-16h3.26L71,140.69A5.52,5.52,0,0,0,75.28,144.24Z"/><path class="cls-3" d="M60,104.82c.76,3.17-.21,6.12-2.17,6.59s-4.16-1.72-4.92-4.89.22-6.11,2.17-6.58S59.27,101.65,60,104.82Z"/><rect class="cls-5" y="150.15" width="243.5" height="5"/><rect class="cls-4" x="189.5" y="150.15" width="54" height="5"/><polygon class="cls-5" points="218 129.73 215.67 115.23 208.25 116.15 211 130.56 218 129.73"/><path class="cls-4" d="M217.79,128.4l2.56-17.9a1,1,0,0,1,1.17-.85h0a1,1,0,0,1,.83,1.15l-2.85,18.51h1.08l3.82-14.18a1,1,0,0,1,1.25-.74h0a1,1,0,0,1,.75,1.27l-3.57,13.65L219.25,131Z"/><path class="cls-6" d="M225.33,128.4v18.46a3,3,0,0,1-3,3H211.71a3,3,0,0,1-3-3V128.4Z"/><rect class="cls-16" x="208.75" y="128.4" width="16.58" height="4.33"/><circle class="cls-18" cx="208.64" cy="38.42" r="23.59"/><circle class="cls-5" cx="208.25" cy="36.7" r="22.2" transform="translate(5.19 95.73) rotate(-26.2)"/><circle class="cls-6" cx="208.25" cy="36.7" r="16.33" transform="translate(140.87 237.14) rotate(-81.41)"/><path class="cls-5" d="M217.45,36h-8V25.09a1.56,1.56,0,0,0-3.11,0V38.81h11.16a1.43,1.43,0,0,0,0-2.85Z"/></g></g></g></svg>